<?xml version="1.0" encoding="utf-8"?>
<!-- Generator: Adobe Illustrator 18.1.1, SVG Export Plug-In . SVG Version: 6.00 Build 0)  -->
<svg version="1.1" id="Calque_1" xmlns="http://www.w3.org/2000/svg" xmlns:xlink="http://www.w3.org/1999/xlink" x="0px" y="0px"
	 viewBox="0 0 800 300" enable-background="new 0 0 800 300" xml:space="preserve">
<g>
	<path fill="#BDBCBC" d="M134.8,111.7h10.1l24,66H159l-6.9-19.8h-25.9l-7.2,19.8h-9.2L134.8,111.7z M149.6,150.6l-10.2-29.2
		l-10.6,29.2H149.6z"/>
	<path fill="#BDBCBC" d="M183.9,129.5v31.9c0,2.5,0.4,4.5,1.1,6c1.4,2.9,4,4.3,7.8,4.3c5.5,0,9.2-2.5,11.2-7.5
		c1.1-2.7,1.6-6.4,1.6-11.1v-23.6h8.1v48.1h-7.6l0.1-7.1c-1,1.8-2.3,3.4-3.8,4.6c-3,2.5-6.7,3.8-11,3.8c-6.7,0-11.3-2.3-13.8-6.9
		c-1.3-2.5-2-5.7-2-9.8v-32.7H183.9z"/>
	<path fill="#BDBCBC" d="M258.7,132.1c3.4,2.6,5.4,7.2,6.1,13.6H257c-0.5-3-1.6-5.4-3.3-7.4c-1.7-2-4.4-2.9-8.2-2.9
		c-5.2,0-8.8,2.5-11.1,7.5c-1.4,3.3-2.2,7.3-2.2,12.1c0,4.8,1,8.9,3.1,12.2c2,3.3,5.2,4.9,9.6,4.9c3.4,0,6-1,8-3.1
		c2-2,3.3-4.8,4.1-8.4h7.9c-0.9,6.4-3.1,11-6.7,14c-3.6,3-8.2,4.4-13.8,4.4c-6.3,0-11.3-2.3-15-6.9c-3.7-4.6-5.6-10.3-5.6-17.2
		c0-8.4,2.1-15,6.2-19.7c4.1-4.7,9.3-7.1,15.7-7.1C250.9,128.1,255.3,129.5,258.7,132.1z"/>
	<path fill="#BDBCBC" d="M281,129.5v31.9c0,2.5,0.4,4.5,1.1,6c1.4,2.9,4,4.3,7.8,4.3c5.5,0,9.2-2.5,11.2-7.5
		c1.1-2.7,1.6-6.4,1.6-11.1v-23.6h8.1v48.1h-7.6l0.1-7.1c-1,1.8-2.3,3.4-3.8,4.6c-3,2.5-6.7,3.8-11,3.8c-6.7,0-11.3-2.3-13.8-6.9
		c-1.3-2.5-2-5.7-2-9.8v-32.7H281z"/>
	<path fill="#BDBCBC" d="M324.1,129.5h7.7v6.8c2.3-2.8,4.7-4.8,7.2-6.1c2.5-1.2,5.4-1.8,8.5-1.8c6.8,0,11.4,2.4,13.8,7.1
		c1.3,2.6,2,6.3,2,11.2v30.9h-8.2v-30.3c0-2.9-0.4-5.3-1.3-7.1c-1.4-3-4-4.5-7.8-4.5c-1.9,0-3.5,0.2-4.7,0.6c-2.2,0.7-4.2,2-5.8,4
		c-1.3,1.6-2.2,3.2-2.6,4.9c-0.4,1.7-0.6,4.1-0.6,7.3v25.2h-8.1V129.5z"/>
	<path fill="#BDBCBC" d="M401.1,111.7h8.1v66h-8.1V111.7z"/>
	<path fill="#BDBCBC" d="M421.3,111.7h8.2v9.2h-8.2V111.7z M421.3,129.8h8.2v47.9h-8.2V129.8z"/>
	<path fill="#BDBCBC" d="M445.7,129.5l12.8,39.2l13.4-39.2h8.8l-18.1,48.1h-8.6l-17.7-48.1H445.7z"/>
	<path fill="#BDBCBC" d="M488,129.5h7.7v8.3c0.6-1.6,2.2-3.6,4.6-5.9c2.5-2.3,5.3-3.5,8.5-3.5c0.1,0,0.4,0,0.8,0
		c0.4,0,1,0.1,1.8,0.2v8.5c-0.5-0.1-0.9-0.1-1.3-0.2c-0.4,0-0.8,0-1.3,0c-4.1,0-7.2,1.3-9.4,3.9c-2.2,2.6-3.3,5.6-3.3,9.1v27.7H488
		V129.5z"/>
	<path fill="#BDBCBC" d="M544.2,148.5c1.9-0.2,3.1-1,3.7-2.3c0.4-0.7,0.5-1.8,0.5-3.1c0-2.8-1-4.8-2.9-6c-2-1.2-4.8-1.9-8.4-1.9
		c-4.2,0-7.2,1.1-9,3.4c-1,1.3-1.6,3.1-1.9,5.6h-7.5c0.1-5.9,2.1-10.1,5.8-12.4c3.7-2.3,8-3.5,12.9-3.5c5.7,0,10.2,1.1,13.8,3.2
		c3.5,2.2,5.2,5.5,5.2,10.1v27.7c0,0.8,0.2,1.5,0.5,2c0.3,0.5,1.1,0.8,2.2,0.8c0.4,0,0.8,0,1.2-0.1s0.9-0.1,1.4-0.2v6
		c-1.3,0.4-2.2,0.6-2.9,0.7c-0.7,0.1-1.6,0.1-2.7,0.1c-2.8,0-4.8-1-6.1-3c-0.7-1-1.1-2.5-1.4-4.4c-1.6,2.2-4,4-7.1,5.6
		c-3.1,1.6-6.5,2.4-10.2,2.4c-4.5,0-8.1-1.4-10.9-4.1s-4.2-6.1-4.2-10.2c0-4.5,1.4-7.9,4.2-10.4c2.8-2.5,6.4-4,11-4.5L544.2,148.5z
		 M527.1,170.4c1.7,1.3,3.7,2,6.1,2c2.8,0,5.6-0.7,8.3-2c4.5-2.2,6.7-5.8,6.7-10.7v-6.5c-1,0.6-2.3,1.2-3.8,1.6
		c-1.6,0.4-3.1,0.7-4.6,0.9l-4.9,0.6c-2.9,0.4-5.1,1-6.6,1.8c-2.5,1.4-3.8,3.6-3.8,6.7C524.6,167.2,525.4,169,527.1,170.4z"/>
	<path fill="#BDBCBC" d="M568.9,111.4h7.9v23.9c1.8-2.3,3.9-4.1,6.4-5.3c2.5-1.2,5.1-1.8,8-1.8c6,0,10.9,2.1,14.6,6.2
		c3.7,4.1,5.6,10.2,5.6,18.2c0,7.6-1.8,13.9-5.5,19s-8.8,7.5-15.4,7.5c-3.7,0-6.8-0.9-9.3-2.7c-1.5-1-3.1-2.7-4.8-5v6.2h-7.5V111.4z
		 M599.8,166.8c2.2-3.5,3.3-8.1,3.3-13.7c0-5.1-1.1-9.3-3.3-12.6c-2.2-3.3-5.4-5-9.6-5c-3.7,0-6.9,1.4-9.7,4.1
		c-2.8,2.7-4.2,7.2-4.2,13.5c0,4.5,0.6,8.2,1.7,11c2.1,5.3,6.1,8,11.9,8C594.3,172,597.6,170.3,599.8,166.8z"/>
	<path fill="#BDBCBC" d="M620.9,111.7h8.1v66h-8.1V111.7z"/>
	<path fill="#BDBCBC" d="M670.9,130.9c3.2,1.6,5.6,3.7,7.3,6.2c1.6,2.4,2.7,5.3,3.2,8.5c0.5,2.2,0.7,5.8,0.7,10.6h-35
		c0.1,4.9,1.3,8.8,3.4,11.8c2.1,3,5.5,4.4,9.9,4.4c4.2,0,7.5-1.4,10-4.2c1.4-1.6,2.4-3.5,3-5.6h8c-0.2,1.8-0.9,3.7-2.1,5.9
		c-1.2,2.2-2.5,3.9-4,5.3c-2.4,2.4-5.5,4-9,4.9c-1.9,0.5-4.1,0.7-6.6,0.7c-6,0-11-2.2-15.1-6.5s-6.2-10.5-6.2-18.3
		c0-7.7,2.1-14,6.2-18.8c4.2-4.8,9.6-7.2,16.3-7.2C664.4,128.5,667.7,129.3,670.9,130.9z M673.8,149.8c-0.3-3.5-1.1-6.3-2.3-8.4
		c-2.2-3.9-5.9-5.8-11-5.8c-3.7,0-6.8,1.3-9.3,4c-2.5,2.7-3.8,6.1-4,10.2H673.8z"/>
</g>
</svg>
