<?xml version="1.0" encoding="utf-8"?>
<!-- Generator: Adobe Illustrator 18.1.1, SVG Export Plug-In . SVG Version: 6.00 Build 0)  -->
<svg version="1.1" id="Calque_1" xmlns="http://www.w3.org/2000/svg" xmlns:xlink="http://www.w3.org/1999/xlink" x="0px" y="0px"
	 viewBox="0 0 800 300" enable-background="new 0 0 800 300" xml:space="preserve">
<g>
	<path fill="#BDBCBC" d="M134.8,111.7h10.1l24,66H159l-6.9-19.8h-25.9l-7.2,19.8h-9.2L134.8,111.7z M149.6,150.6l-10.2-29.2
		l-10.6,29.2H149.6z"/>
	<path fill="#BDBCBC" d="M183.9,129.5v31.9c0,2.5,0.4,4.5,1.1,6c1.4,2.9,4,4.3,7.8,4.3c5.5,0,9.2-2.5,11.2-7.5
		c1.1-2.7,1.6-6.4,1.6-11.1v-23.6h8.1v48.1h-7.6l0.1-7.1c-1,1.8-2.3,3.4-3.8,4.6c-3,2.5-6.7,3.8-11,3.8c-6.7,0-11.3-2.3-13.8-6.9
		c-1.3-2.5-2-5.7-2-9.8v-32.7H183.9z"/>
	<path fill="#BDBCBC" d="M258.7,132.1c3.4,2.6,5.4,7.2,6.1,13.6H257c-0.5-3-1.6-5.4-3.3-7.4c-1.7-2-4.4-2.9-8.2-2.9
		c-5.2,0-8.8,2.5-11.1,7.5c-1.4,3.3-2.2,7.3-2.2,12.1c0,4.8,1,8.9,3.1,12.2c2,3.3,5.2,4.9,9.6,4.9c3.4,0,6-1,8-3.1
		c2-2,3.3-4.8,4.1-8.4h7.9c-0.9,6.4-3.1,11-6.7,14c-3.6,3-8.2,4.4-13.8,4.4c-6.3,0-11.3-2.3-15-6.9c-3.7-4.6-5.6-10.3-5.6-17.2
		c0-8.4,2.1-15,6.2-19.7c4.1-4.7,9.3-7.1,15.7-7.1C250.9,128.1,255.3,129.5,258.7,132.1z"/>
	<path fill="#BDBCBC" d="M281,129.5v31.9c0,2.5,0.4,4.5,1.1,6c1.4,2.9,4,4.3,7.8,4.3c5.5,0,9.2-2.5,11.2-7.5
		c1.1-2.7,1.6-6.4,1.6-11.1v-23.6h8.1v48.1h-7.6l0.1-7.1c-1,1.8-2.3,3.4-3.8,4.6c-3,2.5-6.7,3.8-11,3.8c-6.7,0-11.3-2.3-13.8-6.9
		c-1.3-2.5-2-5.7-2-9.8v-32.7H281z"/>
	<path fill="#BDBCBC" d="M324.1,129.5h7.7v6.8c2.3-2.8,4.7-4.8,7.2-6.1c2.5-1.2,5.4-1.8,8.5-1.8c6.8,0,11.4,2.4,13.8,7.1
		c1.3,2.6,2,6.3,2,11.2v30.9h-8.2v-30.3c0-2.9-0.4-5.3-1.3-7.1c-1.4-3-4-4.5-7.8-4.5c-1.9,0-3.5,0.2-4.7,0.6c-2.2,0.7-4.2,2-5.8,4
		c-1.3,1.6-2.2,3.2-2.6,4.9c-0.4,1.7-0.6,4.1-0.6,7.3v25.2h-8.1V129.5z"/>
	<path fill="#BDBCBC" d="M427.6,131.5c1.5,1,3.1,2.6,4.7,4.6V130h7.5v43.8c0,6.1-0.9,10.9-2.7,14.5c-3.3,6.5-9.7,9.8-18.9,9.8
		c-5.2,0-9.5-1.2-13-3.5c-3.5-2.3-5.5-6-5.9-10.9h8.2c0.4,2.2,1.2,3.8,2.3,5c1.8,1.8,4.7,2.7,8.6,2.7c6.2,0,10.2-2.2,12.1-6.6
		c1.1-2.6,1.7-7.2,1.6-13.8c-1.6,2.5-3.5,4.3-5.8,5.5c-2.3,1.2-5.3,1.8-9,1.8c-5.2,0-9.7-1.8-13.6-5.5c-3.9-3.7-5.8-9.8-5.8-18.4
		c0-8.1,2-14.3,5.9-18.9c3.9-4.5,8.7-6.8,14.2-6.8C421.5,128.7,424.8,129.6,427.6,131.5z M428.6,140.1c-2.4-2.9-5.6-4.3-9.3-4.3
		c-5.7,0-9.5,2.7-11.6,8c-1.1,2.8-1.7,6.6-1.7,11.2c0,5.4,1.1,9.5,3.3,12.4c2.2,2.8,5.1,4.2,8.8,4.2c5.8,0,9.8-2.6,12.2-7.9
		c1.3-3,2-6.4,2-10.4C432.3,147.4,431,143,428.6,140.1z"/>
	<path fill="#BDBCBC" d="M452.2,129.5h7.7v8.3c0.6-1.6,2.2-3.6,4.6-5.9c2.5-2.3,5.3-3.5,8.5-3.5c0.1,0,0.4,0,0.8,0
		c0.4,0,1,0.1,1.8,0.2v8.5c-0.5-0.1-0.9-0.1-1.3-0.2c-0.4,0-0.8,0-1.3,0c-4.1,0-7.2,1.3-9.4,3.9c-2.2,2.6-3.3,5.6-3.3,9.1v27.7h-8.1
		V129.5z"/>
	<path fill="#BDBCBC" d="M517.5,134.3c4.3,4.1,6.4,10.2,6.4,18.2c0,7.8-1.9,14.2-5.6,19.2c-3.7,5.1-9.6,7.6-17.4,7.6
		c-6.6,0-11.8-2.2-15.7-6.7c-3.9-4.5-5.8-10.5-5.8-18c0-8.1,2-14.5,6.1-19.3c4.1-4.8,9.5-7.2,16.4-7.2
		C508.1,128.1,513.3,130.2,517.5,134.3z M512.5,166.3c2-4.1,3-8.6,3-13.5c0-4.5-0.7-8.1-2.1-10.9c-2.2-4.4-6.1-6.6-11.6-6.6
		c-4.9,0-8.4,1.9-10.7,5.7c-2.2,3.8-3.3,8.3-3.3,13.6c0,5.1,1.1,9.4,3.3,12.8c2.2,3.4,5.7,5.1,10.6,5.1
		C506.9,172.4,510.5,170.4,512.5,166.3z"/>
	<path fill="#BDBCBC" d="M541.9,129.5v31.9c0,2.5,0.4,4.5,1.1,6c1.4,2.9,4,4.3,7.8,4.3c5.5,0,9.2-2.5,11.2-7.5
		c1.1-2.7,1.6-6.4,1.6-11.1v-23.6h8.1v48.1h-7.6l0.1-7.1c-1,1.8-2.3,3.4-3.8,4.6c-3,2.5-6.7,3.8-11,3.8c-6.7,0-11.3-2.3-13.8-6.9
		c-1.3-2.5-2-5.7-2-9.8v-32.7H541.9z"/>
	<path fill="#BDBCBC" d="M584.3,129.8h7.9v6.4c1.6-2.2,3.4-3.9,5.3-5.1c2.7-1.8,5.9-2.7,9.6-2.7c5.5,0,10.1,2.1,13.9,6.3
		c3.8,4.2,5.7,10.1,5.7,17.9c0,10.5-2.8,18-8.3,22.5c-3.5,2.8-7.5,4.3-12.2,4.3c-3.6,0-6.7-0.8-9.2-2.4c-1.4-0.9-3.1-2.4-4.8-4.6
		v24.6h-8.1V129.8z M614.7,167.5c2.5-3.2,3.8-7.9,3.8-14.2c0-3.8-0.6-7.1-1.7-9.9c-2.1-5.3-5.9-8-11.5-8c-5.6,0-9.5,2.8-11.5,8.4
		c-1.1,3-1.7,6.8-1.7,11.4c0,3.7,0.6,6.9,1.7,9.5c2.1,5,5.9,7.5,11.5,7.5C609.1,172.2,612.2,170.6,614.7,167.5z"/>
	<path fill="#BDBCBC" d="M665.9,130.9c3.2,1.6,5.6,3.7,7.3,6.2c1.6,2.4,2.7,5.3,3.2,8.5c0.5,2.2,0.7,5.8,0.7,10.6h-35
		c0.1,4.9,1.3,8.8,3.4,11.8c2.1,3,5.5,4.4,9.9,4.4c4.2,0,7.5-1.4,10-4.2c1.4-1.6,2.4-3.5,3-5.6h8c-0.2,1.8-0.9,3.7-2.1,5.9
		c-1.2,2.2-2.5,3.9-4,5.3c-2.4,2.4-5.5,4-9,4.9c-1.9,0.5-4.1,0.7-6.6,0.7c-6,0-11-2.2-15.1-6.5s-6.2-10.5-6.2-18.3
		c0-7.7,2.1-14,6.2-18.8c4.2-4.8,9.6-7.2,16.3-7.2C659.4,128.5,662.7,129.3,665.9,130.9z M668.8,149.8c-0.3-3.5-1.1-6.3-2.3-8.4
		c-2.2-3.9-5.9-5.8-11-5.8c-3.7,0-6.8,1.3-9.3,4c-2.5,2.7-3.8,6.1-4,10.2H668.8z"/>
</g>
</svg>
