<?xml version="1.0" encoding="utf-8"?>
<!-- Generator: Adobe Illustrator 18.1.1, SVG Export Plug-In . SVG Version: 6.00 Build 0)  -->
<svg version="1.1" id="Calque_1" xmlns="http://www.w3.org/2000/svg" xmlns:xlink="http://www.w3.org/1999/xlink" x="0px" y="0px"
	 viewBox="0 0 571 201.1" enable-background="new 0 0 571 201.1" xml:space="preserve">
<g>
	<path fill="#BDBCBC" d="M75.3,46.6h5.9l14.1,38.7h-5.7l-4-11.6H70.3l-4.2,11.6h-5.4L75.3,46.6z M84,69.5l-6-17.1l-6.2,17.1H84z"/>
	<path fill="#BDBCBC" d="M104.2,57.1v18.7c0,1.4,0.2,2.6,0.7,3.5c0.8,1.7,2.4,2.5,4.6,2.5c3.2,0,5.4-1.5,6.6-4.4
		c0.6-1.6,1-3.8,1-6.5V57.1h4.7v28.2h-4.5l0.1-4.2c-0.6,1.1-1.4,2-2.3,2.7c-1.8,1.5-3.9,2.2-6.5,2.2c-4,0-6.6-1.3-8.1-4
		c-0.8-1.4-1.2-3.4-1.2-5.8V57.1H104.2z"/>
	<path fill="#BDBCBC" d="M148.1,58.6c2,1.5,3.2,4.2,3.6,8h-4.6c-0.3-1.7-0.9-3.2-1.9-4.3c-1-1.2-2.6-1.7-4.8-1.7
		c-3,0-5.2,1.5-6.5,4.4c-0.8,1.9-1.3,4.3-1.3,7.1c0,2.8,0.6,5.2,1.8,7.1c1.2,1.9,3.1,2.9,5.6,2.9c2,0,3.5-0.6,4.7-1.8
		c1.2-1.2,1.9-2.8,2.4-4.9h4.6c-0.5,3.7-1.8,6.5-4,8.2c-2.1,1.7-4.8,2.6-8.1,2.6c-3.7,0-6.6-1.3-8.8-4c-2.2-2.7-3.3-6.1-3.3-10.1
		c0-5,1.2-8.8,3.6-11.6c2.4-2.8,5.5-4.1,9.2-4.1C143.5,56.3,146.1,57.1,148.1,58.6z"/>
	<path fill="#BDBCBC" d="M161.2,57.1v18.7c0,1.4,0.2,2.6,0.7,3.5c0.8,1.7,2.4,2.5,4.6,2.5c3.2,0,5.4-1.5,6.6-4.4
		c0.6-1.6,1-3.8,1-6.5V57.1h4.7v28.2h-4.5l0.1-4.2c-0.6,1.1-1.4,2-2.3,2.7c-1.8,1.5-3.9,2.2-6.5,2.2c-4,0-6.6-1.3-8.1-4
		c-0.8-1.4-1.2-3.4-1.2-5.8V57.1H161.2z"/>
	<path fill="#BDBCBC" d="M186.5,57.1h4.5v4c1.3-1.7,2.8-2.8,4.2-3.6c1.5-0.7,3.2-1.1,5-1.1c4,0,6.7,1.4,8.1,4.2
		c0.8,1.5,1.2,3.7,1.2,6.6v18.1h-4.8V67.6c0-1.7-0.3-3.1-0.8-4.2c-0.8-1.8-2.4-2.6-4.6-2.6c-1.1,0-2,0.1-2.8,0.3
		c-1.3,0.4-2.4,1.2-3.4,2.3c-0.8,0.9-1.3,1.9-1.5,2.9c-0.2,1-0.4,2.4-0.4,4.3v14.8h-4.7V57.1z"/>
	<path fill="#BDBCBC" d="M233.9,57.9c1.9,0.9,3.3,2.2,4.3,3.7c0.9,1.4,1.6,3.1,1.9,5c0.3,1.3,0.4,3.4,0.4,6.2H220
		c0.1,2.9,0.8,5.2,2,6.9c1.3,1.7,3.2,2.6,5.8,2.6c2.5,0,4.4-0.8,5.9-2.5c0.8-1,1.4-2.1,1.7-3.3h4.7c-0.1,1-0.5,2.2-1.2,3.5
		c-0.7,1.3-1.5,2.3-2.3,3.1c-1.4,1.4-3.2,2.4-5.3,2.8c-1.1,0.3-2.4,0.4-3.8,0.4c-3.5,0-6.5-1.3-8.9-3.8s-3.6-6.1-3.6-10.7
		c0-4.5,1.2-8.2,3.7-11c2.4-2.8,5.6-4.2,9.6-4.2C230.1,56.5,232.1,57,233.9,57.9z M235.6,69c-0.2-2.1-0.6-3.7-1.3-4.9
		c-1.3-2.3-3.4-3.4-6.5-3.4c-2.2,0-4,0.8-5.4,2.4c-1.5,1.6-2.2,3.6-2.3,6H235.6z"/>
	<path fill="#BDBCBC" d="M279,57.9c1.9,0.9,3.3,2.2,4.3,3.7c0.9,1.4,1.6,3.1,1.9,5c0.3,1.3,0.4,3.4,0.4,6.2H265
		c0.1,2.9,0.8,5.2,2,6.9c1.3,1.7,3.2,2.6,5.8,2.6c2.5,0,4.4-0.8,5.9-2.5c0.8-1,1.4-2.1,1.7-3.3h4.7c-0.1,1-0.5,2.2-1.2,3.5
		c-0.7,1.3-1.5,2.3-2.3,3.1c-1.4,1.4-3.2,2.4-5.3,2.8c-1.1,0.3-2.4,0.4-3.8,0.4c-3.5,0-6.5-1.3-8.9-3.8s-3.6-6.1-3.6-10.7
		c0-4.5,1.2-8.2,3.7-11c2.4-2.8,5.6-4.2,9.6-4.2C275.2,56.5,277.1,57,279,57.9z M280.7,69c-0.2-2.1-0.6-3.7-1.3-4.9
		c-1.3-2.3-3.4-3.4-6.5-3.4c-2.2,0-4,0.8-5.4,2.4c-1.5,1.6-2.2,3.6-2.3,6H280.7z M278.8,45.8l-7,7.6h-3.6l4.8-7.6H278.8z"/>
	<path fill="#BDBCBC" d="M293.9,57.1l7.5,23l7.9-23h5.2l-10.6,28.2h-5.1l-10.4-28.2H293.9z"/>
	<path fill="#BDBCBC" d="M333.7,68.3c1.1-0.1,1.8-0.6,2.2-1.4c0.2-0.4,0.3-1,0.3-1.8c0-1.6-0.6-2.8-1.7-3.5
		c-1.1-0.7-2.8-1.1-4.9-1.1c-2.5,0-4.2,0.7-5.3,2c-0.6,0.7-1,1.8-1.1,3.3h-4.4c0.1-3.5,1.2-5.9,3.4-7.3c2.2-1.4,4.7-2,7.5-2
		c3.3,0,6,0.6,8.1,1.9c2.1,1.3,3.1,3.2,3.1,5.9v16.3c0,0.5,0.1,0.9,0.3,1.2c0.2,0.3,0.6,0.4,1.3,0.4c0.2,0,0.4,0,0.7,0
		s0.5-0.1,0.8-0.1v3.5c-0.7,0.2-1.3,0.3-1.7,0.4c-0.4,0.1-0.9,0.1-1.6,0.1c-1.6,0-2.8-0.6-3.6-1.7c-0.4-0.6-0.7-1.5-0.8-2.6
		c-1,1.3-2.4,2.4-4.2,3.3c-1.8,0.9-3.8,1.4-6,1.4c-2.6,0-4.8-0.8-6.4-2.4c-1.7-1.6-2.5-3.6-2.5-6c0-2.6,0.8-4.6,2.5-6.1
		s3.8-2.3,6.4-2.7L333.7,68.3z M323.7,81.1c1,0.8,2.2,1.2,3.6,1.2c1.7,0,3.3-0.4,4.9-1.2c2.6-1.3,4-3.4,4-6.3V71
		c-0.6,0.4-1.3,0.7-2.2,0.9c-0.9,0.2-1.8,0.4-2.7,0.5l-2.9,0.4c-1.7,0.2-3,0.6-3.9,1.1c-1.5,0.8-2.2,2.1-2.2,3.9
		C322.2,79.2,322.7,80.3,323.7,81.1z"/>
	<path fill="#BDBCBC" d="M348.7,46.6h4.7v38.7h-4.7V46.6z"/>
	<path fill="#BDBCBC" d="M365.3,57.1v18.7c0,1.4,0.2,2.6,0.7,3.5c0.8,1.7,2.4,2.5,4.6,2.5c3.2,0,5.4-1.5,6.6-4.4
		c0.6-1.6,1-3.8,1-6.5V57.1h4.7v28.2h-4.5l0.1-4.2c-0.6,1.1-1.4,2-2.3,2.7c-1.8,1.5-3.9,2.2-6.5,2.2c-4,0-6.6-1.3-8.1-4
		c-0.8-1.4-1.2-3.4-1.2-5.8V57.1H365.3z"/>
	<path fill="#BDBCBC" d="M405.8,68.3c1.1-0.1,1.8-0.6,2.2-1.4c0.2-0.4,0.3-1,0.3-1.8c0-1.6-0.6-2.8-1.7-3.5
		c-1.1-0.7-2.8-1.1-4.9-1.1c-2.5,0-4.2,0.7-5.3,2c-0.6,0.7-1,1.8-1.1,3.3h-4.4c0.1-3.5,1.2-5.9,3.4-7.3s4.7-2,7.5-2
		c3.3,0,6,0.6,8.1,1.9c2.1,1.3,3.1,3.2,3.1,5.9v16.3c0,0.5,0.1,0.9,0.3,1.2c0.2,0.3,0.6,0.4,1.3,0.4c0.2,0,0.4,0,0.7,0
		s0.5-0.1,0.8-0.1v3.5c-0.7,0.2-1.3,0.3-1.7,0.4s-0.9,0.1-1.6,0.1c-1.6,0-2.8-0.6-3.6-1.7c-0.4-0.6-0.7-1.5-0.8-2.6
		c-1,1.3-2.4,2.4-4.2,3.3c-1.8,0.9-3.8,1.4-6,1.4c-2.6,0-4.8-0.8-6.4-2.4c-1.7-1.6-2.5-3.6-2.5-6c0-2.6,0.8-4.6,2.5-6.1
		s3.8-2.3,6.4-2.7L405.8,68.3z M395.8,81.1c1,0.8,2.2,1.2,3.6,1.2c1.7,0,3.3-0.4,4.9-1.2c2.6-1.3,4-3.4,4-6.3V71
		c-0.6,0.4-1.3,0.7-2.2,0.9c-0.9,0.2-1.8,0.4-2.7,0.5l-2.9,0.4c-1.7,0.2-3,0.6-3.9,1.1c-1.5,0.8-2.2,2.1-2.2,3.9
		C394.3,79.2,394.8,80.3,395.8,81.1z"/>
	<path fill="#BDBCBC" d="M421.6,49.2h4.8v7.9h4.5V61h-4.5v18.4c0,1,0.3,1.6,1,2c0.4,0.2,1,0.3,1.8,0.3c0.2,0,0.5,0,0.7,0
		c0.3,0,0.6,0,0.9-0.1v3.8c-0.5,0.2-1.1,0.3-1.7,0.3c-0.6,0.1-1.2,0.1-1.9,0.1c-2.2,0-3.7-0.6-4.5-1.7s-1.2-2.6-1.2-4.4V61h-3.8
		v-3.9h3.8V49.2z"/>
	<path fill="#BDBCBC" d="M435.7,46.6h4.8V52h-4.8V46.6z M435.7,57.3h4.8v28.1h-4.8V57.3z"/>
	<path fill="#BDBCBC" d="M468.1,59.9c2.5,2.4,3.7,6,3.7,10.7c0,4.5-1.1,8.3-3.3,11.3c-2.2,3-5.6,4.5-10.2,4.5
		c-3.9,0-6.9-1.3-9.2-3.9c-2.3-2.6-3.4-6.2-3.4-10.6c0-4.7,1.2-8.5,3.6-11.3c2.4-2.8,5.6-4.2,9.6-4.2
		C462.6,56.3,465.6,57.5,468.1,59.9z M465.2,78.7c1.2-2.4,1.7-5,1.7-7.9c0-2.6-0.4-4.8-1.3-6.4c-1.3-2.6-3.6-3.9-6.8-3.9
		c-2.9,0-5,1.1-6.3,3.3c-1.3,2.2-2,4.9-2,8c0,3,0.7,5.5,2,7.5c1.3,2,3.4,3,6.2,3C461.9,82.3,464,81.1,465.2,78.7z"/>
	<path fill="#BDBCBC" d="M477.7,57.1h4.5v4c1.3-1.7,2.8-2.8,4.2-3.6c1.5-0.7,3.2-1.1,5-1.1c4,0,6.7,1.4,8.1,4.2
		c0.8,1.5,1.2,3.7,1.2,6.6v18.1h-4.8V67.6c0-1.7-0.3-3.1-0.8-4.2c-0.8-1.8-2.4-2.6-4.6-2.6c-1.1,0-2,0.1-2.8,0.3
		c-1.3,0.4-2.4,1.2-3.4,2.3c-0.8,0.9-1.3,1.9-1.5,2.9c-0.2,1-0.4,2.4-0.4,4.3v14.8h-4.7V57.1z"/>
	<path fill="#BDBCBC" d="M217.2,123.4c2,1.5,3.2,4.2,3.6,8h-4.6c-0.3-1.7-0.9-3.2-1.9-4.3c-1-1.2-2.6-1.7-4.8-1.7
		c-3,0-5.2,1.5-6.5,4.4c-0.8,1.9-1.3,4.3-1.3,7.1c0,2.8,0.6,5.2,1.8,7.1c1.2,1.9,3.1,2.9,5.6,2.9c2,0,3.5-0.6,4.7-1.8
		c1.2-1.2,1.9-2.8,2.4-4.9h4.6c-0.5,3.7-1.8,6.5-4,8.2s-4.8,2.6-8.1,2.6c-3.7,0-6.6-1.3-8.8-4c-2.2-2.7-3.3-6.1-3.3-10.1
		c0-5,1.2-8.8,3.6-11.6c2.4-2.8,5.5-4.1,9.2-4.1C212.6,121.1,215.2,121.9,217.2,123.4z"/>
	<path fill="#BDBCBC" d="M225.7,121.9h4.5v4.9c0.4-0.9,1.3-2.1,2.7-3.5c1.4-1.4,3.1-2,5-2c0.1,0,0.2,0,0.4,0c0.2,0,0.6,0.1,1.1,0.1
		v5c-0.3-0.1-0.5-0.1-0.8-0.1c-0.2,0-0.5,0-0.8,0c-2.4,0-4.2,0.8-5.5,2.3c-1.3,1.5-1.9,3.3-1.9,5.3v16.2h-4.7V121.9z"/>
	<path fill="#BDBCBC" d="M264,124.7c2.5,2.4,3.7,6,3.7,10.7c0,4.5-1.1,8.3-3.3,11.3c-2.2,3-5.6,4.5-10.2,4.5c-3.9,0-6.9-1.3-9.2-3.9
		c-2.3-2.6-3.4-6.2-3.4-10.6c0-4.7,1.2-8.5,3.6-11.3c2.4-2.8,5.6-4.2,9.6-4.2C258.4,121.1,261.5,122.3,264,124.7z M261,143.5
		c1.2-2.4,1.7-5,1.7-7.9c0-2.6-0.4-4.8-1.3-6.4c-1.3-2.6-3.6-3.9-6.8-3.9c-2.9,0-5,1.1-6.3,3.3c-1.3,2.2-2,4.9-2,8
		c0,3,0.7,5.5,2,7.5c1.3,2,3.4,3,6.2,3C257.7,147.1,259.9,145.9,261,143.5z"/>
	<path fill="#BDBCBC" d="M273.5,111.4h4.8v5.4h-4.8V111.4z M273.5,122.1h4.8v28.1h-4.8V122.1z"/>
	<path fill="#BDBCBC" d="M288.4,141.3c0.1,1.6,0.5,2.8,1.2,3.6c1.2,1.5,3.3,2.3,6.4,2.3c1.8,0,3.4-0.4,4.7-1.1c1.4-0.8,2-1.9,2-3.5
		c0-1.2-0.5-2.1-1.6-2.8c-0.7-0.4-2.1-0.8-4.1-1.3l-3.8-0.9c-2.4-0.6-4.3-1.3-5.4-2c-2.1-1.3-3.1-3.1-3.1-5.3c0-2.7,1-4.8,2.9-6.5
		s4.6-2.5,7.9-2.5c4.3,0,7.4,1.2,9.3,3.7c1.2,1.6,1.8,3.3,1.7,5.1H302c-0.1-1.1-0.5-2-1.2-2.9c-1.1-1.2-3.1-1.9-5.8-1.9
		c-1.8,0-3.2,0.3-4.2,1c-0.9,0.7-1.4,1.6-1.4,2.7c0,1.2,0.6,2.2,1.9,2.9c0.7,0.4,1.8,0.8,3.2,1.2l3.2,0.8c3.5,0.8,5.8,1.6,7,2.4
		c1.8,1.2,2.8,3.1,2.8,5.7c0,2.5-1,4.7-2.9,6.5c-1.9,1.8-4.9,2.7-8.8,2.7c-4.3,0-7.3-1-9-2.9c-1.8-1.9-2.7-4.3-2.8-7.1H288.4z"/>
	<path fill="#BDBCBC" d="M330,122.7c1.9,0.9,3.3,2.2,4.3,3.7c0.9,1.4,1.6,3.1,1.9,5c0.3,1.3,0.4,3.4,0.4,6.2H316
		c0.1,2.9,0.8,5.2,2,6.9c1.3,1.7,3.2,2.6,5.8,2.6c2.5,0,4.4-0.8,5.9-2.5c0.8-1,1.4-2.1,1.7-3.3h4.7c-0.1,1-0.5,2.2-1.2,3.5
		c-0.7,1.3-1.5,2.3-2.3,3.1c-1.4,1.4-3.2,2.4-5.3,2.8c-1.1,0.3-2.4,0.4-3.8,0.4c-3.5,0-6.5-1.3-8.9-3.8c-2.4-2.6-3.6-6.1-3.6-10.7
		c0-4.5,1.2-8.2,3.7-11c2.4-2.8,5.6-4.2,9.6-4.2C326.2,121.3,328.1,121.8,330,122.7z M331.7,133.8c-0.2-2.1-0.6-3.7-1.3-4.9
		c-1.3-2.3-3.4-3.4-6.5-3.4c-2.2,0-4,0.8-5.4,2.4c-1.5,1.6-2.2,3.6-2.3,6H331.7z M329.8,110.6l-7,7.6h-3.6l4.8-7.6H329.8z"/>
	<path fill="#BDBCBC" d="M360,122.7c1.9,0.9,3.3,2.2,4.3,3.7c0.9,1.4,1.6,3.1,1.9,5c0.3,1.3,0.4,3.4,0.4,6.2H346
		c0.1,2.9,0.8,5.2,2,6.9c1.3,1.7,3.2,2.6,5.8,2.6c2.5,0,4.4-0.8,5.9-2.5c0.8-1,1.4-2.1,1.7-3.3h4.7c-0.1,1-0.5,2.2-1.2,3.5
		c-0.7,1.3-1.5,2.3-2.3,3.1c-1.4,1.4-3.2,2.4-5.3,2.8c-1.1,0.3-2.4,0.4-3.8,0.4c-3.5,0-6.5-1.3-8.9-3.8c-2.4-2.6-3.6-6.1-3.6-10.7
		c0-4.5,1.2-8.2,3.7-11c2.4-2.8,5.6-4.2,9.6-4.2C356.2,121.3,358.1,121.8,360,122.7z M361.7,133.8c-0.2-2.1-0.6-3.7-1.3-4.9
		c-1.3-2.3-3.4-3.4-6.5-3.4c-2.2,0-4,0.8-5.4,2.4c-1.5,1.6-2.2,3.6-2.3,6H361.7z"/>
</g>
</svg>
