<?xml version="1.0" encoding="utf-8"?>
<!-- Generator: Adobe Illustrator 18.1.1, SVG Export Plug-In . SVG Version: 6.00 Build 0)  -->
<svg version="1.1" id="Calque_1" xmlns="http://www.w3.org/2000/svg" xmlns:xlink="http://www.w3.org/1999/xlink" x="0px" y="0px"
	 viewBox="67 154 673 127" enable-background="new 67 154 673 127" xml:space="preserve">
<g>
	<path fill="#BDBCBC" d="M111.5,187.5h8.3l19.8,54.2h-8l-5.6-16.3h-21.4l-5.9,16.3H91L111.5,187.5z M123.7,219.6l-8.4-24l-8.7,24
		H123.7z"/>
	<path fill="#BDBCBC" d="M152,202.2v26.2c0,2,0.3,3.6,1,4.9c1.1,2.4,3.4,3.5,6.4,3.5c4.5,0,7.6-2.1,9.2-6.2c0.8-2.2,1.4-5.3,1.4-9.1
		v-19.3h6.6v39.5h-6.3l0.1-5.9c-0.8,1.5-2,2.8-3.2,3.8c-2.5,2.1-5.5,3.1-9.1,3.1c-5.6,0-9.2-1.8-11.3-5.6c-1.1-2-1.7-4.8-1.7-8.1
		v-26.8L152,202.2L152,202.2z"/>
	<path fill="#BDBCBC" d="M213.5,204.3c2.8,2.1,4.5,5.9,5,11.2h-6.4c-0.4-2.4-1.3-4.5-2.7-6c-1.4-1.7-3.6-2.4-6.7-2.4
		c-4.2,0-7.3,2.1-9.1,6.2c-1.1,2.7-1.8,6-1.8,9.9s0.8,7.3,2.5,9.9c1.7,2.7,4.3,4.1,7.8,4.1c2.8,0,4.9-0.8,6.6-2.5s2.7-3.9,3.4-6.9
		h6.4c-0.7,5.2-2.5,9.1-5.6,11.5c-2.9,2.4-6.7,3.6-11.3,3.6c-5.2,0-9.2-1.8-12.3-5.6s-4.6-8.5-4.6-14.2c0-7,1.7-12.3,5-16.3
		c3.4-3.9,7.7-5.7,12.9-5.7C207.1,201.1,210.7,202.2,213.5,204.3z"/>
	<path fill="#BDBCBC" d="M231.8,202.2v26.2c0,2,0.3,3.6,1,4.9c1.1,2.4,3.4,3.5,6.4,3.5c4.5,0,7.6-2.1,9.2-6.2
		c0.8-2.2,1.4-5.3,1.4-9.1v-19.3h6.6v39.5h-6.3l0.1-5.9c-0.8,1.5-2,2.8-3.2,3.8c-2.5,2.1-5.5,3.1-9.1,3.1c-5.6,0-9.2-1.8-11.3-5.6
		c-1.1-2-1.7-4.8-1.7-8.1v-26.8L231.8,202.2L231.8,202.2z"/>
	<path fill="#BDBCBC" d="M267.3,202.2h6.3v5.6c1.8-2.4,3.9-3.9,5.9-5c2.1-1,4.5-1.5,7-1.5c5.6,0,9.4,2,11.3,5.9
		c1.1,2.1,1.7,5.2,1.7,9.2v25.4h-6.7V217c0-2.4-0.4-4.3-1.1-5.9c-1.1-2.5-3.4-3.6-6.4-3.6c-1.5,0-2.8,0.1-3.9,0.4
		c-1.8,0.6-3.4,1.7-4.8,3.2c-1.1,1.3-1.8,2.7-2.1,4.1s-0.6,3.4-0.6,6v20.7h-6.6L267.3,202.2L267.3,202.2z"/>
	<path fill="#BDBCBC" d="M333.7,203.3c2.7,1.3,4.6,3.1,6,5.2c1.3,2,2.2,4.3,2.7,7c0.4,1.8,0.6,4.8,0.6,8.7h-28.7
		c0.1,4.1,1.1,7.3,2.8,9.7c1.8,2.4,4.5,3.6,8.1,3.6c3.5,0,6.2-1.1,8.3-3.5c1.1-1.4,2-2.9,2.4-4.6h6.6c-0.1,1.4-0.7,3.1-1.7,4.9
		c-1,1.8-2.1,3.2-3.2,4.3c-2,2-4.5,3.4-7.4,3.9c-1.5,0.4-3.4,0.6-5.3,0.6c-4.9,0-9.1-1.8-12.5-5.3s-5-8.5-5-15
		c0-6.3,1.7-11.5,5.2-15.4c3.4-3.9,7.8-5.9,13.5-5.9C328.4,201.4,331.2,202.1,333.7,203.3z M336.1,218.9c-0.3-2.9-0.8-5.2-1.8-6.9
		c-1.8-3.2-4.8-4.8-9.1-4.8c-3.1,0-5.6,1.1-7.6,3.4c-2.1,2.2-3.1,5-3.2,8.4L336.1,218.9L336.1,218.9z"/>
	<path fill="#BDBCBC" d="M396.9,203.3c2.7,1.3,4.6,3.1,6,5.2c1.3,2,2.2,4.3,2.7,7c0.4,1.8,0.6,4.8,0.6,8.7h-28.9
		c0.1,4.1,1.1,7.3,2.8,9.7c1.8,2.4,4.5,3.6,8.1,3.6c3.5,0,6.2-1.1,8.3-3.5c1.1-1.4,2-2.9,2.4-4.6h6.6c-0.1,1.4-0.7,3.1-1.7,4.9
		c-1,1.8-2.1,3.2-3.2,4.3c-2,2-4.5,3.4-7.4,3.9c-1.5,0.4-3.4,0.6-5.3,0.6c-4.9,0-9.1-1.8-12.5-5.3s-5-8.5-5-15
		c0-6.3,1.7-11.5,5.2-15.4c3.4-3.9,7.8-5.9,13.5-5.9C391.6,201.4,394.2,202.1,396.9,203.3z M399.3,218.9c-0.3-2.9-0.8-5.2-1.8-6.9
		c-1.8-3.2-4.8-4.8-9.1-4.8c-3.1,0-5.6,1.1-7.6,3.4c-2.1,2.2-3.1,5-3.2,8.4L399.3,218.9L399.3,218.9z M396.6,186.4l-9.8,10.6h-5
		l6.7-10.6H396.6z"/>
	<path fill="#BDBCBC" d="M417.8,202.2l10.5,32.2l11.1-32.2h7.3l-14.9,39.5h-7.1l-14.6-39.5C410.1,202.2,417.8,202.2,417.8,202.2z"/>
	<path fill="#BDBCBC" d="M473.5,217.9c1.5-0.1,2.5-0.8,3.1-2c0.3-0.6,0.4-1.4,0.4-2.5c0-2.2-0.8-3.9-2.4-4.9c-1.5-1-3.9-1.5-6.9-1.5
		c-3.5,0-5.9,1-7.4,2.8c-0.8,1-1.4,2.5-1.5,4.6h-6.2c0.1-4.9,1.7-8.3,4.8-10.2c3.1-2,6.6-2.8,10.5-2.8c4.6,0,8.4,0.8,11.3,2.7
		c2.9,1.8,4.3,4.5,4.3,8.3v22.7c0,0.7,0.1,1.3,0.4,1.7s0.8,0.6,1.8,0.6c0.3,0,0.6,0,1,0s0.7-0.1,1.1-0.1v4.9c-1,0.3-1.8,0.4-2.4,0.6
		c-0.6,0.1-1.3,0.1-2.2,0.1c-2.2,0-3.9-0.8-5-2.4c-0.6-0.8-1-2.1-1.1-3.6c-1.4,1.8-3.4,3.4-5.9,4.6c-2.5,1.3-5.3,2-8.4,2
		c-3.6,0-6.7-1.1-9-3.4c-2.4-2.2-3.5-5-3.5-8.4c0-3.6,1.1-6.4,3.5-8.5s5.3-3.2,9-3.8L473.5,217.9z M459.5,235.8
		c1.4,1.1,3.1,1.7,5,1.7c2.4,0,4.6-0.6,6.9-1.7c3.6-1.8,5.6-4.8,5.6-8.8v-5.3c-0.8,0.6-1.8,1-3.1,1.3c-1.3,0.3-2.5,0.6-3.8,0.7
		l-4.1,0.6c-2.4,0.3-4.2,0.8-5.5,1.5c-2.1,1.1-3.1,2.9-3.1,5.5C457.4,233.2,458.1,234.7,459.5,235.8z"/>
	<path fill="#BDBCBC" d="M494.5,187.5h6.6v54.2h-6.6V187.5z"/>
	<path fill="#BDBCBC" d="M517.8,202.2v26.2c0,2,0.3,3.6,1,4.9c1.1,2.4,3.4,3.5,6.4,3.5c4.5,0,7.6-2.1,9.2-6.2
		c0.8-2.2,1.4-5.3,1.4-9.1v-19.3h6.6v39.5h-6.3l0.1-5.9c-0.8,1.5-2,2.8-3.2,3.8c-2.5,2.1-5.5,3.1-9.1,3.1c-5.6,0-9.2-1.8-11.3-5.6
		c-1.1-2-1.7-4.8-1.7-8.1v-26.8L517.8,202.2L517.8,202.2z"/>
	<path fill="#BDBCBC" d="M574.5,217.9c1.5-0.1,2.5-0.8,3.1-2c0.3-0.6,0.4-1.4,0.4-2.5c0-2.2-0.8-3.9-2.4-4.9c-1.5-1-3.9-1.5-6.9-1.5
		c-3.5,0-5.9,1-7.4,2.8c-0.8,1-1.4,2.5-1.5,4.6h-6.2c0.1-4.9,1.7-8.3,4.8-10.2c3.1-2,6.6-2.8,10.5-2.8c4.6,0,8.4,0.8,11.3,2.7
		c2.9,1.8,4.3,4.5,4.3,8.3v22.7c0,0.7,0.1,1.3,0.4,1.7c0.3,0.4,0.8,0.6,1.8,0.6c0.3,0,0.6,0,1,0s0.7-0.1,1.1-0.1v4.9
		c-1,0.3-1.8,0.4-2.4,0.6c-0.6,0.1-1.3,0.1-2.2,0.1c-2.2,0-3.9-0.8-5-2.4c-0.6-0.8-1-2.1-1.1-3.6c-1.4,1.8-3.4,3.4-5.9,4.6
		c-2.5,1.3-5.3,2-8.4,2c-3.6,0-6.7-1.1-9-3.4c-2.4-2.2-3.5-5-3.5-8.4c0-3.6,1.1-6.4,3.5-8.5s5.3-3.2,9-3.8L574.5,217.9z
		 M560.5,235.8c1.4,1.1,3.1,1.7,5,1.7c2.4,0,4.6-0.6,6.9-1.7c3.6-1.8,5.6-4.8,5.6-8.8v-5.3c-0.8,0.6-1.8,1-3.1,1.3s-2.5,0.6-3.8,0.7
		l-4.1,0.6c-2.4,0.3-4.2,0.8-5.5,1.5c-2.1,1.1-3.1,2.9-3.1,5.5C558.4,233.2,559.1,234.7,560.5,235.8z"/>
	<path fill="#BDBCBC" d="M596.7,191.2h6.7v11.1h6.3v5.5h-6.3v25.8c0,1.4,0.4,2.2,1.4,2.8c0.6,0.3,1.4,0.4,2.5,0.4c0.3,0,0.7,0,1,0
		c0.4,0,0.8,0,1.3-0.1v5.3c-0.7,0.3-1.5,0.4-2.4,0.4c-0.8,0.1-1.7,0.1-2.7,0.1c-3.1,0-5.2-0.8-6.3-2.4c-1.1-1.5-1.7-3.6-1.7-6.2
		v-26.2h-5.3v-5.5h5.3v-11.1L596.7,191.2L596.7,191.2z"/>
	<path fill="#BDBCBC" d="M616.4,187.5h6.7v7.6h-6.7V187.5z M616.4,202.5h6.7v39.4h-6.7V202.5z"/>
	<path fill="#BDBCBC" d="M661.8,206.1c3.5,3.4,5.2,8.4,5.2,15c0,6.3-1.5,11.6-4.6,15.8s-7.8,6.3-14.3,6.3c-5.5,0-9.7-1.8-12.9-5.5
		c-3.2-3.6-4.8-8.7-4.8-14.9c0-6.6,1.7-11.9,5-15.8c3.4-3.9,7.8-5.9,13.5-5.9C654.1,201.1,658.3,202.8,661.8,206.1z M657.8,232.5
		c1.7-3.4,2.4-7,2.4-11.1c0-3.6-0.6-6.7-1.8-9c-1.8-3.6-5-5.5-9.5-5.5c-4.1,0-7,1.5-8.8,4.6s-2.8,6.9-2.8,11.2c0,4.2,1,7.7,2.8,10.5
		s4.8,4.2,8.7,4.2C653.1,237.5,656.1,235.8,657.8,232.5z"/>
	<path fill="#BDBCBC" d="M675.3,202.2h6.3v5.6c1.8-2.4,3.9-3.9,5.9-5c2.1-1,4.5-1.5,7-1.5c5.6,0,9.4,2,11.3,5.9
		c1.1,2.1,1.7,5.2,1.7,9.2v25.4h-6.7V217c0-2.4-0.4-4.3-1.1-5.9c-1.1-2.5-3.4-3.6-6.4-3.6c-1.5,0-2.8,0.1-3.9,0.4
		c-1.8,0.6-3.4,1.7-4.8,3.2c-1.1,1.3-1.8,2.7-2.1,4.1s-0.6,3.4-0.6,6v20.7h-6.6L675.3,202.2L675.3,202.2z"/>
</g>
</svg>
