<?xml version="1.0" encoding="utf-8"?>
<!-- Generator: Adobe Illustrator 18.1.1, SVG Export Plug-In . SVG Version: 6.00 Build 0)  -->
<svg version="1.1" id="Calque_1" xmlns="http://www.w3.org/2000/svg" xmlns:xlink="http://www.w3.org/1999/xlink" x="0px" y="0px"
	 viewBox="0 0 800 300" enable-background="new 0 0 800 300" xml:space="preserve">
<g>
	<path fill="#BDBCBC" d="M159.6,103.4c0.2,3.7,1.1,6.8,2.6,9.1c2.9,4.4,7.9,6.6,15.1,6.6c3.2,0,6.2-0.5,8.8-1.4
		c5.1-1.9,7.7-5.2,7.7-10c0-3.6-1.1-6.2-3.3-7.7c-2.2-1.5-5.7-2.8-10.4-3.9l-8.7-2c-5.7-1.3-9.7-2.8-12-4.4
		c-4.1-2.8-6.1-6.9-6.1-12.4c0-5.9,2-10.8,6-14.6c4-3.8,9.6-5.7,17-5.7c6.7,0,12.5,1.7,17.2,5c4.7,3.3,7.1,8.7,7.1,16h-8.4
		c-0.4-3.5-1.3-6.2-2.8-8.1c-2.6-3.4-7-5.2-13.3-5.2c-5.1,0-8.7,1.1-10.9,3.3c-2.2,2.2-3.3,4.8-3.3,7.7c0,3.2,1.3,5.6,3.9,7.1
		c1.7,1,5.6,2.2,11.6,3.6l9,2.1c4.3,1,7.7,2.4,10,4.2c4.1,3.1,6.1,7.6,6.1,13.4c0,7.3-2.6,12.5-7.8,15.7s-11.2,4.7-18.1,4.7
		c-8,0-14.3-2.1-18.8-6.3c-4.5-4.2-6.7-9.8-6.7-16.9H159.6z"/>
	<path fill="#BDBCBC" d="M243.8,77.9c3.2,1.6,5.6,3.7,7.3,6.2c1.6,2.4,2.7,5.3,3.2,8.5c0.5,2.2,0.7,5.8,0.7,10.6h-35
		c0.1,4.9,1.3,8.8,3.4,11.8c2.1,3,5.5,4.4,9.9,4.4c4.2,0,7.5-1.4,10-4.2c1.4-1.6,2.4-3.5,3-5.6h8c-0.2,1.8-0.9,3.7-2.1,5.9
		c-1.2,2.2-2.5,3.9-4,5.3c-2.4,2.4-5.5,4-9.1,4.9c-1.9,0.5-4.1,0.7-6.6,0.7c-6,0-11-2.2-15.1-6.5c-4.1-4.4-6.2-10.5-6.2-18.3
		c0-7.7,2.1-14,6.3-18.8c4.2-4.8,9.6-7.2,16.3-7.2C237.3,75.5,240.6,76.3,243.8,77.9z M246.7,96.8c-0.3-3.5-1.1-6.3-2.3-8.4
		c-2.2-3.9-5.9-5.8-11-5.8c-3.7,0-6.8,1.3-9.3,4c-2.5,2.7-3.8,6.1-4,10.2H246.7z M243.5,57.2l-12,13h-6.2l8.2-13H243.5z"/>
	<path fill="#BDBCBC" d="M265.5,58.7h8.1v66h-8.1V58.7z"/>
	<path fill="#BDBCBC" d="M315.4,77.9c3.2,1.6,5.6,3.7,7.3,6.2c1.6,2.4,2.7,5.3,3.2,8.5c0.5,2.2,0.7,5.8,0.7,10.6h-35
		c0.1,4.9,1.3,8.8,3.4,11.8c2.1,3,5.5,4.4,9.9,4.4c4.2,0,7.5-1.4,10-4.2c1.4-1.6,2.4-3.5,3-5.6h8c-0.2,1.8-0.9,3.7-2.1,5.9
		c-1.2,2.2-2.5,3.9-4,5.3c-2.4,2.4-5.5,4-9.1,4.9c-1.9,0.5-4.1,0.7-6.6,0.7c-6,0-11-2.2-15.1-6.5c-4.1-4.4-6.2-10.5-6.2-18.3
		c0-7.7,2.1-14,6.3-18.8c4.2-4.8,9.6-7.2,16.3-7.2C308.9,75.5,312.2,76.3,315.4,77.9z M318.3,96.8c-0.3-3.5-1.1-6.3-2.3-8.4
		c-2.2-3.9-5.9-5.8-11-5.8c-3.7,0-6.8,1.3-9.3,4c-2.5,2.7-3.8,6.1-4,10.2H318.3z"/>
	<path fill="#BDBCBC" d="M368.6,79.1c3.4,2.6,5.4,7.2,6.1,13.6h-7.9c-0.5-3-1.6-5.4-3.3-7.4c-1.7-2-4.4-2.9-8.2-2.9
		c-5.2,0-8.8,2.5-11.1,7.5c-1.4,3.3-2.2,7.3-2.2,12.1c0,4.8,1,8.9,3.1,12.2c2,3.3,5.2,4.9,9.6,4.9c3.4,0,6-1,8-3.1
		c2-2,3.3-4.8,4.1-8.4h7.9c-0.9,6.4-3.1,11-6.7,14c-3.6,3-8.2,4.4-13.8,4.4c-6.3,0-11.3-2.3-15-6.9c-3.7-4.6-5.6-10.3-5.6-17.2
		c0-8.4,2.1-15,6.2-19.7c4.1-4.7,9.3-7.1,15.7-7.1C360.8,75.1,365.2,76.5,368.6,79.1z"/>
	<path fill="#BDBCBC" d="M384.5,63.1h8.2v13.4h7.7v6.6h-7.7v31.4c0,1.7,0.6,2.8,1.7,3.4c0.6,0.3,1.7,0.5,3.1,0.5c0.4,0,0.8,0,1.3,0
		c0.4,0,1-0.1,1.6-0.2v6.4c-0.9,0.3-1.9,0.5-2.9,0.6c-1,0.1-2.1,0.2-3.3,0.2c-3.8,0-6.3-1-7.7-2.9s-2-4.4-2-7.5V83.1H378v-6.6h6.5
		V63.1z"/>
	<path fill="#BDBCBC" d="M408.4,58.7h8.2v9.2h-8.2V58.7z M408.4,76.8h8.2v47.9h-8.2V76.8z"/>
	<path fill="#BDBCBC" d="M463.7,81.3c4.3,4.1,6.4,10.2,6.4,18.2c0,7.8-1.9,14.2-5.6,19.2c-3.7,5.1-9.6,7.6-17.4,7.6
		c-6.6,0-11.8-2.2-15.7-6.7c-3.9-4.5-5.8-10.5-5.8-18c0-8.1,2-14.5,6.1-19.3c4.1-4.8,9.5-7.2,16.4-7.2
		C454.2,75.1,459.5,77.2,463.7,81.3z M458.7,113.3c2-4.1,3-8.6,3-13.5c0-4.5-0.7-8.1-2.1-10.9c-2.3-4.4-6.1-6.6-11.6-6.6
		c-4.9,0-8.4,1.9-10.7,5.7s-3.3,8.3-3.3,13.6c0,5.1,1.1,9.4,3.3,12.8s5.7,5.1,10.6,5.1C453.1,119.4,456.7,117.4,458.7,113.3z"/>
	<path fill="#BDBCBC" d="M480,76.5h7.7v6.8c2.3-2.8,4.7-4.8,7.2-6.1c2.5-1.2,5.4-1.8,8.5-1.8c6.8,0,11.4,2.4,13.8,7.1
		c1.3,2.6,2,6.3,2,11.2v30.9H511V94.3c0-2.9-0.4-5.3-1.3-7.1c-1.4-3-4-4.5-7.8-4.5c-1.9,0-3.5,0.2-4.7,0.6c-2.2,0.7-4.2,2-5.8,4
		c-1.3,1.6-2.2,3.2-2.6,4.9c-0.4,1.7-0.6,4.1-0.6,7.3v25.2H480V76.5z"/>
	<path fill="#BDBCBC" d="M531.2,76.5h7.7v6.8c2.3-2.8,4.7-4.8,7.2-6.1c2.5-1.2,5.4-1.8,8.5-1.8c6.8,0,11.4,2.4,13.8,7.1
		c1.3,2.6,2,6.3,2,11.2v30.9h-8.2V94.3c0-2.9-0.4-5.3-1.3-7.1c-1.4-3-4-4.5-7.8-4.5c-1.9,0-3.5,0.2-4.7,0.6c-2.2,0.7-4.2,2-5.8,4
		c-1.3,1.6-2.2,3.2-2.6,4.9c-0.4,1.7-0.6,4.1-0.6,7.3v25.2h-8.1V76.5z"/>
	<path fill="#BDBCBC" d="M612.1,77.9c3.2,1.6,5.6,3.7,7.3,6.2c1.6,2.4,2.7,5.3,3.2,8.5c0.5,2.2,0.7,5.8,0.7,10.6h-35
		c0.1,4.9,1.3,8.8,3.4,11.8c2.1,3,5.5,4.4,9.9,4.4c4.2,0,7.5-1.4,10-4.2c1.4-1.6,2.4-3.5,3-5.6h8c-0.2,1.8-0.9,3.7-2.1,5.9
		c-1.2,2.2-2.5,3.9-4,5.3c-2.4,2.4-5.5,4-9.1,4.9c-1.9,0.5-4.1,0.7-6.6,0.7c-6,0-11-2.2-15.1-6.5c-4.1-4.4-6.2-10.5-6.2-18.3
		c0-7.7,2.1-14,6.3-18.8c4.2-4.8,9.6-7.2,16.3-7.2C605.6,75.5,608.9,76.3,612.1,77.9z M615,96.8c-0.3-3.5-1.1-6.3-2.3-8.4
		c-2.2-3.9-5.9-5.8-11-5.8c-3.7,0-6.8,1.3-9.3,4c-2.5,2.7-3.8,6.1-4,10.2H615z"/>
	<path fill="#BDBCBC" d="M633.7,76.5h7.7v8.3c0.6-1.6,2.2-3.6,4.6-5.9c2.5-2.3,5.3-3.5,8.5-3.5c0.1,0,0.4,0,0.8,0
		c0.4,0,1,0.1,1.8,0.2v8.5c-0.5-0.1-0.9-0.1-1.3-0.2c-0.4,0-0.8,0-1.3,0c-4.1,0-7.2,1.3-9.4,3.9c-2.2,2.6-3.3,5.6-3.3,9.1v27.7h-8.1
		V76.5z"/>
	<path fill="#BDBCBC" d="M76.4,186.9v31.9c0,2.5,0.4,4.5,1.1,6c1.4,2.9,4,4.3,7.8,4.3c5.5,0,9.2-2.5,11.2-7.5
		c1.1-2.7,1.6-6.4,1.6-11.1v-23.6h8.1V235h-7.6l0.1-7.1c-1,1.8-2.3,3.4-3.8,4.6c-3,2.5-6.7,3.8-11,3.8c-6.7,0-11.3-2.3-13.8-6.9
		c-1.3-2.5-2-5.7-2-9.8v-32.7H76.4z"/>
	<path fill="#BDBCBC" d="M119.5,186.9h7.7v6.8c2.3-2.8,4.7-4.8,7.2-6.1c2.5-1.2,5.4-1.8,8.5-1.8c6.8,0,11.4,2.4,13.8,7.1
		c1.3,2.6,2,6.3,2,11.2V235h-8.2v-30.3c0-2.9-0.4-5.3-1.3-7.1c-1.4-3-4-4.5-7.8-4.5c-1.9,0-3.5,0.2-4.7,0.6c-2.2,0.7-4.2,2-5.8,4
		c-1.3,1.6-2.2,3.2-2.6,4.9s-0.6,4.1-0.6,7.3V235h-8.1V186.9z"/>
	<path fill="#BDBCBC" d="M200.4,188.3c3.2,1.6,5.6,3.7,7.3,6.2c1.6,2.4,2.7,5.3,3.2,8.5c0.5,2.2,0.7,5.8,0.7,10.6h-35
		c0.1,4.9,1.3,8.8,3.4,11.8c2.1,3,5.5,4.4,9.9,4.4c4.2,0,7.5-1.4,10-4.2c1.4-1.6,2.4-3.5,3-5.6h8c-0.2,1.8-0.9,3.7-2.1,5.9
		c-1.2,2.2-2.5,3.9-4,5.3c-2.4,2.4-5.5,4-9.1,4.9c-1.9,0.5-4.1,0.7-6.6,0.7c-6,0-11-2.2-15.1-6.5c-4.1-4.4-6.2-10.5-6.2-18.3
		c0-7.7,2.1-14,6.3-18.8c4.2-4.8,9.6-7.2,16.3-7.2C193.9,185.9,197.2,186.7,200.4,188.3z M203.2,207.2c-0.3-3.5-1.1-6.3-2.3-8.4
		c-2.2-3.9-5.9-5.8-11-5.8c-3.7,0-6.8,1.3-9.3,4s-3.8,6.1-4,10.2H203.2z"/>
	<path fill="#BDBCBC" d="M279.1,189.5c3.4,2.6,5.4,7.2,6.1,13.6h-7.9c-0.5-3-1.6-5.4-3.3-7.4s-4.4-2.9-8.2-2.9
		c-5.2,0-8.8,2.5-11.1,7.5c-1.4,3.3-2.2,7.3-2.2,12.1c0,4.8,1,8.9,3.1,12.2c2,3.3,5.2,4.9,9.6,4.9c3.4,0,6-1,8-3.1
		c2-2,3.3-4.8,4.1-8.4h7.9c-0.9,6.4-3.1,11-6.7,14s-8.2,4.4-13.8,4.4c-6.3,0-11.3-2.3-15-6.9c-3.7-4.6-5.6-10.3-5.6-17.2
		c0-8.4,2.1-15,6.2-19.7c4.1-4.7,9.3-7.1,15.7-7.1C271.3,185.5,275.7,186.9,279.1,189.5z"/>
	<path fill="#BDBCBC" d="M328.2,191.7c4.3,4.1,6.4,10.2,6.4,18.2c0,7.8-1.9,14.2-5.6,19.2c-3.7,5.1-9.6,7.6-17.4,7.6
		c-6.6,0-11.8-2.2-15.7-6.7s-5.8-10.5-5.8-18c0-8.1,2-14.5,6.1-19.3s9.5-7.2,16.4-7.2C318.8,185.5,324,187.6,328.2,191.7z
		 M323.2,223.7c2-4.1,3-8.6,3-13.5c0-4.5-0.7-8.1-2.1-10.9c-2.3-4.4-6.1-6.6-11.6-6.6c-4.9,0-8.4,1.9-10.7,5.7
		c-2.2,3.8-3.3,8.3-3.3,13.6c0,5.1,1.1,9.4,3.3,12.8c2.2,3.4,5.7,5.1,10.6,5.1C317.6,229.8,321.2,227.8,323.2,223.7z"/>
	<path fill="#BDBCBC" d="M344.5,186.9h8v6.8c1.9-2.4,3.7-4.1,5.2-5.2c2.7-1.8,5.7-2.7,9.1-2.7c3.8,0,6.9,0.9,9.3,2.8
		c1.3,1.1,2.5,2.7,3.6,4.8c1.8-2.6,3.9-4.5,6.3-5.7s5.2-1.9,8.2-1.9c6.5,0,10.9,2.3,13.2,7c1.3,2.5,1.9,5.9,1.9,10.2v32h-8.4v-33.4
		c0-3.2-0.8-5.4-2.4-6.6c-1.6-1.2-3.6-1.8-5.9-1.8c-3.2,0-5.9,1.1-8.2,3.2c-2.3,2.1-3.4,5.7-3.4,10.6v28h-8.2v-31.4
		c0-3.3-0.4-5.6-1.2-7.1c-1.2-2.2-3.5-3.4-6.9-3.4c-3.1,0-5.8,1.2-8.3,3.5c-2.5,2.4-3.8,6.6-3.8,12.8V235h-8.1V186.9z"/>
	<path fill="#BDBCBC" d="M420.5,187.2h7.9v6.4c1.6-2.2,3.4-3.9,5.3-5.1c2.7-1.8,5.9-2.7,9.6-2.7c5.5,0,10.1,2.1,13.9,6.3
		c3.8,4.2,5.7,10.1,5.7,17.9c0,10.5-2.8,18-8.3,22.5c-3.5,2.8-7.5,4.3-12.2,4.3c-3.6,0-6.7-0.8-9.2-2.4c-1.4-0.9-3.1-2.4-4.8-4.6
		v24.6h-8.1V187.2z M450.9,224.9c2.5-3.2,3.8-7.9,3.8-14.2c0-3.8-0.6-7.1-1.7-9.9c-2.1-5.3-6-8-11.5-8c-5.6,0-9.5,2.8-11.5,8.4
		c-1.1,3-1.7,6.8-1.7,11.4c0,3.7,0.6,6.9,1.7,9.5c2.1,5,5.9,7.5,11.5,7.5C445.3,229.6,448.4,228,450.9,224.9z"/>
	<path fill="#BDBCBC" d="M502,188.3c3.2,1.6,5.6,3.7,7.3,6.2c1.6,2.4,2.7,5.3,3.2,8.5c0.5,2.2,0.7,5.8,0.7,10.6h-35
		c0.1,4.9,1.3,8.8,3.4,11.8c2.1,3,5.5,4.4,9.9,4.4c4.2,0,7.5-1.4,10-4.2c1.4-1.6,2.4-3.5,3-5.6h8c-0.2,1.8-0.9,3.7-2.1,5.9
		c-1.2,2.2-2.5,3.9-4,5.3c-2.4,2.4-5.5,4-9.1,4.9c-1.9,0.5-4.1,0.7-6.6,0.7c-6,0-11-2.2-15.1-6.5c-4.1-4.4-6.2-10.5-6.2-18.3
		c0-7.7,2.1-14,6.3-18.8c4.2-4.8,9.6-7.2,16.3-7.2C495.6,185.9,498.9,186.7,502,188.3z M504.9,207.2c-0.3-3.5-1.1-6.3-2.3-8.4
		c-2.2-3.9-5.9-5.8-11-5.8c-3.7,0-6.8,1.3-9.3,4c-2.5,2.7-3.8,6.1-4,10.2H504.9z M501.7,167.6l-12,13h-6.2l8.2-13H501.7z"/>
	<path fill="#BDBCBC" d="M525.1,173.5h8.2v13.4h7.7v6.6h-7.7v31.4c0,1.7,0.6,2.8,1.7,3.4c0.6,0.3,1.7,0.5,3.1,0.5c0.4,0,0.8,0,1.3,0
		s1-0.1,1.6-0.2v6.4c-0.9,0.3-1.9,0.5-2.9,0.6c-1,0.1-2.1,0.2-3.3,0.2c-3.8,0-6.3-1-7.7-2.9s-2-4.4-2-7.5v-31.8h-6.5v-6.6h6.5V173.5
		z"/>
	<path fill="#BDBCBC" d="M578.8,188.3c3.2,1.6,5.6,3.7,7.3,6.2c1.6,2.4,2.7,5.3,3.2,8.5c0.5,2.2,0.7,5.8,0.7,10.6h-35
		c0.1,4.9,1.3,8.8,3.4,11.8c2.1,3,5.5,4.4,9.9,4.4c4.2,0,7.5-1.4,10-4.2c1.4-1.6,2.4-3.5,3-5.6h8c-0.2,1.8-0.9,3.7-2.1,5.9
		c-1.2,2.2-2.5,3.9-4,5.3c-2.4,2.4-5.5,4-9.1,4.9c-1.9,0.5-4.1,0.7-6.6,0.7c-6,0-11-2.2-15.1-6.5c-4.1-4.4-6.2-10.5-6.2-18.3
		c0-7.7,2.1-14,6.3-18.8c4.2-4.8,9.6-7.2,16.3-7.2C572.3,185.9,575.6,186.7,578.8,188.3z M581.7,207.2c-0.3-3.5-1.1-6.3-2.3-8.4
		c-2.2-3.9-5.9-5.8-11-5.8c-3.7,0-6.8,1.3-9.3,4c-2.5,2.7-3.8,6.1-4,10.2H581.7z"/>
	<path fill="#BDBCBC" d="M600.2,186.9h7.7v6.8c2.3-2.8,4.7-4.8,7.2-6.1c2.5-1.2,5.4-1.8,8.5-1.8c6.8,0,11.4,2.4,13.8,7.1
		c1.3,2.6,2,6.3,2,11.2V235h-8.2v-30.3c0-2.9-0.4-5.3-1.3-7.1c-1.4-3-4-4.5-7.8-4.5c-1.9,0-3.5,0.2-4.7,0.6c-2.2,0.7-4.2,2-5.8,4
		c-1.3,1.6-2.2,3.2-2.6,4.9s-0.6,4.1-0.6,7.3V235h-8.1V186.9z"/>
	<path fill="#BDBCBC" d="M683.2,189.5c3.4,2.6,5.4,7.2,6.1,13.6h-7.9c-0.5-3-1.6-5.4-3.3-7.4s-4.4-2.9-8.2-2.9
		c-5.2,0-8.8,2.5-11.1,7.5c-1.4,3.3-2.2,7.3-2.2,12.1c0,4.8,1,8.9,3.1,12.2c2,3.3,5.2,4.9,9.6,4.9c3.4,0,6-1,8-3.1
		c2-2,3.3-4.8,4.1-8.4h7.9c-0.9,6.4-3.1,11-6.7,14s-8.2,4.4-13.8,4.4c-6.3,0-11.3-2.3-15-6.9c-3.7-4.6-5.6-10.3-5.6-17.2
		c0-8.4,2.1-15,6.2-19.7c4.1-4.7,9.3-7.1,15.7-7.1C675.4,185.5,679.8,186.9,683.2,189.5z"/>
	<path fill="#BDBCBC" d="M727.1,188.3c3.2,1.6,5.6,3.7,7.3,6.2c1.6,2.4,2.7,5.3,3.2,8.5c0.5,2.2,0.7,5.8,0.7,10.6h-35
		c0.1,4.9,1.3,8.8,3.4,11.8c2.1,3,5.5,4.4,9.9,4.4c4.2,0,7.5-1.4,10-4.2c1.4-1.6,2.4-3.5,3-5.6h8c-0.2,1.8-0.9,3.7-2.1,5.9
		c-1.2,2.2-2.5,3.9-4,5.3c-2.4,2.4-5.5,4-9.1,4.9c-1.9,0.5-4.1,0.7-6.6,0.7c-6,0-11-2.2-15.1-6.5c-4.1-4.4-6.2-10.5-6.2-18.3
		c0-7.7,2.1-14,6.3-18.8c4.2-4.8,9.6-7.2,16.3-7.2C720.6,185.9,723.9,186.7,727.1,188.3z M730,207.2c-0.3-3.5-1.1-6.3-2.3-8.4
		c-2.2-3.9-5.9-5.8-11-5.8c-3.7,0-6.8,1.3-9.3,4c-2.5,2.7-3.8,6.1-4,10.2H730z"/>
</g>
</svg>
