<?xml version="1.0" encoding="utf-8"?>
<!-- Generator: Adobe Illustrator 18.1.1, SVG Export Plug-In . SVG Version: 6.00 Build 0)  -->
<svg version="1.1" id="Calque_1" xmlns="http://www.w3.org/2000/svg" xmlns:xlink="http://www.w3.org/1999/xlink" x="0px" y="0px"
	 viewBox="0 0 800 300" enable-background="new 0 0 800 300" xml:space="preserve">
<g>
	<path fill="#BDBCBC" d="M116.8,106.7h10.1l24,66H141l-6.9-19.8h-25.9l-7.2,19.8h-9.2L116.8,106.7z M131.6,145.6l-10.2-29.2
		l-10.6,29.2H131.6z"/>
	<path fill="#BDBCBC" d="M165.9,124.5v31.9c0,2.5,0.4,4.5,1.1,6c1.4,2.9,4,4.3,7.8,4.3c5.5,0,9.2-2.5,11.2-7.5
		c1.1-2.7,1.6-6.4,1.6-11.1v-23.6h8.1v48.1h-7.6l0.1-7.1c-1,1.8-2.3,3.4-3.8,4.6c-3,2.5-6.7,3.8-11,3.8c-6.7,0-11.3-2.3-13.8-6.9
		c-1.3-2.5-2-5.7-2-9.8v-32.7H165.9z"/>
	<path fill="#BDBCBC" d="M240.7,127.1c3.4,2.6,5.4,7.2,6.1,13.6H239c-0.5-3-1.6-5.4-3.3-7.4c-1.7-2-4.4-2.9-8.2-2.9
		c-5.2,0-8.8,2.5-11.1,7.5c-1.4,3.3-2.2,7.3-2.2,12.1c0,4.8,1,8.9,3.1,12.2c2,3.3,5.2,4.9,9.6,4.9c3.4,0,6-1,8-3.1
		c2-2,3.3-4.8,4.1-8.4h7.9c-0.9,6.4-3.1,11-6.7,14c-3.6,3-8.2,4.4-13.8,4.4c-6.3,0-11.3-2.3-15-6.9c-3.7-4.6-5.6-10.3-5.6-17.2
		c0-8.4,2.1-15,6.2-19.7c4.1-4.7,9.3-7.1,15.7-7.1C232.9,123.1,237.3,124.5,240.7,127.1z"/>
	<path fill="#BDBCBC" d="M263,124.5v31.9c0,2.5,0.4,4.5,1.1,6c1.4,2.9,4,4.3,7.8,4.3c5.5,0,9.2-2.5,11.2-7.5
		c1.1-2.7,1.6-6.4,1.6-11.1v-23.6h8.1v48.1h-7.6l0.1-7.1c-1,1.8-2.3,3.4-3.8,4.6c-3,2.5-6.7,3.8-11,3.8c-6.7,0-11.3-2.3-13.8-6.9
		c-1.3-2.5-2-5.7-2-9.8v-32.7H263z"/>
	<path fill="#BDBCBC" d="M306.1,124.5h7.7v6.8c2.3-2.8,4.7-4.8,7.2-6.1c2.5-1.2,5.4-1.8,8.5-1.8c6.8,0,11.4,2.4,13.8,7.1
		c1.3,2.6,2,6.3,2,11.2v30.9h-8.2v-30.3c0-2.9-0.4-5.3-1.3-7.1c-1.4-3-4-4.5-7.8-4.5c-1.9,0-3.5,0.2-4.7,0.6c-2.2,0.7-4.2,2-5.8,4
		c-1.3,1.6-2.2,3.2-2.6,4.9c-0.4,1.7-0.6,4.1-0.6,7.3v25.2h-8.1V124.5z"/>
	<path fill="#BDBCBC" d="M412.6,125.9c3.2,1.6,5.6,3.7,7.3,6.2c1.6,2.4,2.7,5.3,3.2,8.5c0.5,2.2,0.7,5.8,0.7,10.6h-35
		c0.1,4.9,1.3,8.8,3.4,11.8c2.1,3,5.5,4.4,9.9,4.4c4.2,0,7.5-1.4,10-4.2c1.4-1.6,2.4-3.5,3-5.6h8c-0.2,1.8-0.9,3.7-2.1,5.9
		c-1.2,2.2-2.5,3.9-4,5.3c-2.4,2.4-5.5,4-9,4.9c-1.9,0.5-4.1,0.7-6.6,0.7c-6,0-11-2.2-15.1-6.5c-4.1-4.4-6.2-10.5-6.2-18.3
		c0-7.7,2.1-14,6.3-18.8c4.2-4.8,9.6-7.2,16.3-7.2C406.1,123.5,409.4,124.3,412.6,125.9z M415.5,144.8c-0.3-3.5-1.1-6.3-2.3-8.4
		c-2.2-3.9-5.9-5.8-11-5.8c-3.7,0-6.8,1.3-9.3,4c-2.5,2.7-3.8,6.1-4,10.2H415.5z"/>
	<path fill="#BDBCBC" d="M435.6,111.1h8.2v13.4h7.7v6.6h-7.7v31.4c0,1.7,0.6,2.8,1.7,3.4c0.6,0.3,1.7,0.5,3.1,0.5c0.4,0,0.8,0,1.3,0
		c0.4,0,1-0.1,1.6-0.2v6.4c-0.9,0.3-1.9,0.5-2.9,0.6c-1,0.1-2.1,0.2-3.3,0.2c-3.8,0-6.3-1-7.7-2.9s-2-4.4-2-7.5v-31.8h-6.5v-6.6h6.5
		V111.1z"/>
	<path fill="#BDBCBC" d="M467.7,124.5v31.9c0,2.5,0.4,4.5,1.1,6c1.4,2.9,4,4.3,7.8,4.3c5.5,0,9.2-2.5,11.2-7.5
		c1.1-2.7,1.6-6.4,1.6-11.1v-23.6h8.1v48.1h-7.6l0.1-7.1c-1,1.8-2.3,3.4-3.8,4.6c-3,2.5-6.7,3.8-11,3.8c-6.7,0-11.3-2.3-13.8-6.9
		c-1.3-2.5-2-5.7-2-9.8v-32.7H467.7z"/>
	<path fill="#BDBCBC" d="M537.2,126c1.4,0.9,3.1,2.5,4.9,4.7v-24.3h7.8v66.2h-7.3V166c-1.9,3-4.1,5.1-6.7,6.4c-2.6,1.3-5.5,2-8.8,2
		c-5.3,0-10-2.3-13.9-6.8c-3.9-4.5-5.9-10.5-5.9-18c0-7,1.8-13.1,5.3-18.2c3.6-5.1,8.7-7.7,15.3-7.7
		C531.6,123.7,534.7,124.5,537.2,126z M519.1,162.1c2.2,3.5,5.7,5.2,10.5,5.2c3.7,0,6.8-1.6,9.2-4.8c2.4-3.2,3.6-7.8,3.6-13.9
		c0-6.1-1.2-10.6-3.7-13.5c-2.5-2.9-5.5-4.4-9.2-4.4c-4.1,0-7.3,1.6-9.9,4.7c-2.5,3.1-3.8,7.7-3.8,13.7
		C515.9,154.3,517,158.6,519.1,162.1z"/>
	<path fill="#BDBCBC" d="M561.9,106.7h8.2v9.2h-8.2V106.7z M561.9,124.8h8.2v47.9h-8.2V124.8z"/>
	<path fill="#BDBCBC" d="M608.1,143.5c1.9-0.2,3.1-1,3.7-2.3c0.4-0.7,0.5-1.8,0.5-3.1c0-2.8-1-4.8-2.9-6c-2-1.2-4.8-1.9-8.4-1.9
		c-4.2,0-7.2,1.1-9,3.4c-1,1.3-1.6,3.1-1.9,5.6h-7.5c0.1-5.9,2.1-10.1,5.8-12.4c3.7-2.3,8-3.5,12.9-3.5c5.7,0,10.2,1.1,13.8,3.2
		c3.5,2.2,5.2,5.5,5.2,10.1v27.7c0,0.8,0.2,1.5,0.5,2c0.3,0.5,1.1,0.8,2.2,0.8c0.4,0,0.8,0,1.2-0.1s0.9-0.1,1.4-0.2v6
		c-1.3,0.4-2.2,0.6-2.9,0.7c-0.7,0.1-1.6,0.1-2.7,0.1c-2.8,0-4.8-1-6.1-3c-0.7-1-1.1-2.5-1.4-4.4c-1.6,2.2-4,4-7.1,5.6
		c-3.1,1.6-6.5,2.4-10.2,2.4c-4.5,0-8.1-1.4-10.9-4.1s-4.2-6.1-4.2-10.2c0-4.5,1.4-7.9,4.2-10.4c2.8-2.5,6.4-4,11-4.5L608.1,143.5z
		 M591.1,165.4c1.7,1.3,3.7,2,6.1,2c2.8,0,5.6-0.7,8.3-2c4.5-2.2,6.7-5.8,6.7-10.7v-6.5c-1,0.6-2.3,1.2-3.8,1.6
		c-1.6,0.4-3.1,0.7-4.6,0.9l-4.9,0.6c-2.9,0.4-5.1,1-6.6,1.8c-2.5,1.4-3.8,3.6-3.8,6.7C588.5,162.2,589.4,164,591.1,165.4z"/>
	<path fill="#BDBCBC" d="M633.5,124.5h7.7v6.8c2.3-2.8,4.7-4.8,7.2-6.1c2.5-1.2,5.4-1.8,8.5-1.8c6.8,0,11.4,2.4,13.8,7.1
		c1.3,2.6,2,6.3,2,11.2v30.9h-8.2v-30.3c0-2.9-0.4-5.3-1.3-7.1c-1.4-3-4-4.5-7.8-4.5c-1.9,0-3.5,0.2-4.7,0.6c-2.2,0.7-4.2,2-5.8,4
		c-1.3,1.6-2.2,3.2-2.6,4.9c-0.4,1.7-0.6,4.1-0.6,7.3v25.2h-8.1V124.5z"/>
	<path fill="#BDBCBC" d="M686.3,111.1h8.2v13.4h7.7v6.6h-7.7v31.4c0,1.7,0.6,2.8,1.7,3.4c0.6,0.3,1.7,0.5,3.1,0.5c0.4,0,0.8,0,1.3,0
		c0.4,0,1-0.1,1.6-0.2v6.4c-0.9,0.3-1.9,0.5-2.9,0.6c-1,0.1-2.1,0.2-3.3,0.2c-3.8,0-6.3-1-7.7-2.9s-2-4.4-2-7.5v-31.8h-6.5v-6.6h6.5
		V111.1z"/>
</g>
</svg>
