<?xml version="1.0" encoding="utf-8"?>
<!-- Generator: Adobe Illustrator 18.1.1, SVG Export Plug-In . SVG Version: 6.00 Build 0)  -->
<svg version="1.1" id="Calque_1" xmlns="http://www.w3.org/2000/svg" xmlns:xlink="http://www.w3.org/1999/xlink" x="0px" y="0px"
	 viewBox="0 105.2 800 201.1" enable-background="new 0 105.2 800 201.1" xml:space="preserve">
<g id="Calque_1_1_" display="none">
	
		<image display="inline" overflow="visible" enable-background="new    " width="1049" height="524" xlink:href="FAFA89CC4AA46899.png"  transform="matrix(7.514884e-02 0 0 7.514884e-02 15.6947 1851.6312)">
	</image>
</g>
<g id="Calque_4" display="none">
	<rect x="10.1" y="848.4" display="inline" stroke="#050506" stroke-miterlimit="10" width="899.3" height="213.7"/>
</g>
<g id="init" display="none">
	<path display="inline" stroke="#050506" stroke-miterlimit="10" d="M68.6,1870.3c0,0,12.7,0,13.4,0c0.8,0,0.9,0.7,0.9,0.7
		l-0.1,15.1c-0.1,0.9-1.1,0.3-1.1,0.3l-13.4-4.8c-0.3-0.1-0.4-0.7-0.4-0.7s0-9.8,0-10.2C67.8,1870.2,68.6,1870.3,68.6,1870.3z"/>
	<path display="inline" stroke="#050506" stroke-miterlimit="10" d="M67.3,1860.1c0,0,18,0,19.6,0c0.9,0,1.1,0.9,1.1,0.9
		s0,17.5,0,18.5s-1.5,0.9-1.5,0.9l-19.2-4.4c-0.7-0.1-0.7-1.1-0.7-1.1s0-13.5,0-14.1C66.7,1860.3,67.3,1860.1,67.3,1860.1z"/>
	<path display="inline" stroke="#050506" stroke-miterlimit="10" d="M64.2,1868.8c0-0.7,0.7-0.7,0.7-0.7l8.9-1.1
		c0.3-0.1,0.3,0.3,0.3,0.3s0,6.5,0,6.9c0,0.3-0.3,0.3-0.3,0.3s-8.7,2.8-9.1,2.9c-0.3,0.1-0.4-0.3-0.4-0.3L64.2,1868.8L64.2,1868.8z"
		/>
</g>
<g id="fusion">
	<path opacity="0.75" fill="#FFFFFF" stroke="#FFFFFF" stroke-miterlimit="10" enable-background="new    " d="M35.3,186.9
		c0,0,91.2,0,96.1,0s6.6,4.4,6.6,4.4l-0.3,107.9c-0.6,6.3-6.9,2.4-6.9,2.4l-95.4-33.9c-3.1-0.6-3.4-4.4-3.4-4.4s0-69.6,0-72.8
		C31.9,187.5,35.3,186.9,35.3,186.9z"/>
	<path opacity="0.75" fill="#FFFFFF" stroke="#FFFFFF" stroke-miterlimit="10" enable-background="new    " d="M25.9,114.4
		c0,0,128,0,138.7,0c6.9,0,8,6.3,8,6.3s0,124.5,0,132.9c0,8.5-9.6,5.2-9.6,5.2L25.7,228.4c-4.4-1.1-4.3-7.2-4.3-7.2s0-96.3,0-101.5
		C21.8,114.5,25.9,114.4,25.9,114.4z"/>
	<path opacity="0.75" fill="#FFFFFF" stroke="#FFFFFF" stroke-miterlimit="10" enable-background="new    " d="M3.4,176.6
		c0-4.3,4.4-4.4,4.4-4.4l63.3-7.5c2.6-0.6,2.6,1.2,2.6,1.2s0,46.5,0,49.2c0,2.8-1.8,2.8-1.8,2.8S9.3,237.6,7.2,238.4
		c-2.2,0.8-3.7-1.2-3.7-1.2L3.4,176.6L3.4,176.6L3.4,176.6z"/>
</g>
<g id="logo" display="none">
	<path display="inline" opacity="0.81" stroke="#FFFFFF" stroke-miterlimit="10" enable-background="new    " d="M21.7,1854.9
		c0,0,76.5,0,80.7,0s5.6,3.7,5.6,3.7l-0.3,90.6c-0.4,5.3-5.7,2-5.7,2l-80.1-28.6c-2.6-0.4-2.8-3.7-2.8-3.7s0-58.5,0-61.3
		C19,1855.5,21.7,1854.9,21.7,1854.9z"/>
	<path display="inline" opacity="0.81" stroke="#FFFFFF" stroke-miterlimit="10" enable-background="new    " d="M13.8,1794.1
		c0,0,107.6,0,116.6,0c5.7,0,6.6,5.3,6.6,5.3s0,104.7,0,111.6c0,7.1-8.1,4.4-8.1,4.4L13.6,1890c-3.6-0.9-3.6-6.2-3.6-6.2
		s0-80.9,0-85.2C10.2,1794.2,13.8,1794.1,13.8,1794.1z"/>
	<path display="inline" opacity="0.81" stroke="#FFFFFF" stroke-miterlimit="10" enable-background="new    " d="M-5.1,1846.3
		c0-3.6,3.7-3.7,3.7-3.7l53.2-6.4c2.1-0.4,2.1,1.1,2.1,1.1s0,39,0,41.4s-1.6,2.4-1.6,2.4s-52.5,16.6-54.3,17.2
		c-1.9,0.7-3.1-1.1-3.1-1.1V1846.3z"/>
</g>
<g id="text">
	<g opacity="0.45" enable-background="new    ">
		<path fill="#FFFFFF" d="M207.6,123.8H241v8.5h-11.6l-0.2,55.9h12v8.5h-33.7v-8.5h12v-55.9H208v-8.5
			C208,123.8,207.6,123.8,207.6,123.8z"/>
		<path fill="#FFFFFF" d="M299,176.7c0-1.2-0.2-2.6-0.3-3.8c-0.2-1.2-0.9-2.4-1.7-3.5s-2.2-2-3.8-2.6c-1.7-0.9-3.8-1.2-6.4-1.7
			l-9.4-1.2c-3.8-0.3-7.2-1.2-10-2.8c-2.8-1.2-4.9-2.9-7-4.9c-1.7-2-2.9-4-3.8-6.6c-0.9-2.4-1.2-5.2-1.2-7.8s0.3-4.9,1.5-7.4
			c1.1-2.4,2.6-4.6,4.8-6.3c2.2-1.7,4.8-3.4,8.3-4.3c3.4-1.1,7.2-1.7,11.6-1.7c3.7,0,7,0.2,9.8,0.8c2.8,0.3,5.2,1.1,7.2,1.5
			c2,0.3,3.5,1.1,4.6,1.7c1.1,0.3,1.7,0.9,1.5,0.9l2.2,15.2L299,143l-1.7-10c-1.7-0.8-3.8-1.1-6.4-1.7c-2.6-0.8-5.7-0.9-9.4-0.9
			c-2.4,0-4.8,0.2-6.6,0.8c-1.8,0.6-3.7,1.2-5.2,2.2s-2.6,2.2-3.4,3.5c-0.8,1.2-1.1,2.9-1.1,4.8c0,3.5,1.1,6.3,3.4,8.3
			c2.2,2,4.9,3.4,8.7,3.7l11.2,1.7c4,0.8,7.5,1.5,10.1,2.8c2.6,1.2,4.8,2.8,6.3,4.8c1.5,1.7,2.6,3.7,3.4,6.1
			c0.8,2.2,0.9,4.3,0.9,6.6c0,4-0.8,7.5-2,10.7s-3.4,5.4-5.7,7.2c-2.4,1.7-5.2,3.4-8.5,4c-3.4,0.9-7,1.2-11,1.2
			c-3.4,0-6.4-0.3-9.6-1.1c-2.9-0.8-6-1.2-8.3-1.7c-2.4-0.3-4.3-1.1-6-1.7c-1.5-0.8-2.4-0.9-2.6-1.1l-2.4-13.8l8.3-1.2l1.5,8.7
			c1.2,0.3,2.6,0.9,4,1.2c1.5,0.3,2.8,0.9,4.3,1.1c1.5,0.2,2.9,0.8,4.6,0.9c1.5,0.2,2.8,0.3,4.3,0.3c2.6,0,4.9-0.2,7.2-0.8
			c2.2-0.6,4-1.2,6-2.2c1.7-1.1,2.9-2.4,4-4C298,181,299,179.3,299,176.7z"/>
		<path fill="#FFFFFF" d="M385.3,177.5l-6.4,19h-57.3V188h11.6l0.2-55.9h-11.6v-8.5h54.9l6.4,19l-8.3,2.8l-4.9-13.3h-26.4v22.5h23
			v8.5h-23.3l-0.2,25h29.1l4.9-13.3L385.3,177.5z"/>
		<path fill="#FFFFFF" d="M396.6,188.2H408v-55.9h-11.5v-8.5h33c4.9,0,9.4,0.3,12.7,1.2c3.5,0.9,6.3,2.4,8.5,4c2.2,1.7,3.7,4,4.6,7
			c0.9,2.8,1.5,6.1,1.5,9.8s-0.8,7-1.7,9.8c-1.1,2.8-2.8,5.4-4.9,7.4c-2.2,2-4.8,3.7-7.8,4.8c-2.9,1.1-6.4,1.7-10,1.7h-13.8v18.4
			h14.7v8.5h-36.2v-8.3h-0.5V188.2z M417.9,160.8h11.2c1.7,0,3.7-0.2,5.7-0.8c2-0.3,3.7-1.1,5.4-2.2s2.9-2.6,4-4.6s1.7-4.3,1.7-7.5
			c0-2.9-0.3-5.4-1.1-7.2s-1.7-3.4-3.4-4c-1.5-1.1-3.4-1.7-5.2-2c-2.2-0.2-4.6-0.3-7.2-0.3h-11v28.6h-0.2l0,0H417.9z"/>
		<path fill="#FFFFFF" d="M477.4,190.7c0,1.1-0.2,2-0.8,2.9c-0.6,0.9-1.1,1.7-1.7,2.4c-0.8,0.8-1.5,1.2-2.4,1.7
			c-0.9,0.3-2,0.8-2.8,0.8c-1.1,0-2-0.2-2.9-0.8c-0.9-0.3-1.7-0.9-2.4-1.7c-0.8-0.9-1.2-1.5-1.7-2.4c-0.3-0.9-0.8-2-0.8-2.9
			s0.2-2,0.8-2.9c0.3-0.9,0.9-1.7,1.7-2.4c0.8-0.8,1.5-1.2,2.4-1.7c0.9-0.3,2-0.8,2.9-0.8c1.1,0,2,0.2,2.8,0.8s1.7,1.1,2.4,1.7
			c0.8,0.8,1.2,1.5,1.7,2.4C477.2,188.7,477.4,189.8,477.4,190.7z"/>
		<path fill="#FFFFFF" d="M493.6,156.2l2-11.2c1.5-0.8,3.4-1.2,5.2-1.7c1.5-0.3,3.5-0.9,5.7-1.2s4.6-0.8,7.2-0.8
			c3.7,0,7,0.3,9.4,1.1c2.6,0.8,4.8,1.7,6.3,2.8c1.7,1.1,2.9,2.6,3.8,4s1.5,3.4,2,4.9c0.3,1.7,0.8,3.5,0.8,5.4s0.2,3.7,0.2,5.4v21.5
			l11.6,3.8l-2.4,7.8l-16.6-5.7c-2.2,1.5-4.6,2.6-7.5,3.7c-2.8,1.1-6.3,1.7-10,1.7c-3.4,0-6.3-0.3-8.9-1.2s-4.8-2-6.6-3.5
			c-1.8-1.5-3.4-3.4-4-5.2c-0.9-2-1.5-4-1.5-6.4c0-2.8,0.3-5.4,1.5-7.4c1.1-2,2.6-3.7,4.3-4.9c1.7-1.2,4-2.2,6.4-2.8
			c2.6-0.8,5.2-0.9,8-0.9l16.1,0.2v-0.4c0-1.1,0-2.2,0-3.4s0-2.4-0.2-3.5s-0.3-2.2-0.9-3.4c-0.3-1.1-1.1-2-2-2.8
			c-0.9-0.9-2.2-1.5-3.7-2c-1.5-0.6-3.5-0.8-5.7-0.8c-2.6,0-4.9,0.2-6.6,0.3c-2,0.2-3.5,0.8-4.3,0.9l-1.2,7L493.6,156.2z
			 M511.7,190.5c1.7,0,3.5-0.2,4.9-0.3c1.5-0.2,2.8-0.8,4-1.1s2.4-1.1,3.4-1.5c0.9-0.8,1.7-1.1,2.4-1.5V174l-15.8-0.2
			c-1.5,0-2.8,0-4,0.2s-2.4,0.8-3.5,1.1c-1.1,0.8-2,1.2-2.4,2.6c-0.8,1.1-0.9,2.6-0.9,4.3c0,1.5,0.2,2.8,0.9,3.8s1.5,2,2.6,2.8
			s2.4,1.2,3.8,1.5C508.5,190.4,510,190.5,511.7,190.5z"/>
		<path fill="#FFFFFF" d="M581.8,222.3h-30.6v-7.5h10.3v-62L550,149l2.4-7.5l16.6,5.7c0.9-0.8,2.2-1.2,3.4-2s2.6-1.2,3.8-1.7
			c1.5-0.3,2.8-0.9,4.3-1.2c1.5-0.2,2.9-0.3,4.8-0.3c3.8,0,7.5,0.8,10.9,1.7c3.4,1.1,6.1,2.8,8.5,5.2s4,4.9,5.4,8.5
			c1.2,3.4,2,7.2,2,11.5s-0.8,8.5-2,12.1c-1.2,3.7-3.4,7-5.7,9.6c-2.4,2.6-5.2,4.8-8.5,6.3s-7,2.2-11,2.2c-2.8,0-5.2-0.2-7.5-0.8
			c-2.2-0.3-4.3-0.9-6.1-1.5v18.4h10.3v7.4h0.1L581.8,222.3L581.8,222.3z M585.1,190.5c2.8,0,5.4-0.8,7.4-1.7c2-1.1,3.8-2.6,5.4-4.6
			c1.5-2,2.6-4.3,3.4-7c0.8-2.6,1.1-5.7,1.1-8.9c0-12.6-5.7-18.8-16.6-18.8c-2.2,0-4,0.2-6,0.8c-1.7,0.3-3.4,1.1-4.3,1.5
			c-1.5,0.8-2.6,1.5-3.7,2.4v33.4c1.1,0.8,2.2,1.1,3.5,1.5c1.1,0.3,2.6,0.9,4.3,1.1C580.9,190.4,582.9,190.5,585.1,190.5z"/>
		<path fill="#FFFFFF" d="M651.4,222.3h-30.6v-7.5h10.3v-62l-11.5-3.8l2.4-7.5l16.6,5.7c0.9-0.8,2.2-1.2,3.4-2s2.6-1.2,3.8-1.7
			c1.5-0.3,2.8-0.9,4.3-1.2c1.5-0.2,2.9-0.3,4.8-0.3c3.8,0,7.5,0.8,10.9,1.7c3.4,1.1,6.1,2.8,8.5,5.2s4,4.9,5.4,8.5
			c1.2,3.4,2,7.2,2,11.5s-0.8,8.5-2,12.1c-1.2,3.7-3.4,7-5.7,9.6c-2.4,2.6-5.2,4.8-8.5,6.3s-7,2.2-11,2.2c-2.8,0-5.2-0.2-7.5-0.8
			c-2.2-0.3-4.3-0.9-6.1-1.5v18.4h10.3v7.4h0.1L651.4,222.3L651.4,222.3z M654.5,190.5c2.8,0,5.4-0.8,7.4-1.7c2-1.1,3.8-2.6,5.4-4.6
			c1.5-2,2.6-4.3,3.4-7c0.8-2.6,1.1-5.7,1.1-8.9c0-12.6-5.7-18.8-16.6-18.8c-2.2,0-4,0.2-6,0.8c-1.7,0.3-3.4,1.1-4.3,1.5
			c-1.5,0.8-2.6,1.5-3.7,2.4v33.4c1.1,0.8,2.2,1.1,3.5,1.5c1.1,0.3,2.6,0.9,4.3,1.1C650.3,190.4,652.3,190.5,654.5,190.5z"/>
	</g>
	<g enable-background="new    ">
		<path fill="#FFFFFF" d="M202.4,119h33.4v8.5h-11.6l-0.2,55.9h12v8.5h-33.6v-8.5h12v-56h-11.6V119H202.4z"/>
		<path fill="#FFFFFF" d="M293.9,172.1c0-1.2-0.2-2.6-0.3-3.8c-0.2-1.2-0.9-2.4-1.7-3.5c-0.9-1.1-2.2-2-3.8-2.6
			c-1.7-0.9-3.8-1.2-6.4-1.7l-9.4-1.2c-3.8-0.3-7.2-1.2-10-2.8c-2.8-1.2-4.9-2.9-7-4.9c-1.7-2-2.9-4-3.8-6.6
			c-0.9-2.4-1.2-5.2-1.2-7.8s0.3-4.9,1.5-7.4s2.6-4.6,4.8-6.3c2.2-1.7,4.8-3.4,8.3-4.3c3.4-1.1,7.2-1.7,11.6-1.7
			c3.7,0,7,0.2,9.8,0.8c2.8,0.3,5.2,1.1,7.2,1.5c2,0.3,3.5,1.1,4.6,1.7c1.1,0.3,1.7,0.9,1.5,0.9l2.2,15.2l-7.8,0.9l-1.7-10
			c-1.7-0.8-3.8-1.1-6.4-1.7c-2.6-0.8-5.7-0.9-9.4-0.9c-2.4,0-4.8,0.2-6.6,0.8c-2,0.3-3.7,1.2-5.2,2.2c-1.5,0.9-2.6,2.2-3.4,3.5
			c-0.8,1.2-1.1,2.9-1.1,4.8c0,3.5,1.1,6.3,3.4,8.3s4.9,3.4,8.7,3.7l11.2,1.7c4,0.8,7.5,1.5,10.1,2.8s4.8,2.8,6.3,4.8
			c1.5,1.7,2.6,3.7,3.4,6.1c0.8,2.2,0.9,4.3,0.9,6.6c0,4-0.8,7.5-2,10.7c-1.2,3.1-3.4,5.4-5.7,7.2c-2.4,1.7-5.2,3.4-8.5,4
			c-3.4,0.8-7,1.2-11,1.2c-3.4,0-6.4-0.3-9.6-1.1c-2.9-0.8-6-1.2-8.3-1.7c-2.4-0.4-4.3-1.1-6-1.7c-1.5-0.8-2.4-0.9-2.6-1.1
			l-2.4-13.8l8.3-1.2l1.5,8.7c1.2,0.3,2.6,0.9,4,1.2s2.8,0.9,4.3,1.1c1.5,0.2,2.9,0.8,4.6,0.9c1.5,0.2,2.8,0.3,4.3,0.3
			c2.6,0,4.9-0.2,7.2-0.8c2.2-0.6,4-1.2,6-2.2c1.7-1.1,2.9-2.4,4-4C293,176.4,293.9,174.6,293.9,172.1z"/>
		<path fill="#FFFFFF" d="M380.3,173.1l-6.4,19h-57.6v-8.5h11.6l0.2-55.9h-11.6v-8.5h54.9l6.3,19l-8.3,2.8l-4.9-13.3H338v22.7h23.3
			v8.5H338l-0.2,25h29l4.9-13.3L380.3,173.1z"/>
		<path fill="#FFFFFF" d="M391.2,183.3h11.5v-55.9h-11.5V119h33c4.9,0,9.4,0.3,12.7,1.2c3.5,0.9,6.3,2.4,8.5,4s3.7,4,4.6,7
			c0.9,2.8,1.5,6.1,1.5,9.8s-0.8,7-1.7,9.8c-1.1,2.8-2.8,5.4-4.9,7.4c-2.2,2-4.8,3.7-7.8,4.8c-2.9,1.1-6.4,1.7-10,1.7h-13.8v18.4
			H428v8.5h-36.2v-8.3L391.2,183.3L391.2,183.3z M413,156.2h11.2c1.7,0,3.7-0.2,5.7-0.8c2-0.3,3.7-1.1,5.4-2.2
			c1.7-1.1,2.9-2.6,4-4.6s1.7-4.3,1.7-7.5c0-2.9-0.3-5.4-1.1-7.2c-0.8-1.7-1.7-3.4-3.4-4c-1.5-1.1-3.4-1.7-5.2-2
			c-2.2-0.2-4.6-0.3-7.2-0.3h-11v28.7L413,156.2L413,156.2z"/>
		<path fill="#FFFFFF" d="M472.2,186.1c0,1.1-0.2,2-0.8,2.9c-0.3,1.1-1.1,1.7-1.7,2.4c-0.8,0.8-1.5,1.2-2.4,1.7
			c-0.9,0.4-2,0.8-2.8,0.8c-1.1,0-2-0.2-2.9-0.8c-0.9-0.3-1.7-0.9-2.4-1.7c-0.8-0.9-1.2-1.5-1.7-2.4c-0.3-0.9-0.8-2-0.8-2.9
			s0.2-2,0.8-2.9c0.3-0.9,0.9-1.7,1.7-2.4c0.9-0.8,1.5-1.2,2.4-1.7c0.9-0.4,2-0.8,2.9-0.8c1.1,0,2,0.2,2.8,0.8
			c0.9,0.3,1.7,1.1,2.4,1.7c0.8,0.8,1.2,1.5,1.7,2.4C471.9,184.3,472.2,185,472.2,186.1z"/>
		<path fill="#FFFFFF" d="M488.4,151.6l2-11.2c1.5-0.8,3.4-1.2,5.2-1.7c1.5-0.3,3.5-0.9,5.7-1.2s4.6-0.8,7.2-0.8
			c3.7,0,7,0.3,9.4,1.1c2.6,0.8,4.8,1.7,6.3,2.8c1.7,1.1,2.9,2.6,3.8,4s1.5,3.4,2,4.9c0.3,1.7,0.8,3.5,0.8,5.4
			c0,1.8,0.2,3.7,0.2,5.4V182l11.6,3.8l-2.4,7.8l-16.6-5.7c-2.2,1.5-4.6,2.6-7.5,3.7c-2.8,1.1-6.3,1.7-10,1.7
			c-3.4,0-6.3-0.3-8.9-1.2s-4.8-2-6.6-3.5s-3.4-3.4-4-5.2c-0.9-2-1.5-4-1.5-6.4c0-2.8,0.3-5.4,1.5-7.4c1.1-2,2.6-3.7,4.3-4.9
			c1.7-1.2,4-2.2,6.4-2.8c2.6-0.8,5.2-0.9,8-0.9l16.1,0.2v-0.9c0-1.1,0-2.2,0-3.4s0-2.4-0.2-3.5s-0.3-2.2-0.9-3.4
			c-0.3-1.1-1.1-2-2-2.8c-0.9-0.9-2.2-1.5-3.7-2c-1.5-0.3-3.5-0.8-5.7-0.8c-2.6,0-4.9,0.2-6.6,0.3c-2,0.2-3.5,0.8-4.3,0.9l-1.2,7
			L488.4,151.6z M506.4,185.9c1.7,0,3.5-0.2,4.9-0.3c1.5-0.2,2.8-0.8,4-1.1s2.4-1.1,3.4-1.5c0.9-0.8,1.7-1.1,2.4-1.5v-12.1
			l-15.8-0.2c-1.5,0-2.8,0-4,0.2s-2.4,0.8-3.5,1.1c-1.1,0.8-2,1.2-2.4,2.6c-0.8,1.1-0.9,2.6-0.9,4.3c0,1.5,0.2,2.8,0.9,3.8
			c0.7,1,1.5,2,2.6,2.8s2.4,1.2,3.8,1.5C503.4,185.8,504.8,185.9,506.4,185.9z"/>
		<path fill="#FFFFFF" d="M576.6,217.7H546v-7.6h10.3v-61.9l-11.5-3.8l2.4-7.5l16.6,5.7c0.9-0.8,2.2-1.2,3.4-2s2.6-1.2,3.8-1.7
			c1.5-0.3,2.8-0.9,4.3-1.2c1.5-0.2,2.9-0.3,4.8-0.3c3.8,0,7.5,0.8,10.9,1.7c3.4,1.1,6.1,2.8,8.5,5.2c2.4,2.2,4,4.9,5.4,8.5
			c1.2,3.4,2,7.2,2,11.5s-0.8,8.5-2,12.1c-1.2,3.7-3.4,7-5.7,9.6c-2.4,2.6-5.2,4.8-8.5,6.3c-3.4,1.5-7,2.2-11,2.2
			c-2.8,0-5.2-0.2-7.5-0.8c-2.2-0.3-4.3-0.9-6.1-1.5v18.4h10.3v7.4h0.1L576.6,217.7L576.6,217.7z M579.9,185.9
			c2.8,0,5.4-0.8,7.4-1.7c2.2-1.1,3.8-2.6,5.4-4.6c1.5-2,2.6-4.3,3.4-7c0.8-2.6,1.1-5.7,1.1-8.9c0-12.6-5.7-18.8-16.6-18.8
			c-2.2,0-4,0.2-6,0.8c-1.7,0.3-3.4,1.1-4.3,1.5c-1.5,0.8-2.6,1.5-3.7,2.4v33.2c1.1,0.8,2.2,1.1,3.5,1.5c1.1,0.3,2.6,0.9,4.3,1.1
			C575.7,185.8,577.8,185.9,579.9,185.9z"/>
		<path fill="#FFFFFF" d="M646.2,217.7h-30.6v-7.6H626v-61.9l-11.5-3.8l2.4-7.5l16.6,5.7c0.9-0.8,2.2-1.2,3.4-2s2.6-1.2,3.8-1.7
			c1.5-0.3,2.8-0.9,4.3-1.2c1.5-0.2,2.9-0.3,4.8-0.3c3.8,0,7.5,0.8,10.9,1.7c3.4,1.1,6.1,2.8,8.5,5.2s4,4.9,5.4,8.5
			c1.2,3.4,2,7.2,2,11.5s-0.8,8.5-2,12.1c-1.2,3.7-3.4,7-5.7,9.6c-2.4,2.6-5.2,4.8-8.5,6.3c-3.4,1.5-7,2.2-11,2.2
			c-2.8,0-5.2-0.2-7.5-0.8c-2.2-0.3-4.3-0.9-6.1-1.5v18.4h10.3v7.4h0.1V217.7z M649.5,185.9c2.8,0,5.4-0.8,7.4-1.7
			c2-1.1,3.8-2.6,5.4-4.6c1.5-2,2.6-4.3,3.4-7c0.8-2.6,1.1-5.7,1.1-8.9c0-12.6-5.7-18.8-16.6-18.8c-2.2,0-4,0.2-6,0.8
			c-1.7,0.3-3.4,1.1-4.3,1.5c-1.5,0.8-2.6,1.5-3.7,2.4v33.2c1.1,0.8,2.2,1.1,3.5,1.5c1.1,0.3,2.6,0.9,4.3,1.1
			C645.2,185.8,647.4,185.9,649.5,185.9z"/>
	</g>
</g>
<g id="phrase" opacity="0.75">
	<rect x="203.8" y="203.7" fill="none" width="697" height="102.6"/>
	<g enable-background="new    ">
		<path fill="#FFFFFF" d="M221.7,260.5c-1.5,0.6-2.9,0.9-4.4,0.9c-2,0-3.7-0.3-5.2-1.1c-1.5-0.8-2.8-1.7-3.7-2.9
			c-1.1-1.2-1.8-2.6-2.4-4c-0.6-1.5-0.8-3.1-0.8-4.8c0-1.8,0.3-3.7,0.8-5.4c0.4-1.7,1.2-3.1,2.2-4.4c0.9-1.2,2.2-2.2,3.7-2.9
			c1.5-0.8,3.4-1.1,5.4-1.1c1.2,0,2.8,0.2,3.8,0.3c1.2,0.3,2.2,0.8,3.4,1.5c0.9,0.8,1.8,1.5,2.4,2.6c0.6,1.1,1.1,2.2,1.2,3.7h-3.4
			c-0.2-0.9-0.3-1.8-0.9-2.6c-0.3-0.8-1.1-1.2-1.7-1.7c-0.6-0.3-1.2-0.8-2.2-1.1c-0.9-0.2-1.7-0.3-2.8-0.3c-1.5,0-2.9,0.3-3.8,0.9
			c-1.1,0.6-2,1.2-2.8,2.4s-1.2,2-1.5,3.5c-0.3,1.2-0.3,2.6-0.3,3.8s0.2,2.6,0.6,3.7c0.3,1.2,0.9,2.2,1.7,3.1
			c0.8,0.9,1.7,1.7,2.8,2.2s2.2,0.9,3.7,0.9c1.2,0,2.6-0.2,3.5-0.6c1.1-0.3,1.8-1.1,2.6-1.8s1.2-1.7,1.5-2.6c0.3-0.9,0.3-2,0.3-3.1
			h-8.1v-2.9h11V260h-2l-0.9-3.1C224.4,259,223.1,260,221.7,260.5z"/>
		<path fill="#FFFFFF" d="M245.8,259.5c-1.2,1.1-2.9,1.5-5.2,1.5c-1.5,0-2.8-0.3-3.7-0.8c-1.1-0.3-2-1.2-2.8-2
			c-0.8-0.9-1.2-1.8-1.7-2.9c-0.3-1.2-0.6-2.4-0.6-3.8c0-1.2,0.2-2.8,0.6-3.7c0.3-1.1,1.1-2,1.8-2.9s1.7-1.5,2.8-2
			c1.1-0.3,2.2-0.8,3.5-0.8c1.7,0,2.9,0.3,4,1.1c1.1,0.6,2,1.5,2.6,2.6s1.1,2,1.2,3.5c0.3,1.2,0.3,2.4,0.3,3.5h-13.8
			c0,0.8,0,1.5,0.3,2.2c0.2,0.8,0.6,1.2,1.1,2c0.3,0.6,1.1,1.1,1.8,1.2c0.8,0.3,1.7,0.3,2.6,0.3c1.2,0,2.2-0.3,3.1-0.9
			c0.8-0.6,1.2-1.5,1.7-2.8h2.9C248.1,257,247.1,258.5,245.8,259.5z M245,247.7c-0.3-0.6-0.6-1.2-1.1-1.7c-0.3-0.3-1.1-0.8-1.7-1.1
			c-0.6-0.3-1.2-0.3-2-0.3s-1.5,0.2-2,0.3c-0.6,0.3-1.2,0.6-1.7,1.1c-0.3,0.3-0.8,1.1-1.1,1.7c-0.3,0.6-0.3,1.2-0.3,2h10.6
			C245.5,249.2,245.3,248.5,245,247.7z"/>
		<path fill="#FFFFFF" d="M254.2,256.6c0.3,0.3,0.6,0.8,1.1,1.1c0.3,0.3,0.9,0.3,1.5,0.6c0.6,0.2,1.2,0.2,1.8,0.2
			c0.3,0,0.9,0,1.5-0.2c0.3,0,1.1-0.2,1.5-0.3c0.3-0.2,0.8-0.3,1.1-0.9c0.3-0.3,0.3-0.9,0.3-1.2c0-0.8-0.3-1.2-0.9-1.8
			c-0.6-0.3-1.2-0.8-2.2-0.9c-0.9-0.3-1.8-0.3-2.9-0.6c-1.1-0.2-2-0.3-2.9-0.9c-0.9-0.3-1.7-0.9-2.2-1.5c-0.6-0.6-0.9-1.5-0.9-2.8
			c0-0.9,0.2-1.7,0.6-2.4c0.3-0.6,0.9-1.2,1.7-1.7c0.6-0.3,1.2-0.8,2.2-0.9c0.8-0.2,1.7-0.3,2.4-0.3c1.1,0,2,0.2,2.9,0.3
			c0.9,0.2,1.7,0.3,2.2,0.9c0.6,0.6,1.2,1.1,1.7,1.8c0.3,0.8,0.6,1.7,0.8,2.8h-2.9c0-0.6-0.2-1.1-0.3-1.5c-0.3-0.3-0.6-0.8-1.1-0.9
			c-0.3-0.3-0.9-0.3-1.2-0.3c-0.3-0.2-0.9-0.2-1.5-0.2c-0.3,0-0.9,0-1.2,0.2c-0.3,0.2-0.9,0.2-1.2,0.3c-0.3,0.2-0.8,0.3-0.9,0.8
			c-0.3,0.3-0.3,0.8-0.3,1.2c0,0.6,0.2,0.9,0.6,1.2s0.9,0.6,1.2,0.9c0.6,0.2,1.2,0.3,2,0.6s1.2,0.3,2,0.3c0.8,0.2,1.5,0.3,2.2,0.6
			c0.8,0.3,1.2,0.6,2,0.9c0.6,0.3,1.1,0.9,1.2,1.5c0.2,0.6,0.3,1.2,0.3,2.2c0,1.1-0.3,2-0.8,2.8c-0.3,0.8-1.1,1.2-1.8,1.8
			c-0.8,0.3-1.5,0.8-2.6,0.9c-1.1,0.2-1.8,0.3-2.8,0.3c-1.1,0-2-0.2-2.9-0.3c-0.9-0.1-1.8-0.6-2.4-1.1c-0.8-0.3-1.2-1.1-1.7-2
			c-0.3-0.8-0.6-1.8-0.8-2.9h2.9C253.7,255.7,253.9,256.1,254.2,256.6z"/>
		<path fill="#FFFFFF" d="M277.4,242.5v2.8h-3.7v11.2c0,0.3,0,0.6,0.2,0.9c0,0.2,0.2,0.3,0.3,0.3c0.2,0.2,0.3,0.2,0.8,0.3
			c0.3,0,0.6,0,1.2,0h1.2v2.8h-2.2c-0.8,0-1.5,0-2-0.2c-0.6-0.2-1.1-0.3-1.2-0.6c-0.3-0.3-0.6-0.8-0.8-1.2c-0.2-0.3-0.3-1.2-0.3-2
			v-11.6h-3.1v-2.8h3.1V237h2.9v5.4h3.6V242.5z"/>
		<path fill="#FFFFFF" d="M280.9,239.1v-3.7h2.9v3.7H280.9z M283.8,242.5v18.2h-2.9v-18.3L283.8,242.5L283.8,242.5z"/>
		<path fill="#FFFFFF" d="M288.1,247.7c0.3-1.2,0.9-2,1.7-2.9c0.8-0.9,1.7-1.5,2.9-2c1.1-0.3,2.4-0.8,3.7-0.8c1.5,0,2.8,0.3,3.7,0.8
			c0.9,0.3,2,1.2,2.8,2s1.2,1.8,1.7,2.9c0.3,1.2,0.6,2.4,0.6,3.7c0,1.2-0.2,2.6-0.6,3.7c-0.3,1.2-0.9,2-1.7,2.9s-1.7,1.5-2.8,2
			c-1.1,0.6-2.4,0.8-3.7,0.8c-1.5,0-2.8-0.3-3.7-0.8c-0.9-0.4-2-1.2-2.9-2c-0.8-0.9-1.2-1.8-1.7-2.9c-0.3-1.2-0.6-2.4-0.6-3.7
			C287.5,250.2,287.5,249.1,288.1,247.7z M291,254.6c0.3,0.9,0.8,1.5,1.2,2c0.6,0.6,1.1,1.1,1.8,1.2c0.8,0.3,1.5,0.3,2.2,0.3
			s1.5-0.2,2.2-0.3c0.8-0.3,1.2-0.8,1.8-1.2c0.6-0.6,0.9-1.2,1.2-2c0.3-0.9,0.3-1.8,0.3-2.9s-0.2-2-0.3-2.9c-0.2-0.9-0.8-1.7-1.2-2
			c-0.3-0.6-1.1-1.1-1.8-1.2c-0.8-0.3-1.5-0.3-2.2-0.3s-1.5,0.2-2.2,0.3c-0.8,0.3-1.2,0.8-1.8,1.2c-0.6,0.4-0.9,1.2-1.2,2
			c-0.3,0.9-0.3,1.8-0.3,2.9S290.8,253.7,291,254.6z"/>
		<path fill="#FFFFFF" d="M311.5,242.5v2.9l0,0c1.2-2.2,3.1-3.4,6-3.4c1.2,0,2.2,0.2,2.9,0.3c0.8,0.3,1.5,0.8,2,1.2
			c0.3,0.6,0.9,1.2,1.1,2s0.3,1.7,0.3,2.8v12h-2.9v-12.4c0-1.2-0.3-2-1.1-2.8c-0.6-0.6-1.5-1.1-2.8-1.1c-0.9,0-1.7,0.2-2.4,0.3
			c-0.6,0.3-1.2,0.8-1.7,1.2c-0.3,0.3-0.8,1.1-1.1,1.8c-0.2,0.8-0.3,1.5-0.3,2.2v10.3h-2.9v-18.3L311.5,242.5L311.5,242.5z"/>
		<path fill="#FFFFFF" d="M351.5,260.7v-2.6l0,0c-0.3,1.1-1.2,1.8-2.2,2.2c-0.9,0.3-2.2,0.6-3.5,0.6s-2.8-0.3-3.7-0.8
			c-0.9-0.3-2-1.2-2.6-2c-0.8-0.9-1.2-2-1.5-2.9c-0.3-1.2-0.6-2.4-0.6-3.7c0-1.2,0.2-2.6,0.3-3.7c0.3-1.2,0.9-2,1.5-2.9
			c0.8-0.9,1.5-1.5,2.6-2c1.1-0.3,2.2-0.8,3.7-0.8c0.3,0,0.9,0,1.5,0.2s1.1,0.3,1.7,0.3c0.6,0.2,1.1,0.3,1.5,0.9
			c0.3,0.3,0.9,0.8,1.2,1.2l0,0v-9.4h2.9v25.4L351.5,260.7L351.5,260.7z M340.7,254.3c0.2,0.8,0.6,1.5,1.1,2
			c0.6,0.6,1.1,1.2,1.8,1.5c0.8,0.3,1.5,0.6,2.6,0.6s1.8-0.2,2.6-0.6c0.8-0.3,1.2-0.9,1.8-1.5s0.8-1.2,0.9-2.2
			c0.2-0.8,0.3-1.7,0.3-2.6c0-0.9-0.2-1.8-0.3-2.6c-0.2-0.9-0.6-1.5-1.1-2.2c-0.3-0.6-1.1-1.2-1.8-1.5c-0.8-0.3-1.7-0.6-2.8-0.6
			c-1.1,0-1.8,0.2-2.6,0.6c-0.8,0.3-1.2,0.9-1.7,1.7c-0.3,0.6-0.8,1.2-0.9,2.2s-0.3,1.7-0.3,2.6
			C340.3,252.6,340.7,253.4,340.7,254.3z"/>
		<path fill="#FFFFFF" d="M372.1,259.5c-1.2,1.1-2.9,1.5-5.2,1.5c-1.5,0-2.8-0.3-3.7-0.8c-1.1-0.3-2-1.2-2.8-2
			c-0.8-0.9-1.2-1.8-1.7-2.9c-0.3-1.2-0.6-2.4-0.6-3.8c0-1.2,0.2-2.8,0.6-3.7c0.3-1.1,1.1-2,1.8-2.9c0.7-0.9,1.7-1.5,2.8-2
			c1.1-0.3,2.2-0.8,3.5-0.8c1.7,0,2.9,0.3,4,1.1c1.1,0.6,2,1.5,2.6,2.6s1.1,2,1.2,3.5c0.3,1.2,0.3,2.4,0.3,3.5h-13.6
			c0,0.8,0,1.5,0.3,2.2c0.2,0.8,0.6,1.2,1.1,2c0.3,0.6,1.1,1.1,1.8,1.2c0.8,0.3,1.7,0.3,2.6,0.3c1.2,0,2.2-0.3,3.1-0.9
			c0.8-0.6,1.2-1.5,1.7-2.8h2.9C374.2,257,373.5,258.5,372.1,259.5z M371.5,247.7c-0.3-0.6-0.6-1.2-1.1-1.7
			c-0.3-0.3-1.1-0.8-1.7-1.1s-1.2-0.3-2-0.3s-1.5,0.2-2,0.3c-0.6,0.3-1.2,0.6-1.7,1.1c-0.3,0.3-0.8,1.1-1.1,1.7
			c-0.3,0.6-0.3,1.2-0.3,2h10.6C371.8,249.2,371.6,248.5,371.5,247.7z"/>
		<path fill="#FFFFFF" d="M391.2,235.4v25.3h-2.9v-25.3L391.2,235.4L391.2,235.4z"/>
		<path fill="#FFFFFF" d="M400.4,235.4v3.8c0,0.8-0.2,1.2-0.3,2c-0.2,0.6-0.3,1.2-0.8,1.7c-0.3,0.3-0.8,0.9-1.2,1.2
			c-0.3,0.3-1.1,0.3-1.8,0.3v-1.8c0.3,0,0.8-0.2,1.1-0.3c0.3-0.2,0.3-0.3,0.6-0.8c0.2-0.3,0.3-0.8,0.3-1.1s0.2-0.8,0.2-1.2h-2v-3.8
			L400.4,235.4L400.4,235.4z"/>
		<path fill="#FFFFFF" d="M421.9,260.7c-0.3,0.3-1.2,0.3-2,0.3s-1.2-0.2-1.8-0.6c-0.3-0.3-0.8-1.2-0.8-2c-0.8,1.1-1.8,1.7-2.9,2
			s-2.2,0.6-3.7,0.6c-0.8,0-1.7-0.2-2.4-0.3c-0.7-0.1-1.2-0.3-2-0.9c-0.6-0.3-0.9-0.9-1.2-1.5c-0.3-0.6-0.3-1.5-0.3-2.4
			c0-1.1,0.2-2,0.6-2.6c0.3-0.6,0.8-1.2,1.2-1.7c0.6-0.3,1.2-0.8,2-0.9c0.8-0.2,1.5-0.3,2.2-0.6s1.7-0.3,2.4-0.3
			c0.8-0.2,1.2-0.2,2-0.3s1.1-0.3,1.2-0.6c0.3-0.3,0.3-0.8,0.3-1.2s-0.2-1.2-0.3-1.7c-0.3-0.3-0.6-0.8-0.9-0.9
			c-0.3-0.2-0.8-0.3-1.2-0.3c-0.3,0-0.9-0.2-1.5-0.2c-1.2,0-2.2,0.3-3.1,0.8c-0.9,0.3-1.2,1.2-1.2,2.8h-2.9c0-1.2,0.3-2,0.8-2.9
			c0.3-0.8,1.1-1.2,1.7-2c0.8-0.3,1.5-0.9,2.4-1.1s1.8-0.3,2.9-0.3c0.8,0,1.7,0,2.4,0.2c0.8,0.2,1.5,0.3,2.2,0.8
			c0.6,0.3,1.2,0.9,1.7,1.5c0.4,0.6,0.6,1.5,0.6,2.6v9.4c0,0.8,0,1.2,0.2,1.5s0.3,0.3,0.9,0.3c0.3,0,0.6,0,0.9-0.2v2.8L421.9,260.7
			L421.9,260.7z M416.8,251.3c-0.3,0.3-0.9,0.3-1.5,0.6s-1.2,0.3-2,0.3c-0.6,0.2-1.2,0.2-2,0.3c-0.8,0.2-1.2,0.3-1.8,0.3
			c-0.6,0.3-1.1,0.6-1.2,1.1c-0.3,0.3-0.3,1.1-0.3,1.8c0,0.3,0.2,0.9,0.3,1.2c0.2,0.3,0.3,0.6,0.8,0.8s0.8,0.3,1.1,0.3
			c0.3,0.2,0.9,0.2,1.2,0.2c1.1,0,1.8-0.2,2.6-0.3c0.8-0.3,1.2-0.6,1.7-1.1c0.3-0.3,0.8-0.9,1.1-1.2c0.2-0.3,0.3-0.9,0.3-1.2
			L416.8,251.3L416.8,251.3z"/>
		<path fill="#FFFFFF" d="M427.7,242.5v2.4l0,0c0.3-1.1,1.2-1.8,2.2-2.2s2.2-0.8,3.5-0.8s2.8,0.3,3.7,0.8c0.9,0.3,2,1.2,2.6,2
			c0.8,0.9,1.2,2,1.5,2.9c0.3,1.2,0.6,2.4,0.6,3.7c0,1.2-0.2,2.6-0.3,3.7c-0.3,1.2-0.9,2-1.5,2.9c-0.8,0.9-1.5,1.5-2.6,2
			c-1.1,0.3-2.2,0.8-3.7,0.8c-0.3,0-0.9,0-1.5-0.2s-1.1-0.3-1.7-0.3c-0.6-0.2-1.1-0.3-1.5-0.9c-0.3-0.3-0.9-0.8-1.2-1.2l0,0v9.4
			h-2.9v-25.3h2.9L427.7,242.5L427.7,242.5z M438.4,248.9c-0.2-0.8-0.6-1.5-1.1-2c-0.3-0.6-1.1-1.2-1.8-1.5
			c-0.8-0.3-1.5-0.6-2.6-0.6s-1.8,0.2-2.6,0.6c-0.8,0.3-1.2,0.9-1.7,1.5c-0.3,0.6-0.8,1.2-0.9,2.2c-0.2,0.8-0.3,1.7-0.3,2.6
			c0,0.9,0.2,1.8,0.3,2.6c0.2,0.9,0.6,1.5,1.1,2.2c0.3,0.6,1.1,1.2,1.8,1.5c0.8,0.3,1.7,0.6,2.8,0.6c1.1,0,2-0.2,2.6-0.6
			c0.8-0.3,1.2-0.9,1.7-1.7c0.3-0.6,0.8-1.2,0.9-2.2c0.2-0.9,0.3-1.7,0.3-2.6C438.8,250.5,438.8,249.8,438.4,248.9z"/>
		<path fill="#FFFFFF" d="M448.6,242.5v2.4l0,0c0.3-1.1,1.2-1.8,2.2-2.2s2.2-0.8,3.5-0.8s2.8,0.3,3.7,0.8c1.1,0.3,2,1.2,2.6,2
			c0.8,0.9,1.2,2,1.5,2.9c0.3,1.2,0.6,2.4,0.6,3.7c0,1.2-0.2,2.6-0.3,3.7c-0.3,1.1-0.9,2-1.5,2.9c-0.8,0.9-1.5,1.5-2.6,2
			c-1.1,0.6-2.2,0.8-3.7,0.8c-0.3,0-0.9,0-1.5-0.2s-1.1-0.3-1.7-0.3c-0.6-0.2-1.1-0.3-1.5-0.9c-0.3-0.3-0.9-0.8-1.2-1.2l0,0v9.4
			h-2.9v-25.3h2.9v0.3L448.6,242.5L448.6,242.5z M459.5,248.9c-0.2-0.8-0.6-1.5-1.1-2c-0.3-0.6-1.1-1.2-1.8-1.5
			c-0.8-0.3-1.5-0.6-2.6-0.6s-1.8,0.2-2.6,0.6c-0.8,0.3-1.2,0.9-1.7,1.5c-0.3,0.6-0.8,1.2-0.9,2.2c-0.2,0.8-0.3,1.7-0.3,2.6
			c0,0.9,0.2,1.8,0.3,2.6c0.2,0.9,0.6,1.5,1.1,2.2c0.3,0.6,1.1,1.2,1.8,1.5c0.8,0.3,1.7,0.6,2.8,0.6c1.1,0,2-0.2,2.6-0.6
			c0.8-0.3,1.2-0.9,1.7-1.7c0.3-0.6,0.8-1.2,0.9-2.2c0.2-0.9,0.3-1.7,0.3-2.6C459.9,250.5,459.6,249.8,459.5,248.9z"/>
		<path fill="#FFFFFF" d="M469.3,242.5v3.8l0,0c0.8-1.5,1.7-2.6,2.8-3.4c1.1-0.8,2.4-1.1,4-1.1v3.1c-1.2,0-2.2,0.2-2.9,0.3
			c-0.9,0.3-1.5,0.8-2,1.5c-0.3,0.6-0.9,1.2-1.2,2.2s-0.3,2-0.3,3.1v8.1h-3.1v-18.3h2.8L469.3,242.5L469.3,242.5z"/>
		<path fill="#FFFFFF" d="M490.4,259.5c-1.2,1.1-2.9,1.5-5.2,1.5c-1.5,0-2.8-0.3-3.7-0.8c-1.1-0.3-2-1.2-2.8-2
			c-0.8-0.9-1.2-1.8-1.7-2.9c-0.3-1.2-0.6-2.4-0.6-3.8c0-1.2,0.2-2.8,0.6-3.7c0.3-1.2,1.1-2,1.8-2.9c0.7-0.9,1.7-1.5,2.8-2
			c1.1-0.3,2.2-0.8,3.5-0.8c1.7,0,2.9,0.3,4,1.1c1.1,0.6,2,1.5,2.6,2.6s1.1,2,1.2,3.5c0.3,1.2,0.3,2.4,0.3,3.5H480
			c0,0.8,0,1.5,0.3,2.2c0.2,0.8,0.6,1.2,1.1,2c0.3,0.6,1.1,1.1,1.8,1.2c0.8,0.3,1.7,0.3,2.6,0.3c1.2,0,2.2-0.3,3.1-0.9
			c0.8-0.6,1.2-1.5,1.7-2.8h2.9C492.9,257,491.9,258.5,490.4,259.5z M489.9,247.7c-0.3-0.6-0.6-1.2-1.1-1.7
			c-0.3-0.3-1.1-0.8-1.7-1.1s-1.2-0.3-2-0.3s-1.5,0.2-2,0.3c-0.6,0.3-1.2,0.6-1.7,1.1c-0.3,0.3-0.8,1.1-1.1,1.7
			c-0.3,0.6-0.3,1.2-0.3,2h10.6C490.3,249.2,490.1,248.5,489.9,247.7z"/>
		<path fill="#FFFFFF" d="M499.3,242.5v2.9l0,0c1.2-2.2,3.1-3.4,6-3.4c1.2,0,2.2,0.2,2.9,0.3c0.8,0.3,1.5,0.8,2,1.2
			c0.6,0.6,0.9,1.2,1.1,2s0.3,1.7,0.3,2.8v12h-2.9v-12.4c0-1.2-0.3-2-1.1-2.8c-0.6-0.6-1.5-1.1-2.8-1.1c-0.9,0-1.7,0.2-2.4,0.3
			c-0.6,0.3-1.2,0.8-1.7,1.2c-0.3,0.3-0.8,1.1-1.1,1.8c-0.2,0.8-0.3,1.5-0.3,2.2v10.3h-2.9v-18.3L499.3,242.5L499.3,242.5z"/>
		<path fill="#FFFFFF" d="M524,242.5v2.8h-3.7v11.2c0,0.3,0,0.6,0.2,0.9c0,0.2,0.2,0.3,0.3,0.3c0.2,0.2,0.3,0.2,0.8,0.3
			c0.3,0,0.6,0,1.2,0h1.2v2.8h-2.2c-0.8,0-1.5,0-2-0.2c-0.6-0.2-1.1-0.3-1.2-0.6c-0.3-0.3-0.6-0.8-0.8-1.2c-0.2-0.3-0.3-1.2-0.3-2
			v-11.6h-3.1v-2.8h3.1V237h2.9v5.4h3.6V242.5z"/>
		<path fill="#FFFFFF" d="M527.5,239.1v-3.7h2.9v3.7H527.5z M530.6,242.5v18.2h-2.9v-18.3L530.6,242.5L530.6,242.5z"/>
		<path fill="#FFFFFF" d="M537.5,256.6c0.3,0.3,0.6,0.8,1.1,1.1c0.3,0.3,0.9,0.3,1.5,0.6c0.6,0.2,1.2,0.2,1.8,0.2
			c0.3,0,0.9,0,1.5-0.2c0.3,0,1.1-0.2,1.5-0.3c0.3-0.2,0.8-0.3,1.1-0.9c0.3-0.3,0.3-0.9,0.3-1.2c0-0.8-0.3-1.2-0.9-1.8
			c-0.6-0.6-1.2-0.8-2.2-0.9c-0.9-0.3-1.8-0.3-2.9-0.6c-1.1-0.2-2-0.3-2.9-0.9c-0.9-0.3-1.7-0.9-2.2-1.5c-0.6-0.6-0.9-1.5-0.9-2.8
			c0-0.9,0.2-1.7,0.6-2.4c0.3-0.6,0.9-1.2,1.7-1.7c0.6-0.3,1.2-0.8,2.2-0.9c0.9-0.2,1.7-0.3,2.4-0.3c1.1,0,2,0.2,2.9,0.3
			c0.9,0.2,1.7,0.3,2.2,0.9c0.6,0.6,1.2,1.1,1.7,1.8c0.3,0.8,0.6,1.7,0.8,2.8h-2.9c0-0.6-0.2-1.1-0.3-1.5c-0.3-0.3-0.6-0.8-1.1-0.9
			c-0.3-0.3-0.9-0.3-1.2-0.3c-0.3-0.2-0.9-0.2-1.5-0.2c-0.3,0-0.9,0-1.2,0.2c-0.3,0-0.9,0.2-1.2,0.3c-0.3,0.2-0.8,0.3-0.9,0.8
			c-0.3,0.3-0.3,0.8-0.3,1.2c0,0.6,0.2,0.9,0.6,1.2s0.9,0.6,1.2,0.9c0.6,0.2,1.2,0.3,2,0.6c0.8,0.2,1.2,0.3,2,0.3
			c0.8,0.2,1.5,0.3,2.2,0.6c0.8,0.3,1.2,0.6,2,0.9c0.6,0.3,1.1,0.9,1.2,1.5c0.3,0.6,0.3,1.2,0.3,2.2c0,1.1-0.3,2-0.8,2.8
			c-0.3,0.8-1.1,1.2-1.8,1.8c-0.8,0.3-1.5,0.8-2.6,0.9c-0.9,0.2-1.8,0.3-2.8,0.3c-1.1,0-2-0.2-2.9-0.3c-0.9-0.2-1.8-0.6-2.4-1.1
			c-0.8-0.3-1.2-1.1-1.7-2c-0.3-0.8-0.6-1.8-0.8-2.9h2.9C537,255.7,537.2,256.1,537.5,256.6z"/>
		<path fill="#FFFFFF" d="M555.2,256.6c0.3,0.3,0.6,0.8,1.1,1.1c0.3,0.3,0.9,0.3,1.5,0.6c0.6,0.2,1.2,0.2,1.8,0.2
			c0.3,0,0.9,0,1.5-0.2c0.3,0,1.1-0.2,1.5-0.3c0.3-0.2,0.8-0.3,1.1-0.9c0.3-0.3,0.3-0.9,0.3-1.2c0-0.8-0.3-1.2-0.9-1.8
			c-0.6-0.6-1.2-0.8-2.2-0.9c-0.9-0.3-1.8-0.3-2.9-0.6c-1.1-0.2-2-0.3-2.9-0.9c-0.9-0.3-1.7-0.9-2.2-1.5c-0.6-0.6-0.9-1.5-0.9-2.8
			c0-0.9,0.2-1.7,0.6-2.4c0.3-0.6,0.9-1.2,1.7-1.7c0.6-0.3,1.2-0.8,2.2-0.9c0.9-0.2,1.7-0.3,2.4-0.3c1.1,0,2,0.2,2.9,0.3
			c0.9,0.2,1.7,0.3,2.2,0.9c0.6,0.6,1.2,1.1,1.7,1.8c0.3,0.8,0.6,1.7,0.8,2.8h-2.8c0-0.6-0.2-1.1-0.3-1.5c-0.3-0.3-0.6-0.8-1.1-0.9
			c-0.3-0.3-0.9-0.3-1.2-0.3c-0.3-0.2-0.9-0.2-1.5-0.2c-0.3,0-0.9,0-1.2,0.2c-0.3,0-0.9,0.2-1.2,0.3c-0.3,0.2-0.8,0.3-0.9,0.8
			c-0.3,0.3-0.3,0.8-0.3,1.2c0,0.6,0.2,0.9,0.6,1.2s0.9,0.6,1.2,0.9c0.6,0.2,1.2,0.3,2,0.6s1.2,0.3,2,0.3c0.8,0.2,1.5,0.3,2.2,0.6
			c0.8,0.3,1.2,0.6,2,0.9c0.6,0.3,1.1,0.9,1.2,1.5c0.3,0.6,0.3,1.2,0.3,2.2c0,1.1-0.3,2-0.8,2.8c-0.3,0.8-1.1,1.2-1.8,1.8
			c-0.8,0.3-1.5,0.8-2.6,0.9c-0.9,0.2-1.8,0.3-2.8,0.3c-1.1,0-2-0.2-2.9-0.3c-0.9-0.2-1.8-0.6-2.4-1.1c-0.8-0.3-1.2-1.1-1.7-2
			c-0.3-0.8-0.6-1.8-0.8-2.9h2.9C554.8,255.7,554.8,256.1,555.2,256.6z"/>
		<path fill="#FFFFFF" d="M586.8,260.7c-0.3,0.3-1.2,0.3-2,0.3s-1.2-0.2-1.8-0.6c-0.3-0.3-0.8-1.2-0.8-2c-0.8,1.1-1.8,1.7-2.9,2
			c-1.1,0.3-2.2,0.6-3.7,0.6c-0.8,0-1.7-0.2-2.4-0.3c-0.8-0.2-1.2-0.3-2-0.9c-0.6-0.3-0.9-0.9-1.2-1.5s-0.3-1.5-0.3-2.4
			c0-1.1,0.2-2,0.6-2.6c0.3-0.6,0.8-1.2,1.2-1.7c0.6-0.3,1.2-0.8,2-0.9c0.8-0.2,1.5-0.3,2.2-0.6s1.7-0.3,2.4-0.3
			c0.8-0.2,1.2-0.2,2-0.3c0.8-0.2,1.1-0.3,1.2-0.6c0.3-0.3,0.3-0.8,0.3-1.2s-0.2-1.2-0.3-1.7c-0.3-0.3-0.6-0.8-0.9-0.9
			c-0.3-0.2-0.8-0.3-1.2-0.3c-0.3,0-0.9-0.2-1.5-0.2c-1.2,0-2.2,0.3-3.1,0.8c-0.9,0.3-1.2,1.2-1.2,2.8h-2.9c0-1.2,0.3-2,0.8-2.9
			c0.3-0.8,1.1-1.2,1.7-2c0.8-0.3,1.5-0.9,2.4-1.1s1.8-0.3,2.9-0.3c0.8,0,1.7,0,2.4,0.2c0.8,0.2,1.5,0.3,2.2,0.8
			c0.6,0.3,1.2,0.9,1.7,1.5c0.3,0.6,0.6,1.5,0.6,2.6v9.4c0,0.8,0,1.2,0.2,1.5s0.3,0.3,0.9,0.3c0.3,0,0.6,0,0.9-0.2L586.8,260.7
			L586.8,260.7z M581.9,251.3c-0.3,0.3-0.9,0.3-1.5,0.6c-0.6,0.2-1.2,0.3-2,0.3s-1.2,0.2-2,0.3s-1.2,0.3-1.8,0.3
			c-0.6,0.3-1.1,0.6-1.2,1.1c-0.3,0.3-0.3,1.1-0.3,1.8c0,0.3,0.2,0.9,0.3,1.2c0.2,0.3,0.3,0.6,0.8,0.8c0.3,0.2,0.8,0.3,1.1,0.3
			c0.3,0.2,0.9,0.2,1.2,0.2c1.1,0,1.8-0.2,2.6-0.3c0.8-0.3,1.2-0.6,1.8-1.1c0.3-0.3,0.8-0.9,1.1-1.2c0.2-0.3,0.3-0.9,0.3-1.2
			L581.9,251.3L581.9,251.3z"/>
		<path fill="#FFFFFF" d="M603.2,265.8c-1.2,1.5-3.5,2.2-6.4,2.2c-0.9,0-1.7-0.2-2.6-0.3c-0.9-0.2-1.7-0.3-2.4-0.9
			c-0.8-0.3-1.2-0.9-1.8-1.7c-0.3-0.8-0.8-1.5-0.8-2.6h2.9c0,0.6,0.2,1.1,0.3,1.2c0.3,0.3,0.8,0.8,1.2,0.9c0.3,0.3,0.9,0.3,1.5,0.3
			s1.1,0.2,1.5,0.2c1.1,0,1.8-0.2,2.6-0.3c0.8-0.3,1.2-0.8,1.7-1.2c0.3-0.6,0.8-1.2,0.9-2c0.2-0.9,0.3-1.8,0.3-2.9v-1.2l0,0
			c-0.3,1.2-1.2,2-2.4,2.6s-2,0.8-3.4,0.8c-1.2,0-2.6-0.3-3.7-0.8c-1.1-0.3-1.8-1.2-2.6-2c-0.8-0.9-1.2-1.8-1.5-2.9
			s-0.3-2.2-0.3-3.7c0-1.1,0.2-2.2,0.3-3.4c0.3-1.2,0.8-2,1.2-3.1c0.6-0.9,1.5-1.7,2.6-2.2c1.1-0.6,2.4-0.9,4-0.9
			c1.2,0,2.2,0.3,3.1,0.8c0.9,0.3,1.7,1.2,2.2,2.2l0,0v-2h2.9v16.7C605.2,262.1,604.6,264.4,603.2,265.8z M599.4,257.5
			c0.8-0.3,1.2-0.9,1.7-1.7c0.3-0.6,0.8-1.5,0.9-2.2c0.2-0.9,0.3-1.7,0.3-2.6c0-0.8-0.2-1.7-0.3-2.4c-0.2-0.8-0.3-1.5-0.9-2
			c-0.3-0.6-0.9-1.1-1.7-1.5c-0.6-0.3-1.5-0.6-2.4-0.6s-1.8,0.2-2.4,0.6c-0.8,0.3-1.2,0.9-1.7,1.5c-0.3,0.6-0.8,1.2-0.9,2
			c-0.2,0.8-0.3,1.7-0.3,2.6c0,0.8,0.2,1.7,0.3,2.4c0.2,0.8,0.3,1.5,0.9,2.2c0.3,0.6,0.9,1.2,1.7,1.7c0.8,0.3,1.5,0.6,2.4,0.6
			C597.9,258.3,598.8,258.1,599.4,257.5z"/>
		<path fill="#FFFFFF" d="M622.7,259.5c-1.2,1.1-2.9,1.5-5.2,1.5c-1.5,0-2.8-0.3-3.7-0.8c-0.9-0.3-2-1.2-2.8-2
			c-0.8-0.9-1.2-1.8-1.7-2.9c-0.3-1.2-0.6-2.4-0.6-3.8c0-1.2,0.2-2.8,0.6-3.7c0.3-1.2,1.1-2,1.8-2.9s1.7-1.5,2.8-2
			c1.1-0.6,2.2-0.8,3.5-0.8c1.7,0,2.9,0.3,4,1.1c1.1,0.6,2,1.5,2.6,2.6s1.1,2,1.2,3.5c0.3,1.2,0.3,2.4,0.3,3.5h-13.6
			c0,0.8,0,1.5,0.3,2.2c0.2,0.8,0.6,1.2,1.1,2c0.3,0.6,1.1,1.1,1.8,1.2c0.8,0.3,1.7,0.3,2.6,0.3c1.2,0,2.2-0.3,3.1-0.9
			c0.8-0.6,1.2-1.5,1.7-2.8h2.9C625,257,624.1,258.5,622.7,259.5z M622.1,247.7c-0.3-0.6-0.6-1.2-1.1-1.7c-0.3-0.3-1.1-0.8-1.7-1.1
			c-0.6-0.3-1.2-0.3-2-0.3s-1.5,0.2-2,0.3c-0.6,0.3-1.2,0.6-1.7,1.1c-0.3,0.3-0.8,1.1-1.1,1.7c-0.3,0.6-0.3,1.2-0.3,2h10.6
			C622.4,249.2,622.2,248.5,622.1,247.7z"/>
		<path fill="#FFFFFF" d="M641.6,242.5v2.4l0,0c0.3-1.1,1.2-1.8,2.2-2.2c0.9-0.3,2.2-0.8,3.5-0.8c1.2,0,2.8,0.3,3.7,0.8
			c0.9,0.3,2,1.2,2.6,2c0.8,0.9,1.2,2,1.5,2.9c0.3,1.2,0.6,2.4,0.6,3.7c0,1.2-0.2,2.6-0.3,3.7c-0.3,1.1-0.9,2-1.5,2.9
			c-0.8,0.9-1.5,1.5-2.6,2s-2.2,0.8-3.7,0.8c-0.3,0-0.9,0-1.5-0.2s-1.1-0.3-1.7-0.3c-0.6-0.2-1.1-0.3-1.5-0.9
			c-0.3-0.3-0.9-0.8-1.2-1.2l0,0v9.4h-2.9v-25.3h2.9L641.6,242.5L641.6,242.5L641.6,242.5z M652.5,248.9c-0.2-0.8-0.6-1.5-1.1-2
			c-0.6-0.6-1.1-1.2-1.8-1.5c-0.8-0.3-1.5-0.6-2.6-0.6s-1.8,0.2-2.6,0.6s-1.2,0.9-1.7,1.5c-0.3,0.6-0.8,1.2-0.9,2.2
			c-0.2,0.8-0.3,1.7-0.3,2.6c0,0.9,0.2,1.8,0.3,2.6c0.2,0.9,0.6,1.5,1.1,2.2c0.3,0.6,1.1,1.2,1.8,1.5c0.8,0.3,1.7,0.6,2.8,0.6
			s2-0.2,2.6-0.6c0.8-0.3,1.2-0.9,1.7-1.7c0.3-0.6,0.8-1.2,0.9-2.2c0.2-0.9,0.3-1.7,0.3-2.6C652.9,250.5,652.9,249.8,652.5,248.9z"
			/>
		<path fill="#FFFFFF" d="M675.7,260.7c-0.3,0.3-1.2,0.3-2,0.3s-1.2-0.2-1.8-0.6c-0.3-0.3-0.8-1.2-0.8-2c-0.8,1.1-1.8,1.7-2.9,2
			c-1.1,0.3-2.2,0.6-3.7,0.6c-0.8,0-1.7-0.2-2.4-0.3c-0.7-0.1-1.2-0.3-2-0.9c-0.6-0.3-0.9-0.9-1.2-1.5s-0.3-1.5-0.3-2.4
			c0-1.1,0.2-2,0.6-2.6c0.3-0.6,0.8-1.2,1.2-1.7c0.6-0.3,1.2-0.8,2-0.9c0.8-0.2,1.5-0.3,2.2-0.6s1.7-0.3,2.4-0.3
			c0.8-0.2,1.2-0.2,2-0.3s1.1-0.3,1.2-0.6c0.3-0.3,0.3-0.8,0.3-1.2s-0.2-1.2-0.3-1.7c-0.3-0.3-0.6-0.8-0.9-0.9
			c-0.3-0.2-0.8-0.3-1.2-0.3c-0.3,0-0.9-0.2-1.5-0.2c-1.2,0-2.2,0.3-3.1,0.8c-0.9,0.3-1.2,1.2-1.2,2.8h-2.9c0-1.2,0.3-2,0.8-2.9
			c0.4-0.9,1.1-1.2,1.7-2c0.8-0.3,1.5-0.9,2.4-1.1s1.8-0.3,2.9-0.3c0.8,0,1.7,0,2.4,0.2c0.8,0.2,1.5,0.3,2.2,0.8
			c0.6,0.3,1.2,0.9,1.7,1.5c0.3,0.6,0.6,1.5,0.6,2.6v9.4c0,0.8,0,1.2,0.2,1.5s0.3,0.3,0.9,0.3c0.3,0,0.6,0,0.9-0.2L675.7,260.7
			L675.7,260.7z M671,251.3c-0.3,0.3-0.9,0.3-1.5,0.6c-0.6,0.2-1.2,0.3-2,0.3s-1.2,0.2-2,0.3s-1.2,0.3-1.8,0.3
			c-0.6,0.3-1.1,0.6-1.2,1.1c-0.3,0.3-0.3,1.1-0.3,1.8c0,0.3,0.2,0.9,0.3,1.2c0.2,0.3,0.3,0.6,0.8,0.8c0.3,0.2,0.8,0.3,1.1,0.3
			c0.3,0.2,0.9,0.2,1.2,0.2c1.1,0,1.8-0.2,2.6-0.3c0.8-0.3,1.2-0.6,1.8-1.1c0.3-0.3,0.8-0.9,1.1-1.2c0.2-0.3,0.3-0.9,0.3-1.2
			L671,251.3L671,251.3z"/>
		<path fill="#FFFFFF" d="M681.3,242.5v3.8l0,0c0.8-1.5,1.7-2.6,2.8-3.4c1.1-0.8,2.4-1.1,4-1.1v3.1c-1.2,0-2.2,0.2-2.9,0.3
			c-0.9,0.3-1.5,0.8-2,1.5c-0.3,0.6-0.9,1.2-1.2,2.2c-0.3,0.9-0.3,2-0.3,3.1v8.1h-2.9v-18.3h2.8v0.6L681.3,242.5L681.3,242.5z"/>
		<path fill="#FFFFFF" d="M703.2,242.5v2.4l0,0c0.3-1.1,1.2-1.8,2.2-2.2c0.9-0.3,2.2-0.8,3.5-0.8s2.8,0.3,3.7,0.8
			c0.9,0.3,2,1.2,2.6,2c0.8,0.9,1.2,2,1.5,2.9c0.3,1.2,0.6,2.4,0.6,3.7c0,1.2-0.2,2.6-0.3,3.7c-0.3,1.1-0.9,2-1.5,2.9
			c-0.8,0.9-1.5,1.5-2.6,2c-1.1,0.6-2.2,0.8-3.7,0.8c-0.3,0-0.9,0-1.5-0.2s-1.1-0.3-1.7-0.3c-0.6-0.2-1.1-0.3-1.5-0.9
			c-0.3-0.3-0.9-0.8-1.2-1.2l0,0v9.4h-3v-25.3h2.9V242.5z M714.1,248.9c-0.2-0.8-0.6-1.5-1.1-2c-0.6-0.6-1.1-1.2-1.8-1.5
			c-0.8-0.3-1.5-0.6-2.6-0.6s-1.8,0.2-2.6,0.6s-1.2,0.9-1.7,1.5c-0.3,0.6-0.8,1.2-0.9,2.2c-0.2,0.8-0.3,1.7-0.3,2.6
			c0,0.9,0.2,1.8,0.3,2.6c0.2,0.9,0.6,1.5,1.1,2.2c0.3,0.6,1.1,1.2,1.8,1.5c0.8,0.3,1.7,0.6,2.8,0.6s2-0.2,2.6-0.6
			c0.8-0.3,1.2-0.9,1.7-1.7c0.3-0.6,0.8-1.2,0.9-2.2c0.2-0.9,0.3-1.7,0.3-2.6C714.5,250.5,714.2,249.8,714.1,248.9z"/>
		<path fill="#FFFFFF" d="M723.9,242.5v3.8l0,0c0.8-1.5,1.7-2.6,2.8-3.4c1.1-0.8,2.4-1.1,4-1.1v3.1c-1.2,0-2.2,0.2-2.9,0.3
			c-0.9,0.3-1.5,0.8-2,1.5c-0.3,0.6-0.9,1.2-1.2,2.2s-0.3,2-0.3,3.1v8.1h-2.9v-18.3h2.8v0.6L723.9,242.5L723.9,242.5z"/>
		<path fill="#FFFFFF" d="M731.8,247.7c0.3-1.2,0.9-2,1.7-2.9s1.7-1.5,2.9-2c1.1-0.3,2.4-0.8,3.7-0.8c1.5,0,2.8,0.3,3.7,0.8
			c0.9,0.3,2,1.2,2.8,2c0.8,0.9,1.2,1.8,1.7,2.9c0.3,1.2,0.6,2.4,0.6,3.7c0,1.2-0.2,2.6-0.6,3.7c-0.3,1.2-0.9,2-1.7,2.9
			s-1.7,1.5-2.8,2c-1.1,0.3-2.4,0.8-3.7,0.8c-1.5,0-2.8-0.3-3.7-0.8c-0.9-0.3-2-1.2-2.9-2c-0.8-0.9-1.2-1.8-1.7-2.9
			c-0.3-1.2-0.6-2.4-0.6-3.7C731.2,250.2,731.4,249.1,731.8,247.7z M734.8,254.6c0.3,0.9,0.8,1.5,1.2,2c0.3,0.6,1.1,1.1,1.8,1.2
			c0.8,0.3,1.5,0.3,2.2,0.3s1.5-0.2,2.2-0.3c0.8-0.3,1.2-0.8,1.8-1.2c0.6-0.6,0.9-1.2,1.2-2s0.3-1.8,0.3-2.9s-0.2-2-0.3-2.9
			c-0.3-0.9-0.8-1.7-1.2-2c-0.3-0.6-1.1-1.1-1.8-1.2c-0.8-0.3-1.5-0.3-2.2-0.3s-1.5,0.2-2.2,0.3c-0.8,0.3-1.2,0.8-1.8,1.2
			c-0.6,0.6-0.9,1.2-1.2,2c-0.3,0.9-0.3,1.8-0.3,2.9C734.4,252.8,734.6,253.7,734.8,254.6z"/>
		<path fill="#FFFFFF" d="M754.5,266.4c-0.8,0.8-1.8,1.1-3.1,1.1c-0.6,0-1.1,0-1.5-0.2v-2.6c0.2,0,0.2,0,0.3,0c0.2,0,0.2,0,0.3,0
			h0.6c0.6,0,1.1-0.2,1.2-0.6c0.3-0.3,0.3-1.1,0.3-2V242h2.9v20.9C755.6,264.7,755.3,265.8,754.5,266.4z M752.7,239.1v-3.7h2.9v3.7
			H752.7z"/>
		<path fill="#FFFFFF" d="M773.4,259.5c-1.2,1.1-2.9,1.5-5.2,1.5c-1.5,0-2.8-0.3-3.7-0.8c-1.1-0.3-2-1.2-2.8-2
			c-0.8-0.9-1.2-1.8-1.7-2.9c-0.3-1.2-0.6-2.4-0.6-3.8c0-1.2,0.2-2.8,0.6-3.7c0.3-1.2,1.1-2,1.8-2.9s1.7-1.5,2.8-2
			c1.1-0.3,2.2-0.8,3.5-0.8c1.7,0,2.9,0.3,4,1.1c1.1,0.6,2,1.5,2.6,2.6s1.1,2,1.2,3.5c0.3,1.2,0.3,2.4,0.3,3.5h-13.6
			c0,0.8,0,1.5,0.3,2.2c0.2,0.8,0.6,1.2,1.1,2c0.3,0.6,1.1,1.1,1.8,1.2c0.8,0.3,1.7,0.3,2.6,0.3c1.2,0,2.2-0.3,3.1-0.9
			c0.8-0.6,1.2-1.5,1.7-2.8h2.9C775.5,257,774.6,258.5,773.4,259.5z M772.3,247.7c-0.3-0.6-0.6-1.2-1.1-1.7
			c-0.3-0.3-1.1-0.8-1.7-1.1c-0.6-0.3-1.2-0.3-2-0.3s-1.5,0.2-2,0.3c-0.6,0.3-1.2,0.6-1.7,1.1c-0.3,0.3-0.8,1.1-1.1,1.7
			c-0.3,0.6-0.3,1.2-0.3,2H773C772.9,249.2,772.8,248.5,772.3,247.7z"/>
		<path fill="#FFFFFF" d="M787.2,242.5v2.8h-3.7v11.2c0,0.3,0,0.6,0.2,0.9c0,0.2,0.2,0.3,0.3,0.3c0.2,0.2,0.3,0.2,0.8,0.3
			c0.3,0,0.6,0,1.2,0h1.2v2.8h-2.4c-0.8,0-1.5,0-2-0.2c-0.6-0.2-1.1-0.3-1.2-0.6c-0.3-0.3-0.6-0.8-0.8-1.2c-0.2-0.6-0.3-1.2-0.3-2
			v-11.6h-3.1v-2.8h3.1V237h2.9v5.4h3.8V242.5z"/>
		<path fill="#FFFFFF" d="M795.1,256.8v3.8h-3.8v-3.8H795.1z"/>
	</g>
</g>
</svg>
