<?xml version="1.0" encoding="utf-8"?>
<!-- Generator: Adobe Illustrator 18.1.1, SVG Export Plug-In . SVG Version: 6.00 Build 0)  -->
<svg version="1.1" id="Calque_1" xmlns="http://www.w3.org/2000/svg" xmlns:xlink="http://www.w3.org/1999/xlink" x="0px" y="0px"
	 viewBox="-21.8 310.5 729.6 192.4" enable-background="new -21.8 310.5 729.6 192.4" xml:space="preserve">
<g id="Calque_1_1_" display="none">
	
		<image display="inline" overflow="visible" enable-background="new    " width="1029" height="506" xlink:href="FAFA89CC4AA4689A.png"  transform="matrix(6.077997e-02 0 0 6.077997e-02 20.2649 1113.9609)">
	</image>
</g>
<g id="Calque_4">
	<rect x="-11.3" y="320.4" fill="#256583" stroke="#050506" stroke-miterlimit="10" width="711.3" height="169"/>
</g>
<g id="init" display="none">
	<path display="inline" fill="#F6F6F6" stroke="#050506" stroke-miterlimit="10" d="M62.2,1128.5c0,0,10.1,0,10.6,0
		c0.6,0,0.7,0.5,0.7,0.5l-0.1,11.9c-0.1,0.7-0.8,0.3-0.8,0.3l-10.6-3.8c-0.3-0.1-0.4-0.5-0.4-0.5s0-7.7,0-8.1
		C61.6,1128.4,62.2,1128.5,62.2,1128.5z"/>
	<path display="inline" fill="#F6F6F6" stroke="#050506" stroke-miterlimit="10" d="M61.2,1120.4c0,0,14.2,0,15.4,0
		c0.7,0,0.9,0.7,0.9,0.7s0,13.8,0,14.7s-1.1,0.6-1.1,0.6l-15.2-3.4c-0.5-0.1-0.5-0.8-0.5-0.8s0-10.7,0-11.2S61.2,1120.4,61.2,1120.4
		z"/>
	<path display="inline" fill="#F6F6F6" stroke="#050506" stroke-miterlimit="10" d="M58.7,1127.3c0-0.5,0.5-0.5,0.5-0.5l7-0.8
		c0.3-0.1,0.3,0.2,0.3,0.2s0,5.2,0,5.4c0,0.3-0.2,0.3-0.2,0.3s-6.9,2.2-7.2,2.3c-0.3,0.1-0.4-0.2-0.4-0.2V1127.3L58.7,1127.3z"/>
</g>
<g id="fusion">
	<path opacity="0.75" fill="#FFFFFF" stroke="#FFFFFF" stroke-miterlimit="10" enable-background="new    " d="M25.1,392.4
		c0,0,60.6,0,63.9,0c3.3,0,4.4,3,4.4,3l-0.3,71.7c-0.4,4.2-4.5,1.6-4.5,1.6l-63.4-22.5c-2.1-0.4-2.2-2.9-2.2-2.9s0-46.2,0-48.4
		C22.9,392.8,25.1,392.4,25.1,392.4z"/>
	<path opacity="0.75" fill="#FFFFFF" stroke="#FFFFFF" stroke-miterlimit="10" enable-background="new    " d="M18.9,344.2
		c0,0,85,0,92.2,0c4.5,0,5.3,4.2,5.3,4.2s0,82.7,0,88.2c0,5.6-6.4,3.4-6.4,3.4l-91.2-20.1c-2.9-0.7-2.8-4.8-2.8-4.8s0-64,0-67.4
		C16.1,344.4,18.9,344.2,18.9,344.2z"/>
	<path opacity="0.75" fill="#FFFFFF" stroke="#FFFFFF" stroke-miterlimit="10" enable-background="new    " d="M3.9,385.6
		c0-2.8,2.9-3,2.9-3l42-5c1.7-0.4,1.7,0.9,1.7,0.9s0,30.9,0,32.7s-1.2,1.8-1.2,1.8S7.8,426.1,6.4,426.6c-1.5,0.5-2.5-0.9-2.5-0.9
		V385.6z"/>
</g>
<g id="logo" display="none">
	<path display="inline" opacity="0.81" fill="#FFFFFF" stroke="#FFFFFF" stroke-miterlimit="10" enable-background="new    " d="
		M25.1,1116.4c0,0,60.6,0,63.9,0c3.3,0,4.4,3,4.4,3l-0.3,71.7c-0.4,4.2-4.5,1.6-4.5,1.6l-63.4-22.5c-2.1-0.4-2.2-2.9-2.2-2.9
		s0-46.2,0-48.4C22.9,1116.8,25.1,1116.4,25.1,1116.4z"/>
	<path display="inline" opacity="0.81" fill="#FFFFFF" stroke="#FFFFFF" stroke-miterlimit="10" enable-background="new    " d="
		M18.9,1068.2c0,0,85,0,92.2,0c4.5,0,5.3,4.2,5.3,4.2s0,82.7,0,88.2c0,5.6-6.4,3.4-6.4,3.4l-91.2-20.1c-2.9-0.7-2.8-4.8-2.8-4.8
		s0-64,0-67.4C16.1,1068.4,18.9,1068.2,18.9,1068.2z"/>
	<path display="inline" opacity="0.81" fill="#FFFFFF" stroke="#FFFFFF" stroke-miterlimit="10" enable-background="new    " d="
		M3.9,1109.6c0-2.8,2.9-3,2.9-3l42-5c1.7-0.4,1.7,0.9,1.7,0.9s0,30.9,0,32.7s-1.2,1.8-1.2,1.8s-41.5,13.1-42.9,13.6
		c-1.5,0.5-2.5-0.9-2.5-0.9V1109.6z"/>
</g>
<g id="text">
	
		<text transform="matrix(1 0 0 1 132.9419 392.2103)" opacity="0.45" fill="#BDBCBC" enable-background="new    " font-family="'Podkova'" font-size="57.1488">ISEP.app</text>
	<text transform="matrix(1 0 0 1 130.5869 390.0598)" fill="#FFFFFF" font-family="'Podkova'" font-size="57.1488">ISEP.app</text>
</g>
<g id="phrase" opacity="0.75">
	<rect x="132.1" y="393.8" fill="none" width="463.1" height="68.1"/>
	<text transform="matrix(1 0 0 1 132.1172 431.6633)" fill="#FFFFFF" font-family="'HelveticaNeue'" font-size="23.4718">Gestion de l’apprentissage par projet. </text>
</g>
</svg>
