<?xml version="1.0" encoding="utf-8"?>
<!-- Generator: Adobe Illustrator 18.1.1, SVG Export Plug-In . SVG Version: 6.00 Build 0)  -->
<svg version="1.1" id="Calque_1" xmlns="http://www.w3.org/2000/svg" xmlns:xlink="http://www.w3.org/1999/xlink" x="0px" y="0px"
	 viewBox="9 661 580.3 137.9" enable-background="new 9 661 580.3 137.9" xml:space="preserve">
<g id="Calque_1_1_" display="none">
	
		<image display="inline" overflow="visible" enable-background="new    " width="1029" height="506" xlink:href="FAFA89CC4AA46899.png"  transform="matrix(4.959033e-02 0 0 4.959033e-02 12.5207 1308.4987)">
	</image>
</g>
<g id="Calque_4" display="none">
	<rect x="9" y="661" display="inline" fill="#256583" stroke="#050506" stroke-miterlimit="10" width="580.3" height="137.9"/>
</g>
<g id="init" display="none">
	<path display="inline" fill="#F6F6F6" stroke="#050506" stroke-miterlimit="10" d="M46.7,1320.4c0,0,8.2,0,8.6,0
		c0.5,0,0.6,0.4,0.6,0.4l-0.1,9.7c-0.1,0.6-0.7,0.2-0.7,0.2l-8.6-3.1c-0.2-0.1-0.3-0.4-0.3-0.4s0-6.3,0-6.6S46.7,1320.4,46.7,1320.4
		z"/>
	<path display="inline" fill="#F6F6F6" stroke="#050506" stroke-miterlimit="10" d="M45.9,1313.8c0,0,11.6,0,12.6,0
		c0.6,0,0.7,0.6,0.7,0.6s0,11.3,0,12s-0.9,0.5-0.9,0.5l-12.4-2.8c-0.4-0.1-0.4-0.7-0.4-0.7s0-8.7,0-9.1S45.9,1313.8,45.9,1313.8z"/>
	<path display="inline" fill="#F6F6F6" stroke="#050506" stroke-miterlimit="10" d="M43.9,1319.4c0-0.4,0.4-0.4,0.4-0.4l5.7-0.7
		c0.2-0.1,0.2,0.2,0.2,0.2s0,4.2,0,4.4c0,0.2-0.2,0.2-0.2,0.2s-5.6,1.8-5.9,1.9c-0.2,0.1-0.3-0.2-0.3-0.2V1319.4L43.9,1319.4z"/>
</g>
<g id="fusion">
	<path opacity="0.75" fill="#FFFFFF" stroke="#FFFFFF" stroke-miterlimit="10" enable-background="new    " d="M38.7,719.8
		c0,0,49.4,0,52.1,0c2.7,0,3.6,2.4,3.6,2.4l-0.2,58.5c-0.3,3.4-3.7,1.3-3.7,1.3l-51.7-18.4c-1.7-0.3-1.8-2.4-1.8-2.4s0-37.7,0-39.5
		C36.9,720.1,38.7,719.8,38.7,719.8z"/>
	<path opacity="0.75" fill="#FFFFFF" stroke="#FFFFFF" stroke-miterlimit="10" enable-background="new    " d="M33.6,680.5
		c0,0,69.4,0,75.2,0c3.7,0,4.3,3.4,4.3,3.4s0,67.5,0,72c0,4.6-5.2,2.8-5.2,2.8l-74.4-16.4c-2.4-0.6-2.3-3.9-2.3-3.9s0-52.2,0-55
		C31.4,680.6,33.6,680.5,33.6,680.5z"/>
	<path opacity="0.75" fill="#FFFFFF" stroke="#FFFFFF" stroke-miterlimit="10" enable-background="new    " d="M21.4,714.2
		c0-2.3,2.4-2.4,2.4-2.4l34.3-4.1c1.4-0.3,1.4,0.7,1.4,0.7s0,25.2,0,26.7s-1,1.5-1,1.5s-33.9,10.7-35,11.1c-1.2,0.4-2-0.7-2-0.7
		V714.2z"/>
</g>
<g id="logo" display="none">
	<path display="inline" opacity="0.81" fill="#FFFFFF" stroke="#FFFFFF" stroke-miterlimit="10" enable-background="new    " d="
		M16.5,1310.5c0,0,49.4,0,52.1,0s3.6,2.4,3.6,2.4l-0.2,58.5c-0.3,3.4-3.7,1.3-3.7,1.3l-51.7-18.4c-1.7-0.3-1.8-2.4-1.8-2.4
		s0-37.7,0-39.5C14.7,1310.8,16.5,1310.5,16.5,1310.5z"/>
	<path display="inline" opacity="0.81" fill="#FFFFFF" stroke="#FFFFFF" stroke-miterlimit="10" enable-background="new    " d="
		M11.4,1271.2c0,0,69.4,0,75.2,0c3.7,0,4.3,3.4,4.3,3.4s0,67.5,0,72c0,4.6-5.2,2.8-5.2,2.8l-74.4-16.4C9,1332.4,9,1329,9,1329
		s0-52.2,0-55C9.1,1271.3,11.4,1271.2,11.4,1271.2z"/>
	<path display="inline" opacity="0.81" fill="#FFFFFF" stroke="#FFFFFF" stroke-miterlimit="10" enable-background="new    " d="
		M-0.8,1304.9c0-2.3,2.4-2.4,2.4-2.4l34.3-4.1c1.4-0.3,1.4,0.7,1.4,0.7s0,25.2,0,26.7c0,1.5-1,1.5-1,1.5s-33.9,10.7-35,11.1
		c-1.2,0.4-2-0.7-2-0.7S-0.8,1304.9-0.8,1304.9z"/>
</g>
<g id="text">
	<g opacity="0.45" enable-background="new    ">
		<path fill="#BDBCBC" d="M132.1,685.6h18.1v4.6h-6.3l-0.1,30.3h6.5v4.6H132v-4.6h6.5v-30.3h-6.3V685.6z"/>
		<path fill="#BDBCBC" d="M181.6,714.3c0-0.7-0.1-1.4-0.2-2.1c-0.1-0.7-0.5-1.3-0.9-1.9s-1.2-1.1-2.1-1.4c-0.9-0.5-2.1-0.7-3.5-0.9
			l-5.1-0.7c-2.1-0.2-3.9-0.7-5.4-1.5c-1.5-0.7-2.7-1.6-3.8-2.7c-0.9-1.1-1.6-2.2-2.1-3.6c-0.5-1.3-0.7-2.8-0.7-4.2s0.2-2.7,0.8-4
			c0.6-1.3,1.4-2.5,2.6-3.4c1.2-0.9,2.6-1.8,4.5-2.3c1.8-0.6,3.9-0.9,6.3-0.9c2,0,3.8,0.1,5.3,0.4c1.5,0.2,2.8,0.6,3.9,0.8
			s1.9,0.6,2.5,0.9c0.6,0.2,0.9,0.5,0.8,0.5l1.2,8.2l-4.2,0.5l-0.9-5.4c-0.9-0.4-2.1-0.6-3.5-0.9c-1.4-0.4-3.1-0.5-5.1-0.5
			c-1.3,0-2.6,0.1-3.6,0.4s-2,0.7-2.8,1.2s-1.4,1.2-1.8,1.9c-0.4,0.7-0.6,1.6-0.6,2.6c0,1.9,0.6,3.4,1.8,4.5c1.2,1.1,2.7,1.8,4.7,2
			l6.1,0.9c2.2,0.4,4.1,0.8,5.5,1.5c1.4,0.7,2.6,1.5,3.4,2.6c0.8,0.9,1.4,2,1.8,3.3c0.4,1.2,0.5,2.3,0.5,3.6c0,2.2-0.4,4.1-1.1,5.8
			s-1.8,2.9-3.1,3.9c-1.3,0.9-2.8,1.8-4.6,2.2c-1.8,0.5-3.8,0.7-6,0.7c-1.8,0-3.5-0.2-5.2-0.6c-1.6-0.4-3.2-0.7-4.5-0.9
			c-1.3-0.2-2.3-0.6-3.2-0.9c-0.8-0.4-1.3-0.5-1.4-0.6l-1.3-7.5l4.5-0.7l0.8,4.7c0.7,0.2,1.4,0.5,2.2,0.7c0.8,0.2,1.5,0.5,2.3,0.6
			c0.8,0.1,1.6,0.4,2.5,0.5c0.8,0.1,1.5,0.2,2.3,0.2c1.4,0,2.7-0.1,3.9-0.4s2.2-0.7,3.2-1.2c0.9-0.6,1.6-1.3,2.2-2.2
			C181.1,716.6,181.6,715.7,181.6,714.3z"/>
		<path fill="#BDBCBC" d="M228.4,714.7l-3.5,10.3h-31.1v-4.6h6.3l0.1-30.3h-6.3v-4.6h29.7l3.5,10.3l-4.5,1.5l-2.7-7.2h-14.3v12.2
			h12.6v4.6h-12.6l-0.1,13.5h15.7l2.7-7.2L228.4,714.7z"/>
		<path fill="#BDBCBC" d="M234.5,720.5h6.2v-30.3h-6.2v-4.6h17.9c2.7,0,5.1,0.2,6.9,0.7c1.9,0.5,3.4,1.3,4.6,2.2
			c1.2,0.9,2,2.2,2.5,3.8c0.5,1.5,0.8,3.3,0.8,5.3s-0.4,3.8-0.9,5.3c-0.6,1.5-1.5,2.9-2.7,4c-1.2,1.1-2.6,2-4.2,2.6
			s-3.5,0.9-5.4,0.9h-7.5v10h8v4.6h-19.6v-4.5H234.5z M246.1,705.7h6.1c0.9,0,2-0.1,3.1-0.4c1.1-0.2,2-0.6,2.9-1.2
			c0.9-0.6,1.6-1.4,2.2-2.5c0.6-1.1,0.9-2.3,0.9-4.1c0-1.6-0.2-2.9-0.6-3.9s-0.9-1.8-1.8-2.2c-0.8-0.6-1.8-0.9-2.8-1.1
			c-1.2-0.1-2.5-0.2-3.9-0.2h-6v15.5H246.1z"/>
		<path fill="#BDBCBC" d="M278.3,721.9c0,0.6-0.1,1.1-0.4,1.6s-0.6,0.9-0.9,1.3c-0.4,0.4-0.8,0.7-1.3,0.9s-1.1,0.4-1.5,0.4
			c-0.6,0-1.1-0.1-1.6-0.4c-0.5-0.2-0.9-0.5-1.3-0.9c-0.4-0.5-0.7-0.8-0.9-1.3s-0.4-1.1-0.4-1.6s0.1-1.1,0.4-1.6
			c0.2-0.5,0.5-0.9,0.9-1.3s0.8-0.7,1.3-0.9c0.5-0.2,1.1-0.4,1.6-0.4c0.6,0,1.1,0.1,1.5,0.4s0.9,0.6,1.3,0.9
			c0.4,0.4,0.7,0.8,0.9,1.3C278.2,720.8,278.3,721.4,278.3,721.9z"/>
		<path fill="#BDBCBC" d="M287.1,703.2l1.1-6.1c0.8-0.4,1.8-0.7,2.8-0.9c0.8-0.2,1.9-0.5,3.1-0.7c1.2-0.2,2.5-0.4,3.9-0.4
			c2,0,3.8,0.2,5.1,0.6c1.4,0.4,2.6,0.9,3.4,1.5c0.9,0.6,1.6,1.4,2.1,2.2c0.5,0.8,0.8,1.8,1.1,2.7c0.2,0.9,0.4,1.9,0.4,2.9
			s0.1,2,0.1,2.9v11.7l6.3,2.1l-1.3,4.2l-9-3.1c-1.2,0.8-2.5,1.4-4.1,2c-1.5,0.6-3.4,0.9-5.4,0.9c-1.8,0-3.4-0.2-4.8-0.7
			c-1.4-0.5-2.6-1.1-3.6-1.9s-1.8-1.8-2.2-2.8c-0.5-1.1-0.8-2.2-0.8-3.5c0-1.5,0.2-2.9,0.8-4c0.6-1.1,1.4-2,2.3-2.7
			c0.9-0.7,2.2-1.2,3.5-1.5c1.4-0.4,2.8-0.5,4.3-0.5l8.7,0.1V708c0-0.6,0-1.2,0-1.8s0-1.3-0.1-1.9c-0.1-0.6-0.2-1.2-0.5-1.8
			c-0.2-0.6-0.6-1.1-1.1-1.5c-0.5-0.5-1.2-0.8-2-1.1s-1.9-0.4-3.1-0.4c-1.4,0-2.7,0.1-3.6,0.2c-1.1,0.1-1.9,0.4-2.3,0.5l-0.7,3.8
			L287.1,703.2z M296.9,721.8c0.9,0,1.9-0.1,2.7-0.2c0.8-0.1,1.5-0.4,2.2-0.6c0.7-0.2,1.3-0.6,1.8-0.8c0.5-0.4,0.9-0.6,1.3-0.8v-6.6
			l-8.6-0.1c-0.8,0-1.5,0-2.2,0.1c-0.7,0.1-1.3,0.4-1.9,0.6c-0.6,0.4-1.1,0.7-1.3,1.4c-0.4,0.6-0.5,1.4-0.5,2.3
			c0,0.8,0.1,1.5,0.5,2.1s0.8,1.1,1.4,1.5c0.6,0.4,1.3,0.7,2.1,0.8C295.2,721.7,296,721.8,296.9,721.8z"/>
		<path fill="#BDBCBC" d="M334.9,739h-16.6v-4.1h5.6v-33.6l-6.2-2.1l1.3-4.1l9,3.1c0.5-0.4,1.2-0.7,1.8-1.1c0.7-0.4,1.4-0.7,2.1-0.9
			c0.8-0.2,1.5-0.5,2.3-0.7c0.8-0.1,1.6-0.2,2.6-0.2c2.1,0,4.1,0.4,5.9,0.9c1.8,0.6,3.3,1.5,4.6,2.8s2.2,2.7,2.9,4.6
			c0.7,1.8,1.1,3.9,1.1,6.2s-0.4,4.6-1.1,6.6c-0.7,2-1.8,3.8-3.1,5.2s-2.8,2.6-4.6,3.4c-1.8,0.8-3.8,1.2-6,1.2
			c-1.5,0-2.8-0.1-4.1-0.4c-1.2-0.2-2.3-0.5-3.3-0.8v10h5.6V739z M336.7,721.8c1.5,0,2.9-0.4,4-0.9c1.1-0.6,2.1-1.4,2.9-2.5
			c0.8-1.1,1.4-2.3,1.8-3.8c0.4-1.4,0.6-3.1,0.6-4.8c0-6.8-3.1-10.2-9-10.2c-1.2,0-2.2,0.1-3.2,0.4c-0.9,0.2-1.8,0.6-2.3,0.8
			c-0.8,0.4-1.4,0.8-2,1.3v18.1c0.6,0.4,1.2,0.6,1.9,0.8c0.6,0.2,1.4,0.5,2.3,0.6C334.4,721.7,335.5,721.8,336.7,721.8z"/>
		<path fill="#BDBCBC" d="M372.6,739h-16.6v-4.1h5.6v-33.6l-6.2-2.1l1.3-4.1l9,3.1c0.5-0.4,1.2-0.7,1.8-1.1c0.7-0.4,1.4-0.7,2.1-0.9
			c0.8-0.2,1.5-0.5,2.3-0.7c0.8-0.1,1.6-0.2,2.6-0.2c2.1,0,4.1,0.4,5.9,0.9c1.8,0.6,3.3,1.5,4.6,2.8s2.2,2.7,2.9,4.6
			c0.7,1.8,1.1,3.9,1.1,6.2s-0.4,4.6-1.1,6.6s-1.8,3.8-3.1,5.2c-1.3,1.4-2.8,2.6-4.6,3.4c-1.8,0.8-3.8,1.2-6,1.2
			c-1.5,0-2.8-0.1-4.1-0.4c-1.2-0.2-2.3-0.5-3.3-0.8v10h5.6V739z M374.3,721.8c1.5,0,2.9-0.4,4-0.9c1.1-0.6,2.1-1.4,2.9-2.5
			c0.8-1.1,1.4-2.3,1.8-3.8c0.4-1.4,0.6-3.1,0.6-4.8c0-6.8-3.1-10.2-9-10.2c-1.2,0-2.2,0.1-3.2,0.4c-0.9,0.2-1.8,0.6-2.3,0.8
			c-0.8,0.4-1.4,0.8-2,1.3v18.1c0.6,0.4,1.2,0.6,1.9,0.8c0.6,0.2,1.4,0.5,2.3,0.6C372,721.7,373.1,721.8,374.3,721.8z"/>
	</g>
	<g enable-background="new    ">
		<path fill="#FFFFFF" d="M129.3,683h18.1v4.6h-6.3l-0.1,30.3h6.5v4.6h-18.2v-4.6h6.5v-30.3h-6.3V683z"/>
		<path fill="#FFFFFF" d="M178.9,711.8c0-0.7-0.1-1.4-0.2-2.1c-0.1-0.7-0.5-1.3-0.9-1.9c-0.5-0.6-1.2-1.1-2.1-1.4
			c-0.9-0.5-2.1-0.7-3.5-0.9l-5.1-0.7c-2.1-0.2-3.9-0.7-5.4-1.5c-1.5-0.7-2.7-1.6-3.8-2.7c-0.9-1.1-1.6-2.2-2.1-3.6
			c-0.5-1.3-0.7-2.8-0.7-4.2s0.2-2.7,0.8-4c0.6-1.3,1.4-2.5,2.6-3.4c1.2-0.9,2.6-1.8,4.5-2.3c1.8-0.6,3.9-0.9,6.3-0.9
			c2,0,3.8,0.1,5.3,0.4c1.5,0.2,2.8,0.6,3.9,0.8s1.9,0.6,2.5,0.9c0.6,0.2,0.9,0.5,0.8,0.5l1.2,8.2l-4.2,0.5l-0.9-5.4
			c-0.9-0.4-2.1-0.6-3.5-0.9c-1.4-0.4-3.1-0.5-5.1-0.5c-1.3,0-2.6,0.1-3.6,0.4c-1.1,0.2-2,0.7-2.8,1.2c-0.8,0.5-1.4,1.2-1.8,1.9
			c-0.4,0.7-0.6,1.6-0.6,2.6c0,1.9,0.6,3.4,1.8,4.5c1.2,1.1,2.7,1.8,4.7,2l6.1,0.9c2.2,0.4,4.1,0.8,5.5,1.5c1.4,0.7,2.6,1.5,3.4,2.6
			c0.8,0.9,1.4,2,1.8,3.3c0.4,1.2,0.5,2.3,0.5,3.6c0,2.2-0.4,4.1-1.1,5.8s-1.8,2.9-3.1,3.9c-1.3,0.9-2.8,1.8-4.6,2.2s-3.8,0.7-6,0.7
			c-1.8,0-3.5-0.2-5.2-0.6c-1.6-0.4-3.2-0.7-4.5-0.9c-1.3-0.2-2.3-0.6-3.2-0.9c-0.8-0.4-1.3-0.5-1.4-0.6l-1.3-7.5l4.5-0.7l0.8,4.7
			c0.7,0.2,1.4,0.5,2.2,0.7c0.8,0.2,1.5,0.5,2.3,0.6s1.6,0.4,2.5,0.5c0.8,0.1,1.5,0.2,2.3,0.2c1.4,0,2.7-0.1,3.9-0.4
			s2.2-0.7,3.2-1.2c0.9-0.6,1.6-1.3,2.2-2.2C178.4,714.1,178.9,713.1,178.9,711.8z"/>
		<path fill="#FFFFFF" d="M225.7,712.3l-3.5,10.3H191V718h6.3l0.1-30.3h-6.3v-4.6h29.7l3.5,10.3l-4.5,1.5l-2.7-7.2h-14.3V700h12.6
			v4.6h-12.6l-0.1,13.5h15.7l2.7-7.2L225.7,712.3z"/>
		<path fill="#FFFFFF" d="M231.6,717.9h6.2v-30.3h-6.2V683h17.9c2.7,0,5.1,0.2,6.9,0.7c1.9,0.5,3.4,1.3,4.6,2.2
			c1.2,0.9,2,2.2,2.5,3.8c0.5,1.5,0.8,3.3,0.8,5.3c0,2-0.4,3.8-0.9,5.3c-0.6,1.5-1.5,2.9-2.7,4c-1.2,1.1-2.6,2-4.2,2.6
			c-1.6,0.6-3.5,0.9-5.4,0.9h-7.5v10h8v4.6h-19.6v-4.5H231.6z M243.4,703.2h6.1c0.9,0,2-0.1,3.1-0.4c1.1-0.2,2-0.6,2.9-1.2
			c0.9-0.6,1.6-1.4,2.2-2.5c0.6-1.1,0.9-2.3,0.9-4.1c0-1.6-0.2-2.9-0.6-3.9c-0.4-0.9-0.9-1.8-1.8-2.2c-0.8-0.6-1.8-0.9-2.8-1.1
			c-1.2-0.1-2.5-0.2-3.9-0.2h-6v15.5H243.4z"/>
		<path fill="#FFFFFF" d="M275.5,719.4c0,0.6-0.1,1.1-0.4,1.6c-0.2,0.6-0.6,0.9-0.9,1.3c-0.4,0.4-0.8,0.7-1.3,0.9s-1.1,0.4-1.5,0.4
			c-0.6,0-1.1-0.1-1.6-0.4c-0.5-0.2-0.9-0.5-1.3-0.9c-0.4-0.5-0.7-0.8-0.9-1.3c-0.2-0.5-0.4-1.1-0.4-1.6s0.1-1.1,0.4-1.6
			c0.2-0.5,0.5-0.9,0.9-1.3c0.5-0.4,0.8-0.7,1.3-0.9c0.5-0.2,1.1-0.4,1.6-0.4c0.6,0,1.1,0.1,1.5,0.4c0.5,0.2,0.9,0.6,1.3,0.9
			c0.4,0.4,0.7,0.8,0.9,1.3C275.3,718.4,275.5,718.8,275.5,719.4z"/>
		<path fill="#FFFFFF" d="M284.3,700.7l1.1-6.1c0.8-0.4,1.8-0.7,2.8-0.9c0.8-0.2,1.9-0.5,3.1-0.7c1.2-0.2,2.5-0.4,3.9-0.4
			c2,0,3.8,0.2,5.1,0.6c1.4,0.4,2.6,0.9,3.4,1.5c0.9,0.6,1.6,1.4,2.1,2.2c0.5,0.8,0.8,1.8,1.1,2.7c0.2,0.9,0.4,1.9,0.4,2.9
			s0.1,2,0.1,2.9v11.7l6.3,2.1l-1.3,4.2l-9-3.1c-1.2,0.8-2.5,1.4-4.1,2c-1.5,0.6-3.4,0.9-5.4,0.9c-1.8,0-3.4-0.2-4.8-0.7
			c-1.4-0.5-2.6-1.1-3.6-1.9s-1.8-1.8-2.2-2.8c-0.5-1.1-0.8-2.2-0.8-3.5c0-1.5,0.2-2.9,0.8-4c0.6-1.1,1.4-2,2.3-2.7
			c0.9-0.7,2.2-1.2,3.5-1.5c1.4-0.4,2.8-0.5,4.3-0.5l8.7,0.1v-0.5c0-0.6,0-1.2,0-1.8s0-1.3-0.1-1.9c-0.1-0.6-0.2-1.2-0.5-1.8
			c-0.2-0.6-0.6-1.1-1.1-1.5c-0.5-0.5-1.2-0.8-2-1.1c-0.8-0.2-1.9-0.4-3.1-0.4c-1.4,0-2.7,0.1-3.6,0.2c-1.1,0.1-1.9,0.4-2.3,0.5
			l-0.7,3.8L284.3,700.7z M294,719.3c0.9,0,1.9-0.1,2.7-0.2c0.8-0.1,1.5-0.4,2.2-0.6c0.7-0.2,1.3-0.6,1.8-0.8
			c0.5-0.4,0.9-0.6,1.3-0.8v-6.6l-8.6-0.1c-0.8,0-1.5,0-2.2,0.1c-0.7,0.1-1.3,0.4-1.9,0.6c-0.6,0.4-1.1,0.7-1.3,1.4
			c-0.4,0.6-0.5,1.4-0.5,2.3c0,0.8,0.1,1.5,0.5,2.1s0.8,1.1,1.4,1.5c0.6,0.4,1.3,0.7,2.1,0.8C292.4,719.2,293.2,719.3,294,719.3z"/>
		<path fill="#FFFFFF" d="M332.1,736.5h-16.6v-4.1h5.6v-33.6l-6.2-2.1l1.3-4.1l9,3.1c0.5-0.4,1.2-0.7,1.8-1.1
			c0.7-0.4,1.4-0.7,2.1-0.9c0.8-0.2,1.5-0.5,2.3-0.7c0.8-0.1,1.6-0.2,2.6-0.2c2.1,0,4.1,0.4,5.9,0.9c1.8,0.6,3.3,1.5,4.6,2.8
			c1.3,1.2,2.2,2.7,2.9,4.6c0.7,1.8,1.1,3.9,1.1,6.2s-0.4,4.6-1.1,6.6s-1.8,3.8-3.1,5.2c-1.3,1.4-2.8,2.6-4.6,3.4
			c-1.8,0.8-3.8,1.2-6,1.2c-1.5,0-2.8-0.1-4.1-0.4c-1.2-0.2-2.3-0.5-3.3-0.8v10h5.6V736.5z M333.9,719.3c1.5,0,2.9-0.4,4-0.9
			c1.2-0.6,2.1-1.4,2.9-2.5c0.8-1.1,1.4-2.3,1.8-3.8c0.4-1.4,0.6-3.1,0.6-4.8c0-6.8-3.1-10.2-9-10.2c-1.2,0-2.2,0.1-3.2,0.4
			c-0.9,0.2-1.8,0.6-2.3,0.8c-0.8,0.4-1.4,0.8-2,1.3v18c0.6,0.4,1.2,0.6,1.9,0.8c0.6,0.2,1.4,0.5,2.3,0.6
			C331.6,719.2,332.7,719.3,333.9,719.3z"/>
		<path fill="#FFFFFF" d="M369.8,736.5h-16.6v-4.1h5.6v-33.6l-6.2-2.1l1.3-4.1l9,3.1c0.5-0.4,1.2-0.7,1.8-1.1
			c0.7-0.4,1.4-0.7,2.1-0.9c0.8-0.2,1.5-0.5,2.3-0.7c0.8-0.1,1.6-0.2,2.6-0.2c2.1,0,4.1,0.4,5.9,0.9c1.8,0.6,3.3,1.5,4.6,2.8
			c1.3,1.3,2.2,2.7,2.9,4.6c0.7,1.8,1.1,3.9,1.1,6.2s-0.4,4.6-1.1,6.6c-0.7,2-1.8,3.8-3.1,5.2s-2.8,2.6-4.6,3.4
			c-1.8,0.8-3.8,1.2-6,1.2c-1.5,0-2.8-0.1-4.1-0.4c-1.2-0.2-2.3-0.5-3.3-0.8v10h5.6V736.5z M371.6,719.3c1.5,0,2.9-0.4,4-0.9
			c1.1-0.6,2.1-1.4,2.9-2.5c0.8-1.1,1.4-2.3,1.8-3.8c0.4-1.4,0.6-3.1,0.6-4.8c0-6.8-3.1-10.2-9-10.2c-1.2,0-2.2,0.1-3.2,0.4
			c-0.9,0.2-1.8,0.6-2.3,0.8c-0.8,0.4-1.4,0.8-2,1.3v18c0.6,0.4,1.2,0.6,1.9,0.8c0.6,0.2,1.4,0.5,2.3,0.6
			C369.3,719.2,370.4,719.3,371.6,719.3z"/>
	</g>
</g>
<g id="phrase" opacity="0.75">
	<rect x="130" y="728.9" fill="none" width="377.8" height="55.6"/>
	<g enable-background="new    ">
		<path fill="#FFFFFF" d="M139.7,759.7c-0.8,0.3-1.6,0.5-2.4,0.5c-1.1,0-2-0.2-2.8-0.6c-0.8-0.4-1.5-0.9-2-1.6
			c-0.6-0.7-1-1.4-1.3-2.2c-0.3-0.8-0.4-1.7-0.4-2.6c0-1,0.2-2,0.4-2.9c0.2-0.9,0.7-1.7,1.2-2.4s1.2-1.2,2-1.6s1.8-0.6,2.9-0.6
			c0.7,0,1.5,0.1,2.1,0.2c0.7,0.2,1.2,0.4,1.8,0.8c0.5,0.4,1,0.8,1.3,1.4c0.3,0.6,0.6,1.2,0.7,2h-1.8c-0.1-0.5-0.2-1-0.5-1.4
			c-0.2-0.4-0.6-0.7-0.9-0.9c-0.3-0.2-0.7-0.4-1.2-0.6c-0.5-0.1-0.9-0.2-1.5-0.2c-0.8,0-1.6,0.2-2.1,0.5c-0.6,0.3-1.1,0.7-1.5,1.3
			c-0.4,0.6-0.7,1.1-0.8,1.9c-0.2,0.7-0.2,1.4-0.2,2.1c0,0.7,0.1,1.4,0.3,2c0.2,0.7,0.5,1.2,0.9,1.7c0.4,0.5,0.9,0.9,1.5,1.2
			c0.6,0.3,1.2,0.5,2,0.5c0.7,0,1.4-0.1,1.9-0.3c0.6-0.2,1-0.6,1.4-1c0.4-0.4,0.7-0.9,0.8-1.4c0.2-0.5,0.2-1.1,0.2-1.7h-4.4v-1.6h6
			v7.2h-1.1l-0.5-1.7C141.2,758.9,140.5,759.4,139.7,759.7z"/>
		<path fill="#FFFFFF" d="M152.8,759.2c-0.7,0.6-1.6,0.8-2.8,0.8c-0.8,0-1.5-0.2-2-0.4c-0.6-0.2-1.1-0.7-1.5-1.1
			c-0.4-0.5-0.7-1-0.9-1.6c-0.2-0.7-0.3-1.3-0.3-2.1c0-0.7,0.1-1.5,0.3-2c0.2-0.6,0.6-1.1,1-1.6c0.4-0.5,0.9-0.8,1.5-1.1
			c0.6-0.2,1.2-0.4,1.9-0.4c0.9,0,1.6,0.2,2.2,0.6c0.6,0.3,1.1,0.8,1.4,1.4s0.6,1.1,0.7,1.9c0.2,0.7,0.2,1.3,0.2,1.9H147
			c0,0.4,0,0.8,0.2,1.2c0.1,0.4,0.3,0.7,0.6,1.1c0.2,0.3,0.6,0.6,1,0.7c0.4,0.2,0.9,0.2,1.4,0.2c0.7,0,1.2-0.2,1.7-0.5
			c0.4-0.3,0.7-0.8,0.9-1.5h1.6C154,757.8,153.5,758.6,152.8,759.2z M152.4,752.8c-0.2-0.3-0.3-0.7-0.6-0.9
			c-0.2-0.2-0.6-0.4-0.9-0.6c-0.3-0.2-0.7-0.2-1.1-0.2c-0.4,0-0.8,0.1-1.1,0.2c-0.3,0.2-0.7,0.3-0.9,0.6c-0.2,0.2-0.4,0.6-0.6,0.9
			s-0.2,0.7-0.2,1.1h5.7C152.6,753.6,152.5,753.2,152.4,752.8z"/>
		<path fill="#FFFFFF" d="M157.3,757.6c0.2,0.2,0.3,0.4,0.6,0.6c0.2,0.2,0.5,0.2,0.8,0.3s0.7,0.1,1,0.1c0.2,0,0.5,0,0.8-0.1
			c0.2,0,0.6-0.1,0.8-0.2c0.2-0.1,0.4-0.2,0.6-0.5c0.2-0.2,0.2-0.5,0.2-0.7c0-0.4-0.2-0.7-0.5-1c-0.3-0.2-0.7-0.4-1.2-0.5
			c-0.5-0.2-1-0.2-1.6-0.3c-0.6-0.1-1.1-0.2-1.6-0.5c-0.5-0.2-0.9-0.5-1.2-0.8s-0.5-0.8-0.5-1.5c0-0.5,0.1-0.9,0.3-1.3
			c0.2-0.3,0.5-0.7,0.9-0.9c0.3-0.2,0.7-0.4,1.2-0.5c0.4-0.1,0.9-0.2,1.3-0.2c0.6,0,1.1,0.1,1.6,0.2c0.5,0.1,0.9,0.2,1.2,0.5
			s0.7,0.6,0.9,1c0.2,0.4,0.3,0.9,0.4,1.5h-1.6c0-0.3-0.1-0.6-0.2-0.8c-0.2-0.2-0.3-0.4-0.6-0.5c-0.2-0.2-0.5-0.2-0.7-0.2
			c-0.2-0.1-0.5-0.1-0.8-0.1c-0.2,0-0.5,0-0.7,0.1c-0.2,0.1-0.5,0.1-0.7,0.2c-0.2,0.1-0.4,0.2-0.5,0.4c-0.2,0.2-0.2,0.4-0.2,0.7
			s0.1,0.5,0.3,0.7c0.2,0.2,0.5,0.3,0.7,0.5c0.3,0.1,0.7,0.2,1.1,0.3c0.4,0.1,0.7,0.2,1.1,0.2c0.4,0.1,0.8,0.2,1.2,0.3
			c0.4,0.2,0.7,0.3,1.1,0.5c0.3,0.2,0.6,0.5,0.7,0.8s0.2,0.7,0.2,1.2c0,0.6-0.2,1.1-0.4,1.5c-0.2,0.4-0.6,0.7-1,1
			c-0.4,0.2-0.8,0.4-1.4,0.5s-1,0.2-1.5,0.2c-0.6,0-1.1-0.1-1.6-0.2s-1-0.3-1.3-0.6c-0.4-0.2-0.7-0.6-0.9-1.1
			c-0.2-0.4-0.3-1-0.4-1.6h1.6C157.1,757.1,157.2,757.3,157.3,757.6z"/>
		<path fill="#FFFFFF" d="M169.9,749.9v1.5h-2v6.1c0,0.2,0,0.3,0.1,0.5c0,0.1,0.1,0.2,0.2,0.2c0.1,0.1,0.2,0.1,0.4,0.2
			c0.2,0,0.3,0,0.7,0h0.7v1.5h-1.2c-0.4,0-0.8,0-1.1-0.1s-0.6-0.2-0.7-0.3c-0.2-0.2-0.3-0.4-0.4-0.7c-0.1-0.2-0.2-0.7-0.2-1.1v-6.3
			h-1.7v-1.5h1.7V747h1.6v2.9H169.9z"/>
		<path fill="#FFFFFF" d="M171.8,748.1v-2h1.6v2H171.8z M173.4,749.9v9.9h-1.6v-9.9H173.4z"/>
		<path fill="#FFFFFF" d="M175.7,752.8c0.2-0.7,0.5-1.1,0.9-1.6c0.4-0.5,0.9-0.8,1.6-1.1c0.6-0.2,1.3-0.4,2-0.4c0.8,0,1.5,0.2,2,0.4
			s1.1,0.7,1.5,1.1c0.4,0.4,0.7,1,0.9,1.6c0.2,0.7,0.3,1.3,0.3,2c0,0.7-0.1,1.4-0.3,2c-0.2,0.7-0.5,1.1-0.9,1.6
			c-0.4,0.5-0.9,0.8-1.5,1.1s-1.3,0.4-2,0.4c-0.8,0-1.5-0.2-2-0.4s-1.1-0.7-1.6-1.1c-0.4-0.5-0.7-1-0.9-1.6c-0.2-0.7-0.3-1.3-0.3-2
			C175.4,754.1,175.4,753.5,175.7,752.8z M177.3,756.5c0.2,0.5,0.4,0.8,0.7,1.1s0.6,0.6,1,0.7c0.4,0.2,0.8,0.2,1.2,0.2
			s0.8-0.1,1.2-0.2c0.4-0.2,0.7-0.4,1-0.7s0.5-0.7,0.7-1.1c0.2-0.5,0.2-1,0.2-1.6s-0.1-1.1-0.2-1.6s-0.4-0.9-0.7-1.1
			c-0.2-0.3-0.6-0.6-1-0.7c-0.4-0.2-0.8-0.2-1.2-0.2s-0.8,0.1-1.2,0.2c-0.4,0.2-0.7,0.4-1,0.7s-0.5,0.7-0.7,1.1
			c-0.2,0.5-0.2,1-0.2,1.6S177.2,756,177.3,756.5z"/>
		<path fill="#FFFFFF" d="M188.4,749.9v1.6l0,0c0.7-1.2,1.7-1.8,3.2-1.8c0.7,0,1.2,0.1,1.6,0.2c0.4,0.2,0.8,0.4,1.1,0.7
			c0.2,0.3,0.5,0.7,0.6,1.1c0.1,0.4,0.2,0.9,0.2,1.5v6.5h-1.6v-6.7c0-0.7-0.2-1.1-0.6-1.5c-0.3-0.3-0.8-0.6-1.5-0.6
			c-0.5,0-0.9,0.1-1.3,0.2c-0.3,0.2-0.7,0.4-0.9,0.7c-0.2,0.2-0.4,0.6-0.6,1c-0.1,0.4-0.2,0.8-0.2,1.2v5.6h-1.6v-9.9L188.4,749.9
			L188.4,749.9z"/>
		<path fill="#FFFFFF" d="M210.1,759.8v-1.4l0,0c-0.2,0.6-0.7,1-1.2,1.2s-1.2,0.3-1.9,0.3c-0.7,0-1.5-0.2-2-0.4s-1.1-0.7-1.4-1.1
			c-0.4-0.5-0.7-1.1-0.8-1.6c-0.2-0.7-0.3-1.3-0.3-2s0.1-1.4,0.2-2c0.2-0.7,0.5-1.1,0.8-1.6c0.4-0.5,0.8-0.8,1.4-1.1
			c0.6-0.2,1.2-0.4,2-0.4c0.2,0,0.5,0,0.8,0.1s0.6,0.2,0.9,0.2c0.3,0.1,0.6,0.2,0.8,0.5c0.2,0.2,0.5,0.4,0.7,0.7l0,0v-5.1h1.6v13.7
			L210.1,759.8L210.1,759.8z M204.2,756.3c0.1,0.4,0.3,0.8,0.6,1.1s0.6,0.7,1,0.8c0.4,0.2,0.8,0.3,1.4,0.3s1-0.1,1.4-0.3
			c0.4-0.2,0.7-0.5,1-0.8s0.4-0.7,0.5-1.2c0.1-0.4,0.2-0.9,0.2-1.4s-0.1-1-0.2-1.4c-0.1-0.5-0.3-0.8-0.6-1.2c-0.2-0.3-0.6-0.7-1-0.8
			c-0.4-0.2-0.9-0.3-1.5-0.3s-1,0.1-1.4,0.3c-0.4,0.2-0.7,0.5-0.9,0.9c-0.2,0.3-0.4,0.7-0.5,1.2c-0.1,0.5-0.2,0.9-0.2,1.4
			S204.2,755.8,204.2,756.3z"/>
		<path fill="#FFFFFF" d="M221.2,759.2c-0.7,0.6-1.6,0.8-2.8,0.8c-0.8,0-1.5-0.2-2-0.4c-0.6-0.2-1.1-0.7-1.5-1.1
			c-0.4-0.5-0.7-1-0.9-1.6c-0.2-0.7-0.3-1.3-0.3-2.1c0-0.7,0.1-1.5,0.3-2c0.2-0.6,0.6-1.1,1-1.6s0.9-0.8,1.5-1.1
			c0.6-0.2,1.2-0.4,1.9-0.4c0.9,0,1.6,0.2,2.2,0.6c0.6,0.3,1.1,0.8,1.4,1.4s0.6,1.1,0.7,1.9c0.2,0.7,0.2,1.3,0.2,1.9h-7.4
			c0,0.4,0,0.8,0.2,1.2c0.1,0.4,0.3,0.7,0.6,1.1c0.2,0.3,0.6,0.6,1,0.7c0.4,0.2,0.9,0.2,1.4,0.2c0.7,0,1.2-0.2,1.7-0.5
			c0.4-0.3,0.7-0.8,0.9-1.5h1.6C222.4,757.8,222,758.6,221.2,759.2z M220.9,752.8c-0.2-0.3-0.3-0.7-0.6-0.9
			c-0.2-0.2-0.6-0.4-0.9-0.6s-0.7-0.2-1.1-0.2c-0.4,0-0.8,0.1-1.1,0.2c-0.3,0.2-0.7,0.3-0.9,0.6c-0.2,0.2-0.4,0.6-0.6,0.9
			s-0.2,0.7-0.2,1.1h5.7C221.1,753.6,221,753.2,220.9,752.8z"/>
		<path fill="#FFFFFF" d="M231.6,746.1v13.7h-1.6v-13.7H231.6z"/>
		<path fill="#FFFFFF" d="M236.6,746.1v2.1c0,0.4-0.1,0.7-0.2,1.1c-0.1,0.3-0.2,0.7-0.4,0.9c-0.2,0.2-0.4,0.5-0.7,0.7
			c-0.2,0.2-0.6,0.2-1,0.2v-1c0.2,0,0.4-0.1,0.6-0.2c0.2-0.1,0.2-0.2,0.3-0.4c0.1-0.2,0.2-0.4,0.2-0.6c0-0.2,0.1-0.4,0.1-0.7h-1.1
			v-2.1L236.6,746.1L236.6,746.1z"/>
		<path fill="#FFFFFF" d="M248.2,759.8c-0.2,0.2-0.7,0.2-1.1,0.2c-0.4,0-0.7-0.1-1-0.3c-0.2-0.2-0.4-0.7-0.4-1.1
			c-0.4,0.6-1,0.9-1.6,1.1c-0.6,0.2-1.2,0.3-2,0.3c-0.4,0-0.9-0.1-1.3-0.2s-0.7-0.2-1.1-0.5c-0.3-0.2-0.5-0.5-0.7-0.8
			c-0.2-0.3-0.2-0.8-0.2-1.3c0-0.6,0.1-1.1,0.3-1.4c0.2-0.3,0.4-0.7,0.7-0.9c0.3-0.2,0.7-0.4,1.1-0.5c0.4-0.1,0.8-0.2,1.2-0.3
			c0.4-0.1,0.9-0.2,1.3-0.2c0.4-0.1,0.7-0.1,1.1-0.2s0.6-0.2,0.7-0.3c0.2-0.2,0.2-0.4,0.2-0.7c0-0.3-0.1-0.7-0.2-0.9
			c-0.2-0.2-0.3-0.4-0.5-0.5c-0.2-0.1-0.4-0.2-0.7-0.2c-0.2,0-0.5-0.1-0.8-0.1c-0.7,0-1.2,0.2-1.7,0.4c-0.5,0.2-0.7,0.7-0.7,1.5
			h-1.6c0-0.7,0.2-1.1,0.4-1.6c0.2-0.4,0.6-0.7,0.9-1.1c0.4-0.2,0.8-0.5,1.3-0.6s1-0.2,1.6-0.2c0.4,0,0.9,0,1.3,0.1
			c0.4,0.1,0.8,0.2,1.2,0.4c0.3,0.2,0.7,0.5,0.9,0.8c0.2,0.3,0.3,0.8,0.3,1.4v5.1c0,0.4,0,0.7,0.1,0.8c0.1,0.2,0.2,0.2,0.5,0.2
			c0.2,0,0.3,0,0.5-0.1V759.8z M245.5,754.7c-0.2,0.2-0.5,0.2-0.8,0.3s-0.7,0.2-1.1,0.2c-0.3,0.1-0.7,0.1-1.1,0.2
			c-0.4,0.1-0.7,0.2-1,0.2c-0.3,0.2-0.6,0.3-0.7,0.6c-0.2,0.2-0.2,0.6-0.2,1c0,0.2,0.1,0.5,0.2,0.7c0.1,0.2,0.2,0.3,0.4,0.4
			s0.4,0.2,0.6,0.2c0.2,0.1,0.5,0.1,0.7,0.1c0.6,0,1-0.1,1.4-0.2c0.4-0.2,0.7-0.3,0.9-0.6c0.2-0.2,0.4-0.5,0.6-0.7
			c0.1-0.2,0.2-0.5,0.2-0.7L245.5,754.7L245.5,754.7z"/>
		<path fill="#FFFFFF" d="M251.4,749.9v1.3l0,0c0.2-0.6,0.7-1,1.2-1.2s1.2-0.4,1.9-0.4c0.7,0,1.5,0.2,2,0.4s1.1,0.7,1.4,1.1
			c0.4,0.5,0.7,1.1,0.8,1.6c0.2,0.7,0.3,1.3,0.3,2s-0.1,1.4-0.2,2c-0.2,0.7-0.5,1.1-0.8,1.6c-0.4,0.5-0.8,0.8-1.4,1.1
			c-0.6,0.2-1.2,0.4-2,0.4c-0.2,0-0.5,0-0.8-0.1s-0.6-0.2-0.9-0.2c-0.3-0.1-0.6-0.2-0.8-0.5c-0.2-0.2-0.5-0.4-0.7-0.7l0,0v5.1h-1.6
			v-13.7h1.6V749.9z M257.2,753.4c-0.1-0.4-0.3-0.8-0.6-1.1c-0.2-0.3-0.6-0.7-1-0.8c-0.4-0.2-0.8-0.3-1.4-0.3c-0.6,0-1,0.1-1.4,0.3
			c-0.4,0.2-0.7,0.5-0.9,0.8c-0.2,0.3-0.4,0.7-0.5,1.2c-0.1,0.4-0.2,0.9-0.2,1.4c0,0.5,0.1,1,0.2,1.4c0.1,0.5,0.3,0.8,0.6,1.2
			c0.2,0.3,0.6,0.7,1,0.8c0.4,0.2,0.9,0.3,1.5,0.3c0.6,0,1.1-0.1,1.4-0.3c0.4-0.2,0.7-0.5,0.9-0.9c0.2-0.3,0.4-0.7,0.5-1.2
			c0.1-0.5,0.2-0.9,0.2-1.4C257.4,754.3,257.4,753.9,257.2,753.4z"/>
		<path fill="#FFFFFF" d="M262.7,749.9v1.3l0,0c0.2-0.6,0.7-1,1.2-1.2s1.2-0.4,1.9-0.4c0.7,0,1.5,0.2,2,0.4c0.6,0.2,1.1,0.7,1.4,1.1
			c0.4,0.5,0.7,1.1,0.8,1.6c0.2,0.7,0.3,1.3,0.3,2s-0.1,1.4-0.2,2c-0.2,0.6-0.5,1.1-0.8,1.6c-0.4,0.5-0.8,0.8-1.4,1.1
			s-1.2,0.4-2,0.4c-0.2,0-0.5,0-0.8-0.1s-0.6-0.2-0.9-0.2c-0.3-0.1-0.6-0.2-0.8-0.5c-0.2-0.2-0.5-0.4-0.7-0.7l0,0v5.1h-1.6v-13.7
			h1.6V749.9z M268.6,753.4c-0.1-0.4-0.3-0.8-0.6-1.1c-0.2-0.3-0.6-0.7-1-0.8c-0.4-0.2-0.8-0.3-1.4-0.3s-1,0.1-1.4,0.3
			c-0.4,0.2-0.7,0.5-0.9,0.8c-0.2,0.3-0.4,0.7-0.5,1.2c-0.1,0.4-0.2,0.9-0.2,1.4c0,0.5,0.1,1,0.2,1.4c0.1,0.5,0.3,0.8,0.6,1.2
			c0.2,0.3,0.6,0.7,1,0.8c0.4,0.2,0.9,0.3,1.5,0.3c0.6,0,1.1-0.1,1.4-0.3c0.4-0.2,0.7-0.5,0.9-0.9c0.2-0.3,0.4-0.7,0.5-1.2
			c0.1-0.5,0.2-0.9,0.2-1.4C268.8,754.3,268.7,753.9,268.6,753.4z"/>
		<path fill="#FFFFFF" d="M273.9,749.9v2.1l0,0c0.4-0.8,0.9-1.4,1.5-1.8c0.6-0.4,1.3-0.6,2.2-0.6v1.7c-0.7,0-1.2,0.1-1.6,0.2
			c-0.5,0.2-0.8,0.4-1.1,0.8c-0.2,0.3-0.5,0.7-0.7,1.2c-0.2,0.5-0.2,1.1-0.2,1.7v4.4h-1.6v-9.9H273.9L273.9,749.9z"/>
		<path fill="#FFFFFF" d="M285.4,759.2c-0.7,0.6-1.6,0.8-2.8,0.8c-0.8,0-1.5-0.2-2-0.4c-0.6-0.2-1.1-0.7-1.5-1.1
			c-0.4-0.5-0.7-1-0.9-1.6c-0.2-0.7-0.3-1.3-0.3-2.1c0-0.7,0.1-1.5,0.3-2c0.2-0.7,0.6-1.1,1-1.6s0.9-0.8,1.5-1.1
			c0.6-0.2,1.2-0.4,1.9-0.4c0.9,0,1.6,0.2,2.2,0.6c0.6,0.3,1.1,0.8,1.4,1.4c0.3,0.6,0.6,1.1,0.7,1.9c0.2,0.7,0.2,1.3,0.2,1.9h-7.4
			c0,0.4,0,0.8,0.2,1.2c0.1,0.4,0.3,0.7,0.6,1.1c0.2,0.3,0.6,0.6,1,0.7c0.4,0.2,0.9,0.2,1.4,0.2c0.7,0,1.2-0.2,1.7-0.5
			c0.4-0.3,0.7-0.8,0.9-1.5h1.6C286.7,757.8,286.2,758.6,285.4,759.2z M285.1,752.8c-0.2-0.3-0.3-0.7-0.6-0.9
			c-0.2-0.2-0.6-0.4-0.9-0.6s-0.7-0.2-1.1-0.2c-0.4,0-0.8,0.1-1.1,0.2c-0.3,0.2-0.7,0.3-0.9,0.6c-0.2,0.2-0.4,0.6-0.6,0.9
			s-0.2,0.7-0.2,1.1h5.7C285.3,753.6,285.2,753.2,285.1,752.8z"/>
		<path fill="#FFFFFF" d="M290.2,749.9v1.6l0,0c0.7-1.2,1.7-1.8,3.2-1.8c0.7,0,1.2,0.1,1.6,0.2c0.4,0.2,0.8,0.4,1.1,0.7
			s0.5,0.7,0.6,1.1c0.1,0.4,0.2,0.9,0.2,1.5v6.5h-1.6v-6.7c0-0.7-0.2-1.1-0.6-1.5c-0.3-0.3-0.8-0.6-1.5-0.6c-0.5,0-0.9,0.1-1.3,0.2
			c-0.3,0.2-0.7,0.4-0.9,0.7c-0.2,0.2-0.4,0.6-0.6,1c-0.1,0.4-0.2,0.8-0.2,1.2v5.6h-1.6v-9.9L290.2,749.9L290.2,749.9z"/>
		<path fill="#FFFFFF" d="M303.6,749.9v1.5h-2v6.1c0,0.2,0,0.3,0.1,0.5c0,0.1,0.1,0.2,0.2,0.2c0.1,0.1,0.2,0.1,0.4,0.2
			c0.2,0,0.3,0,0.7,0h0.7v1.5h-1.2c-0.4,0-0.8,0-1.1-0.1c-0.3-0.1-0.6-0.2-0.7-0.3c-0.2-0.2-0.3-0.4-0.4-0.7
			c-0.1-0.2-0.2-0.7-0.2-1.1v-6.3h-1.7v-1.5h1.7V747h1.6v2.9H303.6z"/>
		<path fill="#FFFFFF" d="M305.5,748.1v-2h1.6v2H305.5z M307.1,749.9v9.9h-1.6v-9.9H307.1z"/>
		<path fill="#FFFFFF" d="M310.9,757.6c0.2,0.2,0.3,0.4,0.6,0.6c0.2,0.2,0.5,0.2,0.8,0.3s0.7,0.1,1,0.1c0.2,0,0.5,0,0.8-0.1
			c0.2,0,0.6-0.1,0.8-0.2c0.2-0.1,0.4-0.2,0.6-0.5c0.2-0.2,0.2-0.5,0.2-0.7c0-0.4-0.2-0.7-0.5-1s-0.7-0.4-1.2-0.5
			c-0.5-0.2-1-0.2-1.6-0.3c-0.6-0.1-1.1-0.2-1.6-0.5c-0.5-0.2-0.9-0.5-1.2-0.8s-0.5-0.8-0.5-1.5c0-0.5,0.1-0.9,0.3-1.3
			c0.2-0.3,0.5-0.7,0.9-0.9c0.3-0.2,0.7-0.4,1.2-0.5c0.5-0.1,0.9-0.2,1.3-0.2c0.6,0,1.1,0.1,1.6,0.2c0.5,0.1,0.9,0.2,1.2,0.5
			s0.7,0.6,0.9,1c0.2,0.4,0.3,0.9,0.4,1.5h-1.6c0-0.3-0.1-0.6-0.2-0.8c-0.2-0.2-0.3-0.4-0.6-0.5c-0.2-0.2-0.5-0.2-0.7-0.2
			c-0.2-0.1-0.5-0.1-0.8-0.1c-0.2,0-0.5,0-0.7,0.1c-0.2,0-0.5,0.1-0.7,0.2c-0.2,0.1-0.4,0.2-0.5,0.4c-0.2,0.2-0.2,0.4-0.2,0.7
			s0.1,0.5,0.3,0.7s0.5,0.3,0.7,0.5c0.3,0.1,0.7,0.2,1.1,0.3c0.4,0.1,0.7,0.2,1.1,0.2c0.4,0.1,0.8,0.2,1.2,0.3
			c0.4,0.2,0.7,0.3,1.1,0.5c0.3,0.2,0.6,0.5,0.7,0.8c0.2,0.3,0.2,0.7,0.2,1.2c0,0.6-0.2,1.1-0.4,1.5c-0.2,0.4-0.6,0.7-1,1
			c-0.4,0.2-0.8,0.4-1.4,0.5c-0.5,0.1-1,0.2-1.5,0.2c-0.6,0-1.1-0.1-1.6-0.2c-0.5-0.1-1-0.3-1.3-0.6c-0.4-0.2-0.7-0.6-0.9-1.1
			c-0.2-0.4-0.3-1-0.4-1.6h1.6C310.6,757.1,310.7,757.3,310.9,757.6z"/>
		<path fill="#FFFFFF" d="M320.5,757.6c0.2,0.2,0.3,0.4,0.6,0.6c0.2,0.2,0.5,0.2,0.8,0.3s0.7,0.1,1,0.1c0.2,0,0.5,0,0.8-0.1
			c0.2,0,0.6-0.1,0.8-0.2c0.2-0.1,0.4-0.2,0.6-0.5c0.2-0.2,0.2-0.5,0.2-0.7c0-0.4-0.2-0.7-0.5-1s-0.7-0.4-1.2-0.5
			c-0.5-0.2-1-0.2-1.6-0.3c-0.6-0.1-1.1-0.2-1.6-0.5c-0.5-0.2-0.9-0.5-1.2-0.8s-0.5-0.8-0.5-1.5c0-0.5,0.1-0.9,0.3-1.3
			c0.2-0.3,0.5-0.7,0.9-0.9c0.3-0.2,0.7-0.4,1.2-0.5c0.5-0.1,0.9-0.2,1.3-0.2c0.6,0,1.1,0.1,1.6,0.2c0.5,0.1,0.9,0.2,1.2,0.5
			s0.7,0.6,0.9,1c0.2,0.4,0.3,0.9,0.4,1.5H325c0-0.3-0.1-0.6-0.2-0.8c-0.2-0.2-0.3-0.4-0.6-0.5c-0.2-0.2-0.5-0.2-0.7-0.2
			c-0.2-0.1-0.5-0.1-0.8-0.1c-0.2,0-0.5,0-0.7,0.1c-0.2,0-0.5,0.1-0.7,0.2c-0.2,0.1-0.4,0.2-0.5,0.4c-0.2,0.2-0.2,0.4-0.2,0.7
			s0.1,0.5,0.3,0.7s0.5,0.3,0.7,0.5c0.3,0.1,0.7,0.2,1.1,0.3c0.4,0.1,0.7,0.2,1.1,0.2c0.4,0.1,0.8,0.2,1.2,0.3
			c0.4,0.2,0.7,0.3,1.1,0.5c0.3,0.2,0.6,0.5,0.7,0.8c0.2,0.3,0.2,0.7,0.2,1.2c0,0.6-0.2,1.1-0.4,1.5c-0.2,0.4-0.6,0.7-1,1
			c-0.4,0.2-0.8,0.4-1.4,0.5c-0.5,0.1-1,0.2-1.5,0.2c-0.6,0-1.1-0.1-1.6-0.2c-0.5-0.1-1-0.3-1.3-0.6c-0.4-0.2-0.7-0.6-0.9-1.1
			c-0.2-0.4-0.3-1-0.4-1.6h1.6C320.3,757.1,320.3,757.3,320.5,757.6z"/>
		<path fill="#FFFFFF" d="M337.6,759.8c-0.2,0.2-0.7,0.2-1.1,0.2c-0.4,0-0.7-0.1-1-0.3c-0.2-0.2-0.4-0.7-0.4-1.1
			c-0.4,0.6-1,0.9-1.6,1.1c-0.6,0.2-1.2,0.3-2,0.3c-0.4,0-0.9-0.1-1.3-0.2c-0.4-0.1-0.7-0.2-1.1-0.5c-0.3-0.2-0.5-0.5-0.7-0.8
			c-0.2-0.3-0.2-0.8-0.2-1.3c0-0.6,0.1-1.1,0.3-1.4c0.2-0.3,0.4-0.7,0.7-0.9c0.3-0.2,0.7-0.4,1.1-0.5c0.4-0.1,0.8-0.2,1.2-0.3
			c0.4-0.1,0.9-0.2,1.3-0.2c0.4-0.1,0.7-0.1,1.1-0.2s0.6-0.2,0.7-0.3c0.2-0.2,0.2-0.4,0.2-0.7c0-0.3-0.1-0.7-0.2-0.9
			c-0.2-0.2-0.3-0.4-0.5-0.5c-0.2-0.1-0.4-0.2-0.7-0.2c-0.2,0-0.5-0.1-0.8-0.1c-0.7,0-1.2,0.2-1.7,0.4c-0.5,0.2-0.7,0.7-0.7,1.5
			h-1.6c0-0.7,0.2-1.1,0.4-1.6c0.2-0.4,0.6-0.7,0.9-1.1c0.4-0.2,0.8-0.5,1.3-0.6c0.5-0.1,1-0.2,1.6-0.2c0.4,0,0.9,0,1.3,0.1
			c0.4,0.1,0.8,0.2,1.2,0.4c0.3,0.2,0.7,0.5,0.9,0.8c0.2,0.3,0.3,0.8,0.3,1.4v5.1c0,0.4,0,0.7,0.1,0.8c0.1,0.2,0.2,0.2,0.5,0.2
			c0.2,0,0.3,0,0.5-0.1V759.8z M335,754.7c-0.2,0.2-0.5,0.2-0.8,0.3s-0.7,0.2-1.1,0.2c-0.4,0-0.7,0.1-1.1,0.2s-0.7,0.2-1,0.2
			c-0.3,0.2-0.6,0.3-0.7,0.6c-0.2,0.2-0.2,0.6-0.2,1c0,0.2,0.1,0.5,0.2,0.7c0.1,0.2,0.2,0.3,0.4,0.4c0.2,0.1,0.4,0.2,0.6,0.2
			c0.2,0.1,0.5,0.1,0.7,0.1c0.6,0,1-0.1,1.4-0.2c0.4-0.2,0.7-0.3,1-0.6c0.2-0.2,0.4-0.5,0.6-0.7c0.1-0.2,0.2-0.5,0.2-0.7L335,754.7
			L335,754.7z"/>
		<path fill="#FFFFFF" d="M346.5,762.6c-0.7,0.8-1.9,1.2-3.5,1.2c-0.5,0-0.9-0.1-1.4-0.2s-0.9-0.2-1.3-0.5c-0.4-0.2-0.7-0.5-1-0.9
			c-0.2-0.4-0.4-0.8-0.4-1.4h1.6c0,0.3,0.1,0.6,0.2,0.7c0.2,0.2,0.4,0.4,0.7,0.5c0.2,0.2,0.5,0.2,0.8,0.2s0.6,0.1,0.8,0.1
			c0.6,0,1-0.1,1.4-0.2c0.4-0.2,0.7-0.4,0.9-0.7c0.2-0.3,0.4-0.7,0.5-1.1c0.1-0.5,0.2-1,0.2-1.6v-0.7l0,0c-0.2,0.7-0.7,1.1-1.3,1.4
			s-1.1,0.4-1.8,0.4c-0.7,0-1.4-0.2-2-0.4c-0.6-0.2-1-0.7-1.4-1.1c-0.4-0.5-0.7-1-0.8-1.6c-0.2-0.6-0.2-1.2-0.2-2
			c0-0.6,0.1-1.2,0.2-1.8c0.2-0.7,0.4-1.1,0.7-1.7c0.3-0.5,0.8-0.9,1.4-1.2c0.6-0.3,1.3-0.5,2.2-0.5c0.7,0,1.2,0.2,1.7,0.4
			c0.5,0.2,0.9,0.7,1.2,1.2l0,0V750h1.6v9.1C347.6,760.6,347.3,761.8,346.5,762.6z M344.4,758.1c0.4-0.2,0.7-0.5,0.9-0.9
			c0.2-0.3,0.4-0.8,0.5-1.2c0.1-0.5,0.2-0.9,0.2-1.4c0-0.4-0.1-0.9-0.2-1.3c-0.1-0.4-0.2-0.8-0.5-1.1c-0.2-0.3-0.5-0.6-0.9-0.8
			c-0.3-0.2-0.8-0.3-1.3-0.3c-0.5,0-1,0.1-1.3,0.3c-0.4,0.2-0.7,0.5-0.9,0.8c-0.2,0.3-0.4,0.7-0.5,1.1c-0.1,0.4-0.2,0.9-0.2,1.4
			c0,0.4,0.1,0.9,0.2,1.3s0.2,0.8,0.5,1.2c0.2,0.3,0.5,0.7,0.9,0.9c0.4,0.2,0.8,0.3,1.3,0.3C343.6,758.5,344.1,758.4,344.4,758.1z"
			/>
		<path fill="#FFFFFF" d="M357.1,759.2c-0.7,0.6-1.6,0.8-2.8,0.8c-0.8,0-1.5-0.2-2-0.4s-1.1-0.7-1.5-1.1c-0.4-0.5-0.7-1-0.9-1.6
			c-0.2-0.7-0.3-1.3-0.3-2.1c0-0.7,0.1-1.5,0.3-2c0.2-0.7,0.6-1.1,1-1.6c0.4-0.5,0.9-0.8,1.5-1.1s1.2-0.4,1.9-0.4
			c0.9,0,1.6,0.2,2.2,0.6c0.6,0.3,1.1,0.8,1.4,1.4s0.6,1.1,0.7,1.9c0.2,0.7,0.2,1.3,0.2,1.9h-7.4c0,0.4,0,0.8,0.2,1.2
			c0.1,0.4,0.3,0.7,0.6,1.1c0.2,0.3,0.6,0.6,1,0.7c0.4,0.2,0.9,0.2,1.4,0.2c0.7,0,1.2-0.2,1.7-0.5c0.4-0.3,0.7-0.8,0.9-1.5h1.6
			C358.3,757.8,357.8,758.6,357.1,759.2z M356.7,752.8c-0.2-0.3-0.3-0.7-0.6-0.9c-0.2-0.2-0.6-0.4-0.9-0.6s-0.7-0.2-1.1-0.2
			s-0.8,0.1-1.1,0.2c-0.3,0.2-0.7,0.3-0.9,0.6c-0.2,0.2-0.4,0.6-0.6,0.9c-0.2,0.3-0.2,0.7-0.2,1.1h5.7
			C356.9,753.6,356.8,753.2,356.7,752.8z"/>
		<path fill="#FFFFFF" d="M367.3,749.9v1.3l0,0c0.2-0.6,0.7-1,1.2-1.2s1.2-0.4,1.9-0.4c0.7,0,1.5,0.2,2,0.4s1.1,0.7,1.4,1.1
			c0.4,0.5,0.7,1.1,0.8,1.6c0.2,0.7,0.3,1.3,0.3,2s-0.1,1.4-0.2,2c-0.2,0.6-0.5,1.1-0.8,1.6c-0.4,0.5-0.8,0.8-1.4,1.1
			s-1.2,0.4-2,0.4c-0.2,0-0.5,0-0.8-0.1s-0.6-0.2-0.9-0.2c-0.3-0.1-0.6-0.2-0.8-0.5c-0.2-0.2-0.5-0.4-0.7-0.7l0,0v5.1h-1.6v-13.7
			h1.6V749.9z M373.2,753.4c-0.1-0.4-0.3-0.8-0.6-1.1s-0.6-0.7-1-0.8c-0.4-0.2-0.8-0.3-1.4-0.3s-1,0.1-1.4,0.3s-0.7,0.5-0.9,0.8
			c-0.2,0.3-0.4,0.7-0.5,1.2c-0.1,0.4-0.2,0.9-0.2,1.4c0,0.5,0.1,1,0.2,1.4c0.1,0.5,0.3,0.8,0.6,1.2c0.2,0.3,0.6,0.7,1,0.8
			c0.4,0.2,0.9,0.3,1.5,0.3c0.6,0,1.1-0.1,1.4-0.3c0.4-0.2,0.7-0.5,0.9-0.9c0.2-0.3,0.4-0.7,0.5-1.2c0.1-0.5,0.2-0.9,0.2-1.4
			C373.4,754.3,373.4,753.9,373.2,753.4z"/>
		<path fill="#FFFFFF" d="M385.8,759.8c-0.2,0.2-0.7,0.2-1.1,0.2c-0.4,0-0.7-0.1-1-0.3c-0.2-0.2-0.4-0.7-0.4-1.1
			c-0.4,0.6-1,0.9-1.6,1.1c-0.6,0.2-1.2,0.3-2,0.3c-0.4,0-0.9-0.1-1.3-0.2s-0.7-0.2-1.1-0.5c-0.3-0.2-0.5-0.5-0.7-0.8
			c-0.2-0.3-0.2-0.8-0.2-1.3c0-0.6,0.1-1.1,0.3-1.4c0.2-0.3,0.4-0.7,0.7-0.9c0.3-0.2,0.7-0.4,1.1-0.5c0.4-0.1,0.8-0.2,1.2-0.3
			c0.4-0.1,0.9-0.2,1.3-0.2c0.4-0.1,0.7-0.1,1.1-0.2s0.6-0.2,0.7-0.3c0.2-0.2,0.2-0.4,0.2-0.7c0-0.3-0.1-0.7-0.2-0.9
			c-0.2-0.2-0.3-0.4-0.5-0.5c-0.2-0.1-0.4-0.2-0.7-0.2c-0.2,0-0.5-0.1-0.8-0.1c-0.7,0-1.2,0.2-1.7,0.4c-0.5,0.2-0.7,0.7-0.7,1.5
			h-1.6c0-0.7,0.2-1.1,0.4-1.6s0.6-0.7,0.9-1.1c0.4-0.2,0.8-0.5,1.3-0.6s1-0.2,1.6-0.2c0.4,0,0.9,0,1.3,0.1s0.8,0.2,1.2,0.4
			c0.3,0.2,0.7,0.5,0.9,0.8c0.2,0.3,0.3,0.8,0.3,1.4v5.1c0,0.4,0,0.7,0.1,0.8c0.1,0.2,0.2,0.2,0.5,0.2c0.2,0,0.3,0,0.5-0.1V759.8z
			 M383.2,754.7c-0.2,0.2-0.5,0.2-0.8,0.3s-0.7,0.2-1.1,0.2s-0.7,0.1-1.1,0.2s-0.7,0.2-1,0.2c-0.3,0.2-0.6,0.3-0.7,0.6
			c-0.2,0.2-0.2,0.6-0.2,1c0,0.2,0.1,0.5,0.2,0.7c0.1,0.2,0.2,0.3,0.4,0.4c0.2,0.1,0.4,0.2,0.6,0.2c0.2,0.1,0.5,0.1,0.7,0.1
			c0.6,0,1-0.1,1.4-0.2c0.4-0.2,0.7-0.3,1-0.6c0.2-0.2,0.4-0.5,0.6-0.7c0.1-0.2,0.2-0.5,0.2-0.7L383.2,754.7L383.2,754.7z"/>
		<path fill="#FFFFFF" d="M388.8,749.9v2.1l0,0c0.4-0.8,0.9-1.4,1.5-1.8c0.6-0.4,1.3-0.6,2.2-0.6v1.7c-0.7,0-1.2,0.1-1.6,0.2
			c-0.5,0.2-0.8,0.4-1.1,0.8c-0.2,0.3-0.5,0.7-0.7,1.2c-0.2,0.5-0.2,1.1-0.2,1.7v4.4h-1.6v-9.9H388.8L388.8,749.9z"/>
		<path fill="#FFFFFF" d="M400.7,749.9v1.3l0,0c0.2-0.6,0.7-1,1.2-1.2s1.2-0.4,1.9-0.4c0.7,0,1.5,0.2,2,0.4s1.1,0.7,1.4,1.1
			c0.4,0.5,0.7,1.1,0.8,1.6c0.2,0.7,0.3,1.3,0.3,2s-0.1,1.4-0.2,2c-0.2,0.6-0.5,1.1-0.8,1.6c-0.4,0.5-0.8,0.8-1.4,1.1
			s-1.2,0.4-2,0.4c-0.2,0-0.5,0-0.8-0.1s-0.6-0.2-0.9-0.2c-0.3-0.1-0.6-0.2-0.8-0.5c-0.2-0.2-0.5-0.4-0.7-0.7l0,0v5.1h-1.6v-13.7
			h1.6V749.9z M406.6,753.4c-0.1-0.4-0.3-0.8-0.6-1.1s-0.6-0.7-1-0.8c-0.4-0.2-0.8-0.3-1.4-0.3c-0.6,0-1,0.1-1.4,0.3
			s-0.7,0.5-0.9,0.8c-0.2,0.3-0.4,0.7-0.5,1.2c-0.1,0.4-0.2,0.9-0.2,1.4c0,0.5,0.1,1,0.2,1.4c0.1,0.5,0.3,0.8,0.6,1.2
			c0.2,0.3,0.6,0.7,1,0.8c0.4,0.2,0.9,0.3,1.5,0.3c0.6,0,1.1-0.1,1.4-0.3c0.4-0.2,0.7-0.5,0.9-0.9c0.2-0.3,0.4-0.7,0.5-1.2
			c0.1-0.5,0.2-0.9,0.2-1.4C406.8,754.3,406.7,753.9,406.6,753.4z"/>
		<path fill="#FFFFFF" d="M411.9,749.9v2.1l0,0c0.4-0.8,0.9-1.4,1.5-1.8c0.6-0.4,1.3-0.6,2.2-0.6v1.7c-0.7,0-1.2,0.1-1.6,0.2
			c-0.5,0.2-0.8,0.4-1.1,0.8c-0.2,0.3-0.5,0.7-0.7,1.2c-0.2,0.5-0.2,1.1-0.2,1.7v4.4h-1.6v-9.9H411.9L411.9,749.9z"/>
		<path fill="#FFFFFF" d="M416.2,752.8c0.2-0.7,0.5-1.1,0.9-1.6c0.4-0.5,0.9-0.8,1.6-1.1c0.6-0.2,1.3-0.4,2-0.4c0.8,0,1.5,0.2,2,0.4
			s1.1,0.7,1.5,1.1c0.4,0.5,0.7,1,0.9,1.6c0.2,0.7,0.3,1.3,0.3,2c0,0.7-0.1,1.4-0.3,2c-0.2,0.7-0.5,1.1-0.9,1.6
			c-0.4,0.5-0.9,0.8-1.5,1.1c-0.6,0.2-1.3,0.4-2,0.4c-0.8,0-1.5-0.2-2-0.4s-1.1-0.7-1.6-1.1c-0.4-0.5-0.7-1-0.9-1.6
			c-0.2-0.7-0.3-1.3-0.3-2C415.9,754.1,416,753.5,416.2,752.8z M417.8,756.5c0.2,0.5,0.4,0.8,0.7,1.1c0.2,0.3,0.6,0.6,1,0.7
			c0.4,0.2,0.8,0.2,1.2,0.2c0.4,0,0.8-0.1,1.2-0.2c0.4-0.2,0.7-0.4,1-0.7s0.5-0.7,0.7-1.1c0.2-0.4,0.2-1,0.2-1.6s-0.1-1.1-0.2-1.6
			c-0.2-0.5-0.4-0.9-0.7-1.1c-0.2-0.3-0.6-0.6-1-0.7c-0.4-0.2-0.8-0.2-1.2-0.2c-0.4,0-0.8,0.1-1.2,0.2c-0.4,0.2-0.7,0.4-1,0.7
			s-0.5,0.7-0.7,1.1c-0.2,0.5-0.2,1-0.2,1.6S417.7,756,417.8,756.5z"/>
		<path fill="#FFFFFF" d="M428.5,762.9c-0.4,0.4-1,0.6-1.7,0.6c-0.3,0-0.6,0-0.8-0.1V762c0.1,0,0.1,0,0.2,0s0.1,0,0.2,0h0.3
			c0.3,0,0.6-0.1,0.7-0.3c0.2-0.2,0.2-0.6,0.2-1.1v-10.9h1.6V761C429.1,762,428.9,762.6,428.5,762.9z M427.5,748.1v-2h1.6v2H427.5z"
			/>
		<path fill="#FFFFFF" d="M438.7,759.2c-0.7,0.6-1.6,0.8-2.8,0.8c-0.8,0-1.5-0.2-2-0.4c-0.6-0.2-1.1-0.7-1.5-1.1
			c-0.4-0.5-0.7-1-0.9-1.6c-0.2-0.7-0.3-1.3-0.3-2.1c0-0.7,0.1-1.5,0.3-2c0.2-0.7,0.6-1.1,1-1.6c0.4-0.5,0.9-0.8,1.5-1.1
			c0.6-0.2,1.2-0.4,1.9-0.4c0.9,0,1.6,0.2,2.2,0.6c0.6,0.3,1.1,0.8,1.4,1.4c0.3,0.6,0.6,1.1,0.7,1.9c0.2,0.7,0.2,1.3,0.2,1.9h-7.4
			c0,0.4,0,0.8,0.2,1.2c0.1,0.4,0.3,0.7,0.6,1.1c0.2,0.3,0.6,0.6,1,0.7c0.4,0.2,0.9,0.2,1.4,0.2c0.7,0,1.2-0.2,1.7-0.5
			c0.4-0.3,0.7-0.8,0.9-1.5h1.6C439.9,757.8,439.4,758.6,438.7,759.2z M438.2,752.8c-0.2-0.3-0.3-0.7-0.6-0.9
			c-0.2-0.2-0.6-0.4-0.9-0.6s-0.7-0.2-1.1-0.2s-0.8,0.1-1.1,0.2c-0.3,0.2-0.7,0.3-0.9,0.6c-0.2,0.2-0.4,0.6-0.6,0.9
			c-0.2,0.3-0.2,0.7-0.2,1.1h5.7C438.5,753.6,438.4,753.2,438.2,752.8z"/>
		<path fill="#FFFFFF" d="M446.2,749.9v1.5h-2v6.1c0,0.2,0,0.3,0.1,0.5c0,0.1,0.1,0.2,0.2,0.2c0.1,0.1,0.2,0.1,0.4,0.2
			c0.2,0,0.3,0,0.7,0h0.7v1.5H445c-0.4,0-0.8,0-1.1-0.1c-0.3-0.1-0.6-0.2-0.7-0.3c-0.2-0.2-0.3-0.4-0.4-0.7s-0.2-0.7-0.2-1.1v-6.3
			h-1.7v-1.5h1.7V747h1.6v2.9H446.2z"/>
		<path fill="#FFFFFF" d="M450.5,757.7v2.1h-2.1v-2.1H450.5z"/>
	</g>
</g>
</svg>
